<svg xmlns="http://www.w3.org/2000/svg" viewBox="0 0 327.41 103.46"><defs><style>.a{fill:#fff;}.b{fill:#de6026;}</style></defs><title>Ресурс 2</title><path class="a" d="M109.16,113.75l2.61-1.21a3.54,3.54,0,0,0,1.36,2,4.24,4.24,0,0,0,2.52.71,3.26,3.26,0,0,0,2.32-.81,2.85,2.85,0,0,0,.85-2.17c0-1.18-1-2.24-2.93-3.16-.28-.14-.49-.24-.64-.3a14.18,14.18,0,0,1-4.42-2.93,4.82,4.82,0,0,1-1.11-3.21,5.13,5.13,0,0,1,1.67-4,6.21,6.21,0,0,1,4.37-1.53,7.37,7.37,0,0,1,3.72.86,4.59,4.59,0,0,1,2.08,2.47L119,101.86a4.13,4.13,0,0,0-1.32-1.39A3.14,3.14,0,0,0,116,100a3,3,0,0,0-2.09.69,2.32,2.32,0,0,0-.78,1.84c0,1.2,1.14,2.33,3.41,3.37l.41.2a12,12,0,0,1,4.09,2.68,4.89,4.89,0,0,1,1.11,3.27,5.9,5.9,0,0,1-1.79,4.54,6.84,6.84,0,0,1-4.86,1.68,7,7,0,0,1-4.21-1.18A5.48,5.48,0,0,1,109.16,113.75Z" transform="translate(-0.04 -14.84)"/><path class="a" d="M134.1,97.67h3.23v12.2a5.84,5.84,0,0,0,1.25,4.09,5.82,5.82,0,0,0,7.5,0,5.84,5.84,0,0,0,1.25-4.09V97.67h3.27v12.51c0,2.72-.68,4.75-2.06,6.1s-3.44,2-6.2,2-4.83-.67-6.2-2-2-3.39-2-6.11Z" transform="translate(-0.04 -14.84)"/><path class="a" d="M162.39,113.75l2.61-1.21a3.59,3.59,0,0,0,1.36,2,4.24,4.24,0,0,0,2.52.71,3.25,3.25,0,0,0,2.32-.81,2.86,2.86,0,0,0,.86-2.17c0-1.18-1-2.24-2.94-3.16l-.63-.3a14.13,14.13,0,0,1-4.43-2.93,4.82,4.82,0,0,1-1.11-3.21,5.13,5.13,0,0,1,1.67-4A6.21,6.21,0,0,1,169,97.21a7.37,7.37,0,0,1,3.72.86,4.59,4.59,0,0,1,2.08,2.47l-2.56,1.32a4.13,4.13,0,0,0-1.32-1.39,3.14,3.14,0,0,0-1.66-.44,3,3,0,0,0-2.09.69,2.31,2.31,0,0,0-.77,1.84c0,1.2,1.13,2.33,3.4,3.37l.41.2a12,12,0,0,1,4.09,2.68,4.9,4.9,0,0,1,1.12,3.27,5.91,5.91,0,0,1-1.8,4.54,6.84,6.84,0,0,1-4.86,1.68,7,7,0,0,1-4.21-1.18A5.48,5.48,0,0,1,162.39,113.75Z" transform="translate(-0.04 -14.84)"/><path class="a" d="M187.41,117.77V97.67h3.27v7.41h9.89V97.67h3.26v20.1h-3.26V108h-9.89v9.76Z" transform="translate(-0.04 -14.84)"/><path class="a" d="M216.94,117.77V97.67h3.27v20.1Z" transform="translate(-0.04 -14.84)"/><path class="a" d="M327.36,49.11a6.27,6.27,0,0,1,.09-1.37,6.76,6.76,0,0,1-.74-2.6,27.4,27.4,0,0,1-1.14-4c-.25-.89-.09-1.88-.3-2.81A8,8,0,0,1,325,36c0-.5-.4-.73-.56-1.12a30,30,0,0,1-2-4.94,2.43,2.43,0,0,0-.72-1.23,1.32,1.32,0,0,1-.54-1.52c0-.11,0-.26-.06-.39-.12.06-.08.37-.28.26s-.47-.22-.52-.49a5.51,5.51,0,0,1-.06-.57c-.05-.48-.24-.76-.78-.56-.15.29-.34.1-.47,0a10,10,0,0,1-3.23-3.37c-.19-.4-26.24-13.59-42.58-.43h0a1.22,1.22,0,0,1-.17.15,39.92,39.92,0,0,0-4.28,2.75,2.55,2.55,0,0,0-.86.74.12.12,0,0,0-.1,0l.27.37c.12.17,0,.28-.12.29-1.18.12-1.89,1.06-2.83,1.58-.61.33-1,.94-1.62,1.26a1.64,1.64,0,0,1-.67.27c-.49.51-.78,1.2-1.41,1.57-.81.47-1.12,1.41-1.88,1.92a.36.36,0,0,0-.08.15,12.18,12.18,0,0,1-1,2.19,1.42,1.42,0,0,0-.2.83,6,6,0,0,0-1.07,2.68,2.71,2.71,0,0,0-.46,1.29,43.32,43.32,0,0,0-.59,4.93,62.65,62.65,0,0,0-.22,6.28,20,20,0,0,0,1.76,7.29c.42.86.73,1.78,1.09,2.67A10.11,10.11,0,0,0,260,63.83a1.18,1.18,0,0,1,.38.57,6.53,6.53,0,0,0,1.19,2.35,1.65,1.65,0,0,1,.28.5,5.18,5.18,0,0,0,1.2,2,7,7,0,0,1,.93,1.58,4,4,0,0,0,1.45,1.46.67.67,0,0,1,.29.26c.56,1.31,1.75,2,2.78,2.86a9.69,9.69,0,0,0,2.3,1.71c.75.31,3.07,2,3.49,2.14,1.05.38,1.79,1.34,2.93,1.51.17,0,.34.06.17.29s-.1.29.09.36c1,.39,1.81,1.08,2.8,1.49a24.79,24.79,0,0,0,3.48.83c.85.22,1.73.36,2.57.64a5.18,5.18,0,0,0,2.11.17,1,1,0,0,1,.35,0,15.31,15.31,0,0,0,3.45,0,21.32,21.32,0,0,0,2.65,0c.49,0,1-.33,1.4-.29a10.36,10.36,0,0,0,2.23-.07A12,12,0,0,0,303,83a5.8,5.8,0,0,1,1.53-.48,15.66,15.66,0,0,0,2.39-1,25.92,25.92,0,0,0,5.64-3.19c1-.71,1.89-1.61,2.89-2.37a12.31,12.31,0,0,1,2.27-1.65c.06,0,.15-.14.14-.17-.31-.67.31-.57.61-.79a11.93,11.93,0,0,0,1.61-1.72c.11-.12.18-.25.33-.3a3.69,3.69,0,0,0,1.86-2.17,2.66,2.66,0,0,1,.93-1.21.62.62,0,0,0,.29-.92,2.22,2.22,0,0,1,.44-1.47,7.4,7.4,0,0,0,2-2.86c.72-1.32.56-2.82,1-4.16.54-1.73.18-3.43.36-5.13,0-.42-.21-.83,0-1.25C327.34,51.15,327.36,50.13,327.36,49.11ZM296.24,18.43c.16,0,.31,0,.34.24s-.15.29-.32.26-.35-.14-.34-.34S296.11,18.43,296.24,18.43ZM270.61,52.61A.65.65,0,0,1,271,52c.24,0,.32.18.35.39s-.13.42-.39.46S270.6,52.82,270.61,52.61ZM284.69,77c-.15.06-.23-.06-.26-.15a2.33,2.33,0,0,0-1-1c-.1-.05-.21-.13-.19-.26s.19-.15.31-.19l.56-.13c.52-.1,1-.09,1.1.57.07.38.34.58.72.78ZM310,51.78c-.3.35-.36.85-.79,1.12-.16.1-.12.35,0,.54a.59.59,0,0,1-.16.82c-.07.05-.17.17-.15.22.28.79-.6,1.65.21,2.44.38.37,0,1.33-.58,1.52-.34.11-.43.26-.41.62a2.5,2.5,0,0,1-.34,1.37.39.39,0,0,0,.31.61c.48,0,.48,0,.55.65a2.31,2.31,0,0,1-.61-.3c-.26-.27-.45-.19-.62,0a.42.42,0,0,0,.13.69,2,2,0,0,1,.84.84c.2.31.34.59.79.49.22-.05.43.13.21.34a20,20,0,0,1-2.11,1.9c-.19-.23,0-.44-.19-.68-.16.63-.85.62-1.15,1a1.51,1.51,0,0,1-1.57.6c-.17,0-.24.12-.33.27-.23.39-.47.77-1,.46-.21-.12-.31.05-.37.23-.19.59-.53.69-1.11.47a1.58,1.58,0,0,0-1.69.53c-.18.18-.25.22-.45.06a.38.38,0,0,0-.64.21c-.14.48-.56.72-.85,1.06s-.66.29-1,0c-.61-.54-.81-.56-1.47-.16s-1,.72-1.73.44c-.44-.17-.65.37-.66.69,0,.53-.49.77-.59,1.23,0,.15-.56.21-.88.26a1.56,1.56,0,0,1-1.28-.32c-.17-.14-.34-.39-.27-.54.27-.6-.18-.7-.53-.85s-.72-.21-1.07-.38a.56.56,0,0,0-.85.31c-.24.61-.93.82-1.24,1.41-.16.29-.6,0-.91-.08a.47.47,0,0,1-.41-.48,1.41,1.41,0,0,0-1.2-1.35,3.84,3.84,0,0,1-.85-.33c-.42-.2-.83-.41-1.29-.12-.11.07-.26.16-.38.07-.8-.65-1.67-.22-2.5-.14s-1.26.8-1.26,1.86c-.29-.53-.86-.7-1.1-1.13a10.67,10.67,0,0,0-.94-1.46c-.2-.27-.12-.64.37-.69a1.49,1.49,0,0,0,1.4-1.17,1.91,1.91,0,0,0-.7-2A10.17,10.17,0,0,1,275,63.53a1.67,1.67,0,0,0-.58-.47c-.27-.12-.42-.36-.29-.6a.77.77,0,0,0,0-.63,1.59,1.59,0,0,0-.38-.69c-.88-.36-1.62-.64-2.34-1a.4.4,0,0,1-.11-.64c.29-.33.62-.62.94-.93.07-.07.15-.14.24-.1l0,0h0l0,0h0a0,0,0,0,1,0,0h0a.09.09,0,0,1,0,0h0a1.08,1.08,0,0,0-.06-.42s0,0,0-.07h0a.62.62,0,0,1,0-.19c.08-.3.17-.59.25-.89a2.2,2.2,0,0,0-.21-1.79,2.1,2.1,0,0,1-.24-1.74,2.34,2.34,0,0,0,.07-1,20.34,20.34,0,0,1,0-2.59,6.08,6.08,0,0,1-.2-1.59c-.26-.09-.28.28-.43.15a.47.47,0,0,1-.13-.53c.08-.22.16-.39-.15-.49s-.57-.29-.53-.55.46-.4.7-.39c.6,0,.63-.29.7-.74a7.17,7.17,0,0,0-.08-2.69,1.45,1.45,0,0,1,.67-1.52c.23-.14.43-.32.65-.47s.24-.18.29-.15c.46.3.66-.09.89-.34a6.22,6.22,0,0,1,1-.81A3.27,3.27,0,0,0,277,37.18c0-.27.07-.54.06-.8,0-.45.07-.74.57-.89s.59-.58.72-1a1.6,1.6,0,0,0,0-.23c.19-1.29.29-1.41,1.55-1.25a1.74,1.74,0,0,0,1.21-.37,6.31,6.31,0,0,1,1.8-1,8.44,8.44,0,0,1,2.35-.09,1.61,1.61,0,0,0,1.44-.48.69.69,0,0,1,.28-.2,4.69,4.69,0,0,0,2.24-2.2c.23-.4,1.3-.55,1.57-.2a.2.2,0,0,1,0,.08s0,0,0,0h0l.82.37c.09.09,4.89.54,7.2,3.17,1.78,2,4.95,2.89,6.47,5.18s3.94,6,3.44,6.8-.26,4.07-.26,4.07h0s0,0,0,0l0,.08a2.77,2.77,0,0,0,1,1.14A1.88,1.88,0,0,1,310,51.78Zm-.58-31.73c-.19-.14-.17-.32.09-.36a.69.69,0,0,1,.56.08l1.72,1.32A5.5,5.5,0,0,1,309.43,20.05Zm3,36.72c-.15,0-.2-.1-.18-.22s.1-.37.29-.38.1.21.16.32S312.63,56.76,312.47,56.77Zm1-5.44c-.35-.17-.44.18-.62.36s-.26.5-.51.34a1.11,1.11,0,0,1-.36-.69c0-.26.25-.22.42-.27a2,2,0,0,0,.79-.55c.11-.12.18-.35.39-.29s.16.31.19.5a2.43,2.43,0,0,1,0,.3C313.82,51.2,314,51.55,313.51,51.33Zm3.94-15.8c0,.12-.07.2-.18.15l0,0c-.09-.07-.21-.15-.24-.25-.25-.75-1.07-1.1-1.27-1.91-.06-.23-.17-.81-.73-.43-.1.07-.12-.11-.18-.18a12,12,0,0,0-1.45-1.3,3.44,3.44,0,0,1-1.13-2.09c-.07-.29.21-.44.39-.27.36.36,1.07.36,1.1,1.05,1,.71,1.2,2.07,2.2,2.74s.89,1.68,1.51,2.4c0,0,0,.07,0,.11Zm-.57-9a.37.37,0,0,1,.43.36c0,.15-.06.25-.24.26s-.4-.13-.44-.37S316.73,26.54,316.88,26.53Zm1.55.23c-.16.15-.26-.06-.39-.12-.58-.3-.9-.89-1.39-1.29-.69-.57-1.27-1.27-2-1.83-.12-.09-.27-.2-.21-.38s.19-.12.33-.13c.46,0,.72.47,1.06.72a7.5,7.5,0,0,1,2.48,2.68C318.39,26.53,318.56,26.64,318.43,26.76Zm2.34,40.6a.81.81,0,0,1-.64-.72c0-.52.49-.6.89-.64s.39.27.4.51C321.42,66.92,321,67.44,320.77,67.36Zm.84-34.07c-.47.08-.4-.49-.5-.78a29.31,29.31,0,0,0-1.52-3.72c-.09-.2,0-.31.19-.27a1,1,0,0,1,.71.33A9.51,9.51,0,0,1,322,32.2C321.85,32.67,322,33.2,321.61,33.29Zm.68,11.31c-.22-.21.08-.32.18-.46a4.91,4.91,0,0,0,.68-2.87c0-.2-.17-.49.13-.54s.31.24.35.45.11.57.17.9c-.27.79-.1,1.76-.91,2.38C322.7,44.61,322.5,44.8,322.29,44.6Zm1.49,6.55c-.16.21-1.08,0-1.19-.27s.09-.21.22-.23.42,0,.63-.08c.66-.09.67-.71.93-1.14A2,2,0,0,1,323.78,51.15Z" transform="translate(-0.04 -14.84)"/><path class="b" d="M277.54,62.05a3.61,3.61,0,0,0,.76.51,2.21,2.21,0,0,1,1.2,1.62c0,.09,0,.19.05.25a4.42,4.42,0,0,0,2.6,2.1c.12,0,.26-.06.39-.07s.52-.33.59.17c0,.1.11,0,.17,0a8.63,8.63,0,0,1,2.63.22,5.88,5.88,0,0,0,2.64.24,3.44,3.44,0,0,1,1.52.12,5.83,5.83,0,0,0,3.45-.47,12,12,0,0,1,2.3-.4,2.39,2.39,0,0,0,1.43-.56A5,5,0,0,1,298.6,65c0-.17-.13-.16-.2-.15a14.07,14.07,0,0,1-3.37,0,11.63,11.63,0,0,1-3.79-1c-.38-.17-.6-.38-.5-.86a4.75,4.75,0,0,1,.15-1c.1.06.16.34.28.17.23-.35.68-.38.89-.79s.56-.37.87,0c.16.18.3.34.56.23a.94.94,0,0,1,1,.16c.16.11.33.25.51.22.62-.12,1,.36,1.51.5a3.25,3.25,0,0,0,2,.07,4.45,4.45,0,0,1,1.46,0c.19,0,.18.23.22.37a9.52,9.52,0,0,0-1,1.2.62.62,0,0,0,.59-.21c.12-.11.27-.33.37-.31.51.1.56-.28.69-.59a4.76,4.76,0,0,0,1.72-.84c.44-.28.62-1,.84-1.56s.18-1.19,1-1.21a.31.31,0,0,0,.27-.22c.15-.56.5-1,.61-1.62a4,4,0,0,1,.1-1,8.93,8.93,0,0,0,.7-4,.92.92,0,0,0,.46-1,.77.77,0,0,1,0-.54c.19-.32.05-.47-.27-.53a.43.43,0,0,1-.06-.33.49.49,0,0,0-.35-.69c.28-.08.56-.14.3-.54a.23.23,0,0,1,.08-.34,8.57,8.57,0,0,1-.67-3.83c.07-2.75-1.83-3.94-3-5.23a31.93,31.93,0,0,0-3.89-3c-.91-.73-1.43-2.41-3-2.92S291,31.81,291,31.81c-.06.17-.22.08-.35,0a.89.89,0,0,0-1.12.36,4.41,4.41,0,0,1-3.11,2.33c-.31.06-.61.41-.86-.1-.06-.12-.25,0-.38,0a9.08,9.08,0,0,0-2.69,1.18c-.43.35-1,.27-1.55.36q-.45.07-.48.42a2,2,0,0,1-.72,1.29,1.58,1.58,0,0,0-.45,1.2,2.81,2.81,0,0,1-.63,2c-.56.66-1.23,1.21-1.83,1.83a5.81,5.81,0,0,1-1.28.89.73.73,0,0,0-.43.8,9,9,0,0,1,0,3.14,17.9,17.9,0,0,0-.05,2.83,4.2,4.2,0,0,0,.07.87c.19,1,0,2.81.56,4a4.75,4.75,0,0,1,.26,3.5C275.6,59.72,277.31,61.87,277.54,62.05Z" transform="translate(-0.04 -14.84)"/><path class="b" d="M22.94,19l3.33-1.76,4.37,7.16a40.74,40.74,0,0,0,12.8-1.94,31.69,31.69,0,0,0,10.39-5.66l2.36,1.71a36.22,36.22,0,0,1-7.8,7.92A94.32,94.32,0,0,1,35,33.53a56,56,0,0,1,2.5,8.82,44.89,44.89,0,0,1,.84,8.59,52.82,52.82,0,0,1-2.72,17,64.83,64.83,0,0,1-8.41,16.15L15.83,72.27A61.13,61.13,0,0,0,24.61,57.9q4-9.66,4-17.16a40.94,40.94,0,0,0-.44-5.15,63.28,63.28,0,0,1-15-1.69A58.52,58.52,0,0,1,0,29L8.82,18.08A75.45,75.45,0,0,0,17,22c.94.33,2.12.67,3.53,1s3,.68,4.8,1Z" transform="translate(-0.04 -14.84)"/><path class="b" d="M99.58,79.87l1.76,3.24a43.78,43.78,0,0,1-5.83.73A23.1,23.1,0,0,1,91,83.25l-6.18,1.67-1.18-2.21,2.65-1.13A36.7,36.7,0,0,1,74,72.91a38.72,38.72,0,0,1-6.91-11.06,31.2,31.2,0,0,1-2.55-12,27.25,27.25,0,0,1,5.88-17q3.72-4.91,12.21-10.69l-3.82-5.54c1,0,2.22-.05,3.62-.15s2.33-.14,2.75-.14a44.07,44.07,0,0,1,11.43,1.61l7.7-1.52.54,2.36-3.24,1.08q9,5.1,13.63,11.52A29.8,29.8,0,0,1,121,49.27a30.08,30.08,0,0,1-5.32,17.53Q110.37,74.48,99.58,79.87Zm-1.42-2.65a69.85,69.85,0,0,0,5.29-4.85q8-8.1,8-18.49A18.74,18.74,0,0,0,105.9,40a21,21,0,0,0-6.71-4.56,29.57,29.57,0,0,0-8.68-1.91l-6.13-8.83a49.28,49.28,0,0,0-7.31,9.07,27.14,27.14,0,0,0-2.45,5.77,20.9,20.9,0,0,0-.84,5.91A22,22,0,0,0,79.23,60a18,18,0,0,0,5.44,4.36,31.93,31.93,0,0,0,8.09,2.41Z" transform="translate(-0.04 -14.84)"/><path class="b" d="M141.89,53.49a45.72,45.72,0,0,1-9.17-3.14l1.37-3.78A23,23,0,0,0,143,48.88q.43-2.4.69-4.74a44.12,44.12,0,0,0,.24-4.53,37.07,37.07,0,0,0-1.27-10.25,46.06,46.06,0,0,0-4.91-10.45l3.63-2.4a69.07,69.07,0,0,1,7.43,13.63,79.57,79.57,0,0,1,3.95,15.79l2.5-1.52a81.93,81.93,0,0,1-.59-9.51c0-1.24.05-2.61.15-4.09s.26-3.18.49-5.08l3.48.79V29.7A44.63,44.63,0,0,0,160,40.64a40.43,40.43,0,0,0,12.55-25.8L185,25.93q-5.3,13.43-21.68,23a42.77,42.77,0,0,0,9.37,12.33,44.11,44.11,0,0,0,13.88,7.82L175.33,83.6q-13.92-12-18.68-31.58l-3.09.93.1,1.76A63.12,63.12,0,0,1,150,75a29.36,29.36,0,0,1-1.74,4c-.73,1.43-1.66,3-2.77,4.8L134.24,69A59.81,59.81,0,0,0,141.89,53.49Z" transform="translate(-0.04 -14.84)"/><path class="b" d="M243.74,57.56l-1.82,25.59a5.2,5.2,0,0,1-2.35.45,23,23,0,0,1-4.22-.62,23,23,0,0,0-4.41-.61,5.57,5.57,0,0,0-1.28.1l-2.94,2.25-1.33-1.81a21.23,21.23,0,0,1-8.21-1.72,27.54,27.54,0,0,1-7.67-4.8,19.79,19.79,0,0,1-6.18-8.88,42.06,42.06,0,0,1-1.3-6.74,78.94,78.94,0,0,1-.52-9.64,72.33,72.33,0,0,0-.32-7.35,47.35,47.35,0,0,0-.95-5.94,35.37,35.37,0,0,0-3.63-9.66L207,15.83a27.9,27.9,0,0,1,4.46,8.72,45.68,45.68,0,0,1,1.23,12q0,5.19-.5,10.74c0,1.57-.07,3.16-.22,4.78s-.28,3.24-.41,4.88c0,1.41,0,2.82.14,4.24s.28,3,.54,4.83a16.79,16.79,0,0,0,3.07,8.07,17.56,17.56,0,0,0,7.28,5L218,72.86a52.86,52.86,0,0,0,7.45-3.31,20.34,20.34,0,0,0,4.91-4,21.51,21.51,0,0,0,4-6.2,18.79,18.79,0,0,0,1.25-7.09l0-3.87-.1-3.88a51.24,51.24,0,0,1,2.3-15.25,30.38,30.38,0,0,1,2.95-7,21.57,21.57,0,0,1,4.6-5l1.38.93a45.79,45.79,0,0,0-1.79,4.76,41.05,41.05,0,0,0-1.25,5,77.07,77.07,0,0,0-.84,12.45q0,5.25.64,11.63C243.64,54.22,243.74,56.08,243.74,57.56Z" transform="translate(-0.04 -14.84)"/></svg>