<?xml version="1.0" encoding="utf-8"?>
<!-- Generator: Adobe Illustrator 23.0.2, SVG Export Plug-In . SVG Version: 6.00 Build 0)  -->
<svg version="1.1" id="Слой_1" xmlns="http://www.w3.org/2000/svg" xmlns:xlink="http://www.w3.org/1999/xlink" x="0px" y="0px"
	 viewBox="0 0 80 80" style="enable-background:new 0 0 80 80;" xml:space="preserve">
<style type="text/css">
	.st0{fill:#569196;}
	.st1{fill:none;stroke:#FFFFFF;stroke-width:0.25;stroke-miterlimit:10;}
	.st2{fill:#FFFFFF;stroke:#FFFFFF;stroke-width:0.25;stroke-miterlimit:10;}
	.st3{fill:#FFFFFF;}
</style>
<rect class="st0" width="80" height="80"/>
<circle class="st1" cx="40" cy="40" r="32.5"/>
<g>
	<path class="st2" d="M7.427,40.341c0,0-2.181-1.199-3.319-3.898C7,37.342,7.379,38.242,7.427,40.341"/>
	<path class="st2" d="M9.508,51.461c0,0-2.46-0.381-4.452-2.527C8.081,48.789,8.745,49.505,9.508,51.461"/>
	<path class="st2" d="M15.267,61.198c0,0-2.442,0.483-5.048-0.852C13.012,59.176,13.881,59.621,15.267,61.198"/>
	<path class="st2" d="M24.009,68.379c0,0-2.129,1.289-5.035,0.926C21.198,67.25,22.167,67.371,24.009,68.379"/>
	<path class="st2" d="M34.679,72.137c0,0-1.56,1.94-4.415,2.592C31.652,72.037,32.604,71.82,34.679,72.137"/>
	<path class="st2" d="M45.992,72.019c0,0-0.802,2.356-3.262,3.946C43.113,72.96,43.933,72.43,45.992,72.019"/>
	<path class="st2" d="M56.581,68.038c0,0,0.052,2.488-1.716,4.824C54.198,69.908,54.787,69.129,56.581,68.038"/>
	<path class="st2" d="M65.171,60.676c0,0,0.9,2.321,0.037,5.12C63.571,63.248,63.859,62.315,65.171,60.676"/>
	<path class="st2" d="M70.725,50.82c0,0,1.639,1.873,1.786,4.798C70.101,53.784,70.052,52.809,70.725,50.82"/>
	<path class="st2" d="M72.573,39.659c0,0,2.181,1.199,3.319,3.898C73,42.658,72.621,41.758,72.573,39.659"/>
	<path class="st2" d="M70.492,28.539c0,0,2.46,0.381,4.452,2.527C71.919,31.211,71.255,30.495,70.492,28.539"/>
	<path class="st2" d="M64.733,18.802c0,0,2.442-0.483,5.048,0.852C66.988,20.824,66.119,20.379,64.733,18.802"/>
	<path class="st2" d="M55.991,11.621c0,0,2.129-1.289,5.035-0.926C58.802,12.75,57.833,12.629,55.991,11.621"/>
	<path class="st2" d="M45.321,7.863c0,0,1.56-1.94,4.415-2.592C48.348,7.963,47.396,8.18,45.321,7.863"/>
	<path class="st2" d="M34.008,7.981c0,0,0.802-2.356,3.262-3.946C36.887,7.04,36.067,7.57,34.008,7.981"/>
	<path class="st2" d="M23.419,11.962c0,0-0.052-2.488,1.716-4.824C25.802,10.092,25.213,10.871,23.419,11.962"/>
	<path class="st2" d="M14.829,19.324c0,0-0.9-2.321-0.037-5.12C16.429,16.752,16.141,17.685,14.829,19.324"/>
	<path class="st2" d="M9.275,29.18c0,0-1.639-1.873-1.786-4.798C9.899,26.216,9.948,27.191,9.275,29.18"/>
</g>
<g>
	<path class="st3" d="M7.58,37.725c0,0,3.458-0.545,2.839-3.453c-2.763,2.108-2.687,0.63-2.85,3.296"/>
	<path class="st3" d="M8.757,48.951c0,0,3.063-1.695,1.487-4.216c-1.875,2.926-2.309,1.511-1.551,4.072"/>
	<path class="st3" d="M13.703,59.097c0,0,2.299-2.64-0.045-4.47c-0.761,3.391-1.653,2.21-0.065,4.356"/>
	<path class="st3" d="M21.82,66.939c0,0,1.257-3.267-1.571-4.186c0.444,3.446-0.798,2.642,1.429,4.116"/>
	<path class="st3" d="M32.13,71.532c0,0,0.064-3.5-2.908-3.396c1.596,3.087,0.154,2.755,2.751,3.379"/>
	<path class="st3" d="M43.39,72.322c0,0-1.137-3.311-3.894-2.197c2.556,2.355,1.087,2.537,3.74,2.234"/>
	<path class="st3" d="M54.24,69.214c0,0-2.201-2.723-4.41-0.732c3.207,1.338,1.889,2.012,4.279,0.82"/>
	<path class="st3" d="M63.373,62.582c0,0-3-1.806-4.395,0.82c3.471,0.161,2.463,1.245,4.301-0.693"/>
	<path class="st3" d="M69.687,53.226c0,0-3.436-0.671-3.849,2.274c3.317-1.036,2.74,0.327,3.805-2.122"/>
	<path class="st3" d="M72.42,42.275c0,0-3.458,0.545-2.839,3.453c2.763-2.108,2.687-0.63,2.85-3.296"/>
	<path class="st3" d="M71.243,31.049c0,0-3.063,1.695-1.487,4.216c1.875-2.926,2.309-1.511,1.551-4.072"/>
	<path class="st3" d="M66.297,20.903c0,0-2.299,2.64,0.045,4.47c0.761-3.39,1.653-2.21,0.065-4.356"/>
	<path class="st3" d="M58.18,13.061c0,0-1.257,3.267,1.571,4.186c-0.444-3.446,0.798-2.642-1.429-4.116"/>
	<path class="st3" d="M47.87,8.468c0,0-0.064,3.5,2.908,3.396c-1.596-3.087-0.154-2.755-2.751-3.379"/>
	<path class="st3" d="M36.61,7.678c0,0,1.137,3.311,3.894,2.197c-2.556-2.355-1.087-2.537-3.74-2.234"/>
	<path class="st3" d="M25.76,10.786c0,0,2.201,2.723,4.41,0.732c-3.207-1.338-1.889-2.012-4.279-0.82"/>
	<path class="st3" d="M16.627,17.418c0,0,3,1.806,4.395-0.82c-3.471-0.161-2.463-1.245-4.301,0.693"/>
	<path class="st3" d="M10.313,26.774c0,0,3.436,0.671,3.849-2.274c-3.317,1.036-2.74-0.327-3.805,2.122"/>
</g>
<g>
	<g>
		<path class="st3" d="M14.98,42.941l-0.059,0.765c0,0.8,0.176,1.347,0.528,1.638c0.121,0.099,0.267,0.148,0.436,0.148
			s0.321-0.045,0.456-0.134c0.134-0.09,0.245-0.207,0.332-0.353c0.183-0.298,0.273-0.642,0.273-1.032s-0.052-0.744-0.156-1.063
			c-0.104-0.317-0.234-0.635-0.391-0.952l-0.521-0.974c-0.421-0.768-0.704-1.467-0.847-2.1c-0.144-0.632-0.215-1.212-0.215-1.742
			c0-0.529,0.042-1.031,0.127-1.504c0.084-0.473,0.203-0.923,0.355-1.35c0.152-0.427,0.334-0.819,0.547-1.176s0.45-0.665,0.71-0.923
			c0.543-0.556,1.081-0.834,1.615-0.834s0.951,0.113,1.25,0.338c0.299,0.225,0.541,0.509,0.723,0.854
			c0.339,0.648,0.508,1.433,0.508,2.353c0,0.854-0.159,1.658-0.476,2.413c-0.291,0.688-0.617,1.125-0.977,1.31
			c-0.078,0.06-0.186,0.089-0.322,0.089s-0.252-0.031-0.345-0.094c-0.093-0.063-0.175-0.147-0.244-0.253
			c-0.152-0.231-0.228-0.483-0.228-0.754c0-0.186,0.037-0.308,0.111-0.368c0.33-0.271,0.617-0.665,0.86-1.181
			c0.265-0.563,0.404-1.123,0.417-1.683c0.013-0.559-0.075-0.973-0.264-1.241s-0.439-0.402-0.752-0.402
			c-0.313,0-0.595,0.108-0.846,0.323c-0.252,0.215-0.469,0.505-0.651,0.869c-0.391,0.781-0.586,1.704-0.586,2.77
			c0,0.708,0.161,1.456,0.482,2.244c0.135,0.337,0.281,0.67,0.44,0.998c0.158,0.328,0.307,0.664,0.446,1.008
			c0.317,0.801,0.476,1.519,0.476,2.155c0,0.635-0.075,1.171-0.225,1.607s-0.349,0.817-0.596,1.142
			c-0.534,0.702-1.142,1.053-1.823,1.053c-0.643,0-1.138-0.291-1.485-0.874c-0.278-0.47-0.417-0.979-0.417-1.528
			c0-0.596,0.111-1.099,0.332-1.509c0.169-0.312,0.332-0.497,0.489-0.557C14.809,42.296,14.98,42.465,14.98,42.941z"/>
		<path class="st3" d="M22.291,45.666c-0.593,0.798-1.057,1.196-1.394,1.196c-0.337,0-0.57-0.265-0.7-0.794
			c-0.048-0.186-0.072-0.357-0.072-0.517c0-0.43,0.044-0.847,0.133-1.25c0.089-0.404,0.177-0.781,0.264-1.132l0.573-2.254
			c0.222-0.92,0.356-1.562,0.404-1.926c0.048-0.364,0.042-0.611-0.02-0.74c-0.061-0.129-0.131-0.242-0.211-0.337
			c-0.081-0.096-0.156-0.182-0.228-0.258c-0.072-0.076-0.107-0.172-0.107-0.288s0.031-0.227,0.094-0.333
			c0.063-0.105,0.146-0.198,0.251-0.278c0.208-0.152,0.424-0.228,0.648-0.228s0.399,0.035,0.527,0.104
			c0.128,0.069,0.233,0.157,0.316,0.263c0.161,0.218,0.241,0.481,0.241,0.789s-0.034,0.654-0.101,1.038s-0.152,0.791-0.254,1.221
			c-0.102,0.431-0.216,0.877-0.342,1.34l-0.358,1.37c-0.282,1.105-0.454,1.933-0.515,2.481c0.408-0.212,0.949-0.973,1.622-2.283
			c0.733-1.436,1.383-3.074,1.947-4.914c0.065-0.232,0.146-0.381,0.241-0.447c0.156-0.113,0.354-0.162,0.593-0.149
			c0.378,0.02,0.573,0.198,0.586,0.536c0.009,0.205-0.027,0.432-0.107,0.68c-0.08,0.249-0.146,0.455-0.198,0.621l-0.254,0.794
			c-0.508,1.569-0.762,2.843-0.762,3.822c0,0.682,0.122,1.148,0.365,1.399c0.069,0.08,0.176,0.119,0.319,0.119
			c0.144,0,0.313-0.077,0.508-0.233c0.195-0.155,0.382-0.369,0.56-0.641c0.178-0.271,0.344-0.586,0.498-0.947
			c0.154-0.36,0.288-0.746,0.4-1.156c0.239-0.867,0.358-1.635,0.358-2.304c0-1.145-0.141-1.988-0.423-2.531
			c-0.096-0.172-0.067-0.374,0.084-0.605c0.161-0.245,0.413-0.367,0.756-0.367c0.421,0,0.708,0.361,0.859,1.082
			c0.061,0.271,0.091,0.678,0.091,1.221c0,0.543-0.063,1.147-0.189,1.812c-0.126,0.666-0.296,1.304-0.511,1.917
			c-0.215,0.611-0.462,1.183-0.742,1.712c-0.28,0.529-0.574,0.989-0.883,1.38c-0.66,0.834-1.272,1.251-1.836,1.251
			c-0.968,0-1.453-0.953-1.453-2.859c0-0.437,0.026-0.863,0.079-1.28C23.436,43.901,22.883,44.868,22.291,45.666z"/>
		<path class="st3" d="M30.214,43.328c0.017-0.575,0.08-1.126,0.189-1.652c0.108-0.526,0.254-1.036,0.436-1.529
			c0.183-0.493,0.396-0.959,0.642-1.399c0.245-0.44,0.511-0.826,0.798-1.157c0.621-0.708,1.248-1.062,1.882-1.062
			c0.742,0,1.237,0.466,1.485,1.399c0.087,0.318,0.128,0.693,0.124,1.127s-0.059,0.834-0.163,1.201
			c-0.104,0.367-0.249,0.702-0.433,1.003c-0.185,0.301-0.404,0.57-0.658,0.809c-0.254,0.238-0.531,0.44-0.831,0.605
			c-0.617,0.331-1.276,0.504-1.98,0.517c-0.017,0.093-0.028,0.231-0.033,0.417c-0.004,0.186,0.009,0.393,0.04,0.62
			c0.03,0.229,0.082,0.432,0.156,0.61c0.156,0.397,0.382,0.596,0.677,0.596c0.503,0,0.994-0.225,1.472-0.675
			c0.169-0.152,0.307-0.31,0.414-0.472s0.199-0.243,0.277-0.243s0.146,0.071,0.205,0.214C34.971,44.398,35,44.559,35,44.738
			c0,0.351-0.065,0.655-0.195,0.913c-0.547,0.834-1.361,1.251-2.442,1.251c-0.638,0-1.15-0.291-1.537-0.874
			C30.392,45.367,30.188,44.467,30.214,43.328z M34.017,37.849c-0.456,0-0.895,0.476-1.315,1.429
			c-0.356,0.821-0.643,1.793-0.86,2.919c0.725-0.113,1.355-0.55,1.889-1.311c0.491-0.715,0.736-1.4,0.736-2.055
			C34.467,38.176,34.317,37.849,34.017,37.849z"/>
		<path class="st3" d="M36.505,43.328c0.017-0.575,0.08-1.126,0.189-1.652c0.108-0.526,0.254-1.036,0.436-1.529
			c0.183-0.493,0.396-0.959,0.642-1.399c0.245-0.44,0.511-0.826,0.798-1.157c0.621-0.708,1.248-1.062,1.882-1.062
			c0.742,0,1.238,0.466,1.485,1.399c0.087,0.318,0.128,0.693,0.124,1.127c-0.005,0.434-0.059,0.834-0.163,1.201
			s-0.249,0.702-0.433,1.003c-0.186,0.301-0.404,0.57-0.658,0.809c-0.254,0.238-0.531,0.44-0.831,0.605
			c-0.617,0.331-1.276,0.504-1.98,0.517c-0.017,0.093-0.028,0.231-0.033,0.417c-0.004,0.186,0.009,0.393,0.04,0.62
			c0.03,0.229,0.082,0.432,0.156,0.61c0.156,0.397,0.382,0.596,0.677,0.596c0.503,0,0.994-0.225,1.472-0.675
			c0.169-0.152,0.307-0.31,0.414-0.472s0.199-0.243,0.277-0.243c0.078,0,0.146,0.071,0.205,0.214
			c0.059,0.142,0.088,0.302,0.088,0.481c0,0.351-0.064,0.655-0.195,0.913c-0.546,0.834-1.361,1.251-2.442,1.251
			c-0.638,0-1.15-0.291-1.537-0.874C36.683,45.367,36.479,44.467,36.505,43.328z M40.308,37.849c-0.456,0-0.895,0.476-1.315,1.429
			c-0.356,0.821-0.643,1.793-0.86,2.919c0.725-0.113,1.355-0.55,1.889-1.311c0.491-0.715,0.736-1.4,0.736-2.055
			C40.758,38.176,40.608,37.849,40.308,37.849z"/>
		<path class="st3" d="M46.522,44.202c0.126,0,0.188,0.129,0.188,0.387c0,0.219-0.043,0.431-0.13,0.636
			c-0.117,0.384-0.353,0.748-0.704,1.092c-0.399,0.391-0.801,0.586-1.204,0.586c-0.699,0-1.143-0.477-1.329-1.43
			c-0.222-1.132,0.11-3.53,0.996-7.197c-0.499-0.066-0.771-0.199-0.813-0.397c-0.014-0.06-0.02-0.125-0.02-0.194
			s0.021-0.15,0.062-0.243s0.095-0.182,0.16-0.268c0.151-0.192,0.306-0.288,0.462-0.288h0.515c0.469-1.674,0.803-2.627,1.003-2.859
			c0.096-0.105,0.202-0.159,0.319-0.159s0.215,0.023,0.293,0.069c0.078,0.046,0.147,0.113,0.208,0.199
			c0.14,0.199,0.209,0.42,0.209,0.665c0,0.132-0.026,0.285-0.078,0.457l-0.482,1.599h0.156c0.27,0,0.486-0.003,0.651-0.01
			l0.371-0.01c0.083-0.006,0.186-0.01,0.31-0.01s0.186,0.069,0.186,0.208c0,0.874-0.677,1.311-2.032,1.311h-0.052l-0.443,1.747
			c-0.499,2.065-0.748,3.512-0.748,4.338c0,0.232,0.034,0.412,0.104,0.541c0.069,0.13,0.2,0.194,0.391,0.194
			c0.191,0,0.365-0.05,0.521-0.149c0.156-0.099,0.293-0.21,0.41-0.332c0.117-0.123,0.218-0.233,0.303-0.333
			C46.389,44.252,46.461,44.202,46.522,44.202z"/>
		<path class="st3" d="M53.842,33.57c0-0.556-0.217-0.834-0.651-0.834c-0.829,0-1.583,0.586-2.26,1.757
			c-0.399,0.688-0.68,1.433-0.841,2.233c-0.078,0.391-0.117,0.735-0.117,1.033s0.023,0.534,0.068,0.709
			c0.046,0.176,0.104,0.319,0.173,0.432c0.147,0.238,0.319,0.331,0.515,0.278c0.213-0.132,0.4-0.199,0.563-0.199
			s0.293,0.032,0.391,0.094c0.098,0.063,0.177,0.141,0.237,0.233c0.126,0.186,0.189,0.364,0.189,0.536
			c0,0.337-0.074,0.513-0.222,0.526c-0.226,0.033-0.462,0.129-0.71,0.288c-0.247,0.159-0.497,0.366-0.749,0.621
			s-0.476,0.541-0.671,0.859c-0.447,0.728-0.671,1.459-0.671,2.193c0,0.351,0.055,0.615,0.163,0.794
			c0.183,0.312,0.399,0.467,0.651,0.467s0.498-0.074,0.739-0.224c0.241-0.148,0.459-0.329,0.654-0.541
			c0.296-0.324,0.582-0.737,0.86-1.24c0.139-0.252,0.26-0.378,0.364-0.378s0.184,0.095,0.237,0.283
			c0.055,0.188,0.082,0.389,0.082,0.601c0,0.437-0.055,0.759-0.163,0.968c-0.108,0.208-0.244,0.417-0.407,0.625
			c-0.162,0.209-0.356,0.402-0.583,0.581c-0.542,0.424-1.124,0.636-1.745,0.636c-1.046,0-1.763-0.523-2.149-1.568
			c-0.139-0.391-0.208-0.791-0.208-1.201s0.04-0.791,0.12-1.142s0.184-0.677,0.31-0.979c0.126-0.301,0.267-0.572,0.424-0.813
			c0.156-0.242,0.31-0.452,0.462-0.631c0.3-0.357,0.547-0.559,0.742-0.605c-0.49-0.298-0.82-0.877-0.989-1.737
			c-0.053-0.278-0.078-0.615-0.078-1.013c0-0.397,0.05-0.835,0.149-1.315c0.1-0.48,0.241-0.94,0.423-1.38
			c0.183-0.44,0.399-0.852,0.651-1.236c0.252-0.383,0.53-0.718,0.834-1.002c0.655-0.609,1.346-0.913,2.071-0.913
			c0.76,0,1.326,0.288,1.699,0.863c0.3,0.463,0.45,1.056,0.45,1.777c0,0.82-0.227,1.651-0.678,2.492
			c-0.273,0.503-0.52,0.844-0.739,1.022c-0.219,0.179-0.391,0.276-0.515,0.292c-0.124,0.017-0.238-0.006-0.345-0.069
			s-0.199-0.147-0.277-0.253c-0.178-0.245-0.267-0.467-0.267-0.665c0-0.245,0.057-0.434,0.169-0.566l0.586-0.635
			C53.49,34.837,53.842,34.152,53.842,33.57z"/>
		<path class="st3" d="M59.346,44.162c0,0.609,0.141,0.913,0.423,0.913c0.195,0,0.357-0.046,0.485-0.139s0.214-0.14,0.258-0.14
			c0.091,0,0.137,0.073,0.137,0.219c0,0.569-0.196,1.06-0.587,1.47c-0.412,0.43-0.833,0.536-1.263,0.317
			c-0.283-0.152-0.491-0.479-0.626-0.982c-0.064-0.259-0.098-0.493-0.098-0.705c0-0.344,0.021-0.708,0.065-1.092
			c-0.404,1.257-0.905,2.124-1.505,2.601c-0.238,0.186-0.492,0.278-0.762,0.278s-0.503-0.085-0.7-0.254
			c-0.197-0.168-0.365-0.401-0.505-0.699c-0.282-0.622-0.41-1.403-0.384-2.343c0.026-1.178,0.254-2.333,0.684-3.465
			c0.396-1.059,0.895-1.922,1.498-2.591c0.604-0.682,1.168-1.022,1.693-1.022s0.948,0.367,1.27,1.102
			c0.3-0.734,0.564-1.102,0.795-1.102c0.247,0,0.435,0.069,0.561,0.208c0.238,0.265,0.323,0.496,0.254,0.695
			c-1.09,3.402-1.65,5.52-1.681,6.354C59.35,43.904,59.346,44.03,59.346,44.162z M55.73,44.202c0,0.794,0.167,1.191,0.502,1.191
			c0.256,0,0.57-0.331,0.944-0.993c0.547-0.973,1.031-2.283,1.452-3.931c0.135-0.516,0.248-1.032,0.339-1.549
			c-0.018-0.45-0.142-0.781-0.371-0.993c-0.078-0.073-0.194-0.109-0.349-0.109s-0.334,0.086-0.541,0.258
			c-0.206,0.172-0.405,0.407-0.599,0.705s-0.374,0.65-0.541,1.057s-0.313,0.849-0.439,1.325
			C55.863,42.184,55.73,43.196,55.73,44.202z"/>
		<path class="st3" d="M65.331,44.202c0.126,0,0.188,0.129,0.188,0.387c0,0.219-0.043,0.431-0.13,0.636
			c-0.117,0.384-0.353,0.748-0.704,1.092c-0.399,0.391-0.801,0.586-1.204,0.586c-0.699,0-1.143-0.477-1.329-1.43
			c-0.222-1.132,0.11-3.53,0.996-7.197c-0.499-0.066-0.771-0.199-0.813-0.397c-0.014-0.06-0.02-0.125-0.02-0.194
			s0.021-0.15,0.062-0.243s0.095-0.182,0.16-0.268c0.151-0.192,0.306-0.288,0.462-0.288h0.515c0.469-1.674,0.803-2.627,1.003-2.859
			c0.096-0.105,0.202-0.159,0.319-0.159s0.215,0.023,0.293,0.069c0.078,0.046,0.147,0.113,0.208,0.199
			c0.14,0.199,0.209,0.42,0.209,0.665c0,0.132-0.026,0.285-0.078,0.457l-0.482,1.599h0.156c0.27,0,0.486-0.003,0.651-0.01
			l0.371-0.01c0.083-0.006,0.186-0.01,0.31-0.01s0.186,0.069,0.186,0.208c0,0.874-0.677,1.311-2.032,1.311h-0.052l-0.443,1.747
			c-0.499,2.065-0.748,3.512-0.748,4.338c0,0.232,0.034,0.412,0.104,0.541c0.069,0.13,0.2,0.194,0.391,0.194
			c0.191,0,0.365-0.05,0.521-0.149c0.156-0.099,0.293-0.21,0.41-0.332c0.117-0.123,0.218-0.233,0.303-0.333
			C65.197,44.252,65.27,44.202,65.331,44.202z"/>
	</g>
	<g>
		<path class="st3" d="M23.89,53.229c-0.26,0-0.493-0.062-0.698-0.186c-0.205-0.123-0.367-0.29-0.485-0.5s-0.178-0.446-0.178-0.71
			c0-0.267,0.055-0.505,0.165-0.715c0.11-0.21,0.262-0.376,0.455-0.497c0.193-0.122,0.415-0.183,0.665-0.183
			c0.213,0,0.408,0.041,0.585,0.122c0.177,0.082,0.33,0.206,0.46,0.373c0.027,0.033,0.037,0.068,0.03,0.104
			c-0.007,0.037-0.028,0.066-0.065,0.09c-0.03,0.023-0.063,0.033-0.1,0.027c-0.037-0.005-0.068-0.023-0.095-0.057
			c-0.213-0.254-0.485-0.381-0.815-0.381c-0.197,0-0.369,0.049-0.518,0.146s-0.263,0.229-0.345,0.395
			c-0.082,0.167-0.123,0.358-0.123,0.575c0,0.21,0.045,0.399,0.135,0.567c0.09,0.169,0.214,0.302,0.373,0.4s0.343,0.147,0.553,0.147
			c0.137,0,0.266-0.02,0.387-0.06s0.228-0.103,0.318-0.186c0.03-0.026,0.063-0.042,0.1-0.045s0.068,0.009,0.095,0.035
			c0.033,0.03,0.051,0.064,0.052,0.103c0.002,0.038-0.012,0.07-0.042,0.098C24.557,53.117,24.253,53.229,23.89,53.229z"/>
		<path class="st3" d="M26.895,53.229c-0.267,0-0.506-0.062-0.718-0.183c-0.211-0.122-0.378-0.288-0.5-0.5s-0.183-0.449-0.183-0.713
			c0-0.267,0.061-0.506,0.183-0.717c0.122-0.212,0.289-0.379,0.5-0.5c0.212-0.122,0.451-0.183,0.718-0.183
			c0.267,0,0.505,0.061,0.715,0.183c0.21,0.121,0.376,0.288,0.497,0.5c0.122,0.211,0.183,0.45,0.183,0.717
			c0,0.264-0.061,0.501-0.183,0.713c-0.121,0.212-0.287,0.378-0.497,0.5C27.4,53.168,27.162,53.229,26.895,53.229z M26.895,52.949
			c0.21,0,0.397-0.049,0.563-0.147s0.295-0.231,0.39-0.4c0.095-0.168,0.143-0.358,0.143-0.572c0-0.21-0.047-0.399-0.143-0.567
			c-0.095-0.168-0.225-0.302-0.39-0.4c-0.165-0.098-0.353-0.147-0.563-0.147c-0.207,0-0.394,0.05-0.56,0.147
			c-0.167,0.099-0.298,0.232-0.395,0.4s-0.145,0.359-0.145,0.572c0,0.21,0.048,0.399,0.145,0.567c0.097,0.169,0.228,0.302,0.395,0.4
			C26.501,52.9,26.688,52.949,26.895,52.949z"/>
		<path class="st3" d="M29.189,53.199c-0.043,0-0.079-0.014-0.107-0.043c-0.028-0.027-0.042-0.063-0.042-0.107v-2.435
			c0-0.047,0.014-0.083,0.042-0.11c0.028-0.026,0.064-0.04,0.107-0.04c0.047,0,0.084,0.014,0.11,0.04
			c0.026,0.027,0.04,0.063,0.04,0.11v2.435c0,0.044-0.014,0.08-0.04,0.107C29.273,53.186,29.236,53.199,29.189,53.199z
			 M31.405,53.199c-0.044,0-0.08-0.014-0.108-0.043c-0.028-0.027-0.042-0.063-0.042-0.107v-1.345c0-0.22-0.043-0.401-0.128-0.545
			s-0.199-0.251-0.345-0.322c-0.145-0.072-0.31-0.107-0.492-0.107c-0.181,0-0.342,0.034-0.485,0.103s-0.257,0.162-0.34,0.282
			s-0.125,0.255-0.125,0.405h-0.25c0.014-0.207,0.075-0.393,0.185-0.558c0.11-0.165,0.254-0.295,0.431-0.391
			c0.177-0.095,0.371-0.142,0.585-0.142c0.24,0,0.456,0.049,0.647,0.147c0.191,0.098,0.343,0.241,0.452,0.43
			c0.11,0.188,0.165,0.421,0.165,0.697v1.345c0,0.044-0.014,0.08-0.042,0.107C31.484,53.186,31.448,53.199,31.405,53.199z"/>
		<path class="st3" d="M32.24,50.834c-0.04,0-0.072-0.013-0.098-0.037c-0.025-0.025-0.037-0.058-0.037-0.098
			s0.012-0.072,0.037-0.098c0.025-0.024,0.058-0.037,0.098-0.037h1.354c0.04,0,0.073,0.013,0.098,0.037
			c0.025,0.025,0.038,0.058,0.038,0.098s-0.013,0.072-0.038,0.098c-0.024,0.024-0.058,0.037-0.098,0.037H32.24z M32.78,53.199
			c-0.044,0-0.079-0.014-0.107-0.043c-0.028-0.027-0.043-0.063-0.043-0.107v-2.59c0-0.227,0.035-0.428,0.105-0.603
			c0.069-0.175,0.179-0.313,0.327-0.412c0.148-0.101,0.338-0.15,0.567-0.15c0.047,0,0.083,0.013,0.11,0.038
			c0.026,0.024,0.04,0.058,0.04,0.098c0,0.039-0.014,0.072-0.04,0.097c-0.027,0.025-0.063,0.038-0.11,0.038
			c-0.17,0-0.306,0.039-0.407,0.117s-0.175,0.186-0.22,0.32s-0.067,0.287-0.067,0.457v2.59c0,0.044-0.015,0.08-0.043,0.107
			C32.864,53.186,32.827,53.199,32.78,53.199z"/>
		<path class="st3" d="M35.34,53.225c-0.264,0-0.498-0.06-0.703-0.178c-0.204-0.118-0.365-0.282-0.482-0.492
			c-0.116-0.211-0.175-0.45-0.175-0.721c0-0.273,0.056-0.514,0.165-0.723c0.11-0.208,0.262-0.372,0.455-0.492s0.415-0.18,0.665-0.18
			c0.247,0,0.465,0.058,0.655,0.172c0.189,0.115,0.338,0.273,0.444,0.476c0.107,0.201,0.16,0.434,0.16,0.697
			c0,0.043-0.013,0.077-0.04,0.103c-0.026,0.025-0.062,0.037-0.104,0.037h-2.2v-0.26h2.28l-0.221,0.165
			c0.007-0.217-0.029-0.408-0.109-0.575c-0.08-0.166-0.194-0.297-0.343-0.393c-0.148-0.095-0.322-0.143-0.522-0.143
			c-0.19,0-0.359,0.048-0.508,0.143c-0.148,0.096-0.265,0.227-0.35,0.393c-0.085,0.167-0.128,0.36-0.128,0.58
			c0,0.217,0.045,0.408,0.136,0.575c0.09,0.167,0.215,0.298,0.375,0.393c0.159,0.095,0.343,0.143,0.55,0.143
			c0.13,0,0.261-0.022,0.393-0.067s0.235-0.104,0.313-0.178c0.026-0.026,0.059-0.041,0.098-0.043c0.038-0.001,0.07,0.01,0.097,0.033
			c0.037,0.029,0.057,0.063,0.058,0.1c0.002,0.037-0.014,0.07-0.047,0.101c-0.107,0.097-0.246,0.177-0.418,0.239
			C35.661,53.192,35.497,53.225,35.34,53.225z"/>
		<path class="st3" d="M38.285,53.229c-0.26,0-0.492-0.062-0.697-0.186c-0.205-0.123-0.367-0.29-0.485-0.5s-0.178-0.446-0.178-0.71
			c0-0.267,0.056-0.505,0.165-0.715c0.11-0.21,0.262-0.376,0.455-0.497c0.193-0.122,0.415-0.183,0.665-0.183
			c0.213,0,0.408,0.041,0.585,0.122c0.177,0.082,0.33,0.206,0.46,0.373c0.026,0.033,0.037,0.068,0.03,0.104
			c-0.007,0.037-0.028,0.066-0.065,0.09c-0.029,0.023-0.063,0.033-0.1,0.027c-0.037-0.005-0.068-0.023-0.095-0.057
			c-0.214-0.254-0.485-0.381-0.815-0.381c-0.196,0-0.369,0.049-0.518,0.146s-0.264,0.229-0.345,0.395
			c-0.082,0.167-0.123,0.358-0.123,0.575c0,0.21,0.045,0.399,0.136,0.567c0.09,0.169,0.214,0.302,0.372,0.4s0.343,0.147,0.553,0.147
			c0.137,0,0.266-0.02,0.388-0.06c0.121-0.04,0.228-0.103,0.317-0.186c0.029-0.026,0.063-0.042,0.1-0.045
			c0.037-0.003,0.068,0.009,0.095,0.035c0.034,0.03,0.051,0.064,0.053,0.103s-0.013,0.07-0.042,0.098
			C38.951,53.117,38.648,53.229,38.285,53.229z"/>
		<path class="st3" d="M39.825,50.834c-0.04,0-0.073-0.013-0.098-0.037c-0.025-0.025-0.038-0.058-0.038-0.098
			s0.013-0.072,0.038-0.098c0.024-0.024,0.058-0.037,0.098-0.037h1.355c0.04,0,0.072,0.013,0.098,0.037
			c0.025,0.025,0.037,0.058,0.037,0.098s-0.012,0.072-0.037,0.098c-0.025,0.024-0.058,0.037-0.098,0.037H39.825z M41.16,53.199
			c-0.184-0.003-0.347-0.046-0.491-0.128c-0.144-0.081-0.255-0.194-0.335-0.34c-0.08-0.145-0.12-0.309-0.12-0.492v-2.49
			c0-0.047,0.014-0.084,0.043-0.112c0.027-0.028,0.063-0.043,0.107-0.043c0.046,0,0.084,0.015,0.112,0.043s0.042,0.065,0.042,0.112
			v2.49c0,0.193,0.061,0.351,0.181,0.473c0.12,0.121,0.274,0.183,0.465,0.183h0.109c0.047,0,0.085,0.014,0.113,0.042
			s0.042,0.066,0.042,0.112c0,0.044-0.014,0.08-0.042,0.107c-0.028,0.029-0.066,0.043-0.113,0.043H41.16z"/>
		<path class="st3" d="M42.301,49.89c-0.063,0-0.118-0.022-0.163-0.068c-0.045-0.045-0.067-0.101-0.067-0.167
			c0-0.077,0.024-0.134,0.072-0.173c0.049-0.038,0.103-0.058,0.163-0.058c0.057,0,0.109,0.02,0.157,0.058
			c0.049,0.039,0.072,0.096,0.072,0.173c0,0.066-0.022,0.122-0.067,0.167C42.423,49.867,42.367,49.89,42.301,49.89z M42.306,53.199
			c-0.044,0-0.079-0.014-0.107-0.043c-0.028-0.027-0.043-0.063-0.043-0.107v-2.435c0-0.047,0.015-0.083,0.043-0.11
			c0.028-0.026,0.063-0.04,0.107-0.04c0.047,0,0.083,0.014,0.109,0.04c0.027,0.027,0.04,0.063,0.04,0.11v2.435
			c0,0.044-0.013,0.08-0.04,0.107C42.389,53.186,42.353,53.199,42.306,53.199z"/>
		<path class="st3" d="M44.705,53.229c-0.267,0-0.506-0.062-0.718-0.183c-0.212-0.122-0.378-0.288-0.5-0.5s-0.183-0.449-0.183-0.713
			c0-0.267,0.061-0.506,0.183-0.717c0.122-0.212,0.288-0.379,0.5-0.5c0.212-0.122,0.451-0.183,0.718-0.183s0.505,0.061,0.715,0.183
			c0.21,0.121,0.376,0.288,0.497,0.5c0.122,0.211,0.183,0.45,0.183,0.717c0,0.264-0.061,0.501-0.183,0.713
			c-0.121,0.212-0.287,0.378-0.497,0.5C45.21,53.168,44.972,53.229,44.705,53.229z M44.705,52.949c0.21,0,0.397-0.049,0.563-0.147
			s0.295-0.231,0.39-0.4c0.095-0.168,0.143-0.358,0.143-0.572c0-0.21-0.048-0.399-0.143-0.567s-0.225-0.302-0.39-0.4
			c-0.165-0.098-0.353-0.147-0.563-0.147c-0.207,0-0.394,0.05-0.561,0.147c-0.166,0.099-0.298,0.232-0.395,0.4
			s-0.146,0.359-0.146,0.572c0,0.21,0.049,0.399,0.146,0.567c0.097,0.169,0.229,0.302,0.395,0.4
			C44.312,52.9,44.498,52.949,44.705,52.949z"/>
		<path class="st3" d="M47,53.199c-0.043,0-0.079-0.014-0.107-0.043c-0.028-0.027-0.042-0.063-0.042-0.107v-2.435
			c0-0.047,0.014-0.083,0.042-0.11c0.028-0.026,0.064-0.04,0.107-0.04c0.047,0,0.084,0.014,0.11,0.04
			c0.026,0.027,0.04,0.063,0.04,0.11v2.435c0,0.044-0.014,0.08-0.04,0.107C47.084,53.186,47.047,53.199,47,53.199z M49.216,53.199
			c-0.044,0-0.08-0.014-0.108-0.043c-0.028-0.027-0.042-0.063-0.042-0.107v-1.345c0-0.22-0.043-0.401-0.128-0.545
			s-0.199-0.251-0.345-0.322c-0.145-0.072-0.31-0.107-0.492-0.107c-0.181,0-0.342,0.034-0.485,0.103s-0.257,0.162-0.34,0.282
			s-0.125,0.255-0.125,0.405H46.9c0.014-0.207,0.075-0.393,0.185-0.558c0.11-0.165,0.254-0.295,0.431-0.391
			c0.177-0.095,0.371-0.142,0.585-0.142c0.24,0,0.456,0.049,0.647,0.147c0.191,0.098,0.343,0.241,0.452,0.43
			c0.11,0.188,0.165,0.421,0.165,0.697v1.345c0,0.044-0.014,0.08-0.042,0.107C49.295,53.186,49.259,53.199,49.216,53.199z"/>
		<path class="st3" d="M51.425,53.225c-0.264,0-0.498-0.06-0.703-0.178c-0.204-0.118-0.365-0.282-0.482-0.492
			c-0.116-0.211-0.175-0.45-0.175-0.721c0-0.273,0.056-0.514,0.165-0.723c0.11-0.208,0.262-0.372,0.455-0.492s0.415-0.18,0.665-0.18
			c0.247,0,0.465,0.058,0.655,0.172c0.189,0.115,0.338,0.273,0.444,0.476c0.107,0.201,0.16,0.434,0.16,0.697
			c0,0.043-0.013,0.077-0.04,0.103c-0.026,0.025-0.062,0.037-0.104,0.037h-2.2v-0.26h2.28l-0.221,0.165
			c0.007-0.217-0.029-0.408-0.109-0.575c-0.08-0.166-0.194-0.297-0.343-0.393c-0.148-0.095-0.322-0.143-0.522-0.143
			c-0.19,0-0.359,0.048-0.508,0.143c-0.148,0.096-0.265,0.227-0.35,0.393c-0.085,0.167-0.128,0.36-0.128,0.58
			c0,0.217,0.045,0.408,0.136,0.575c0.09,0.167,0.215,0.298,0.375,0.393c0.159,0.095,0.343,0.143,0.55,0.143
			c0.13,0,0.261-0.022,0.393-0.067s0.235-0.104,0.313-0.178c0.026-0.026,0.059-0.041,0.098-0.043c0.038-0.001,0.07,0.01,0.097,0.033
			c0.037,0.029,0.057,0.063,0.058,0.1c0.002,0.037-0.014,0.07-0.047,0.101c-0.107,0.097-0.246,0.177-0.418,0.239
			C51.745,53.192,51.581,53.225,51.425,53.225z"/>
		<path class="st3" d="M53.41,53.199c-0.043,0-0.079-0.014-0.107-0.043c-0.028-0.027-0.042-0.063-0.042-0.107v-2.435
			c0-0.047,0.014-0.083,0.042-0.11c0.028-0.026,0.064-0.04,0.107-0.04c0.047,0,0.084,0.014,0.11,0.04
			c0.026,0.027,0.04,0.063,0.04,0.11v2.435c0,0.044-0.014,0.08-0.04,0.107C53.494,53.186,53.457,53.199,53.41,53.199z M53.36,51.529
			c0.021-0.213,0.078-0.402,0.175-0.567s0.222-0.294,0.375-0.388s0.323-0.14,0.511-0.14c0.126,0,0.225,0.015,0.295,0.045
			c0.069,0.029,0.097,0.083,0.08,0.16c-0.011,0.05-0.034,0.079-0.07,0.09c-0.037,0.01-0.081,0.011-0.133,0.002
			c-0.052-0.008-0.109-0.013-0.172-0.013c-0.167,0-0.315,0.035-0.445,0.105s-0.231,0.166-0.305,0.287
			c-0.073,0.122-0.11,0.262-0.11,0.418H53.36z"/>
		<path class="st3" d="M56.435,53.134c-0.043,0.021-0.081,0.025-0.114,0.016s-0.061-0.037-0.08-0.08l-1.096-2.4
			c-0.02-0.043-0.024-0.081-0.015-0.114c0.01-0.034,0.037-0.061,0.08-0.08c0.043-0.021,0.082-0.025,0.115-0.016
			s0.06,0.037,0.08,0.08l1.095,2.4c0.02,0.043,0.025,0.081,0.015,0.115C56.505,53.088,56.479,53.114,56.435,53.134z M55.905,54.384
			c-0.021,0-0.044-0.005-0.07-0.015c-0.09-0.037-0.115-0.099-0.075-0.185l1.681-3.641c0.04-0.083,0.102-0.108,0.185-0.075
			c0.09,0.037,0.115,0.099,0.075,0.186l-1.681,3.64C55.99,54.354,55.951,54.384,55.905,54.384z"/>
	</g>
	<g>
		<g>
			<path class="st3" d="M44.587,24.946c0-0.782-0.568-1.464-1.36-1.679c-0.083-0.843-0.851-1.506-1.784-1.506
				c-0.081,0-0.162,0.005-0.242,0.015c-0.156-0.333-0.47-0.589-0.854-0.687c0.087-0.437,0.345-0.574,0.507-0.617
				c0.17-0.045,0.269-0.209,0.22-0.366c-0.049-0.157-0.226-0.248-0.396-0.203c-0.377,0.1-0.666,0.34-0.834,0.695
				c-0.077,0.163-0.12,0.331-0.143,0.48c-0.403,0.087-0.735,0.347-0.899,0.69c-0.054-0.005-0.108-0.007-0.162-0.007
				c-0.925,0-1.688,0.651-1.782,1.484c-0.36,0.08-0.688,0.258-0.944,0.513c-0.324,0.324-0.503,0.746-0.503,1.187
				c0,0.703,0.45,1.31,1.098,1.588l0.632,2.47c0.15,0.586,0.71,0.996,1.362,0.996h2.991c0.652,0,1.212-0.409,1.362-0.996l0.632-2.47
				C44.137,26.256,44.587,25.648,44.587,24.946z M40,21.638c0.368,0,0.667,0.277,0.667,0.617S40.368,22.871,40,22.871
				c-0.368,0-0.667-0.277-0.667-0.617S39.632,21.638,40,21.638z M37.767,28.868l-0.556-2.174c0.032,0.001,0.063,0.002,0.095,0.002
				c0.176,0,0.348-0.023,0.512-0.065l0.71,2.777h-0.023C38.151,29.408,37.848,29.186,37.767,28.868L37.767,28.868z M40.318,29.408
				v-2.742c0.387-0.067,0.742-0.244,1.015-0.505c0.08,0.076,0.166,0.145,0.259,0.206l-0.778,3.041L40.318,29.408L40.318,29.408z
				 M39.677,29.408h-0.491l-0.777-3.039c0.081-0.054,0.158-0.114,0.23-0.18c0.281,0.259,0.643,0.429,1.038,0.486V29.408z
				 M42.233,28.868c-0.081,0.318-0.385,0.54-0.738,0.54h-0.023l0.711-2.778c0.165,0.043,0.336,0.066,0.511,0.066
				c0.032,0,0.064-0.001,0.095-0.002L42.233,28.868z M42.694,26.103c-0.445,0-0.86-0.222-1.084-0.578
				c-0.057-0.091-0.163-0.148-0.277-0.148s-0.22,0.056-0.277,0.148c-0.224,0.357-0.639,0.578-1.084,0.578
				c-0.434,0-0.831-0.203-1.062-0.544c-0.059-0.086-0.161-0.139-0.271-0.139c-0.11,0-0.213,0.052-0.271,0.139
				c-0.116,0.171-0.274,0.308-0.458,0.401c-0.011,0.005-0.022,0.01-0.032,0.016c-0.174,0.082-0.369,0.127-0.572,0.127
				c-0.691,0-1.252-0.519-1.252-1.158c0-0.292,0.118-0.571,0.332-0.785c0.213-0.213,0.502-0.344,0.814-0.368
				c0.173-0.013,0.303-0.152,0.293-0.312c-0.001-0.024-0.002-0.044-0.002-0.063c0-0.587,0.516-1.064,1.151-1.064
				c0.019,0,0.037,0.001,0.056,0.002c0.055,0.62,0.618,1.109,1.303,1.109c0.682,0,1.244-0.486,1.302-1.102
				c0.046-0.005,0.093-0.008,0.14-0.008c0.635,0,1.151,0.477,1.151,1.064c0,0.02-0.001,0.042-0.003,0.07
				c-0.011,0.155,0.11,0.291,0.276,0.312c0.616,0.078,1.08,0.571,1.08,1.146C43.947,25.584,43.385,26.103,42.694,26.103
				L42.694,26.103z"/>
		</g>
	</g>
</g>
<g>
</g>
<g>
</g>
<g>
</g>
<g>
</g>
<g>
</g>
<g>
</g>
<g>
</g>
<g>
</g>
<g>
</g>
<g>
</g>
<g>
</g>
<g>
</g>
<g>
</g>
<g>
</g>
<g>
</g>
</svg>
