<svg xmlns="http://www.w3.org/2000/svg" viewBox="0 0 313.45 296.79"><defs><style>.a{fill:#fff;}.b{fill:#de6026;}</style></defs><title>Ресурс 3</title><path class="a" d="M248,80.39a16.76,16.76,0,0,1,.23-3.32,16.26,16.26,0,0,1-1.79-6.28c-1.37-3.07-1.86-6.41-2.76-9.61-.6-2.15-.19-4.55-.71-6.78a19.72,19.72,0,0,1-.59-5.67c.07-1.18-1-1.75-1.35-2.68-1.64-4-4-7.67-4.93-11.94a5.79,5.79,0,0,0-1.73-3c-1-1-1.91-2.06-1.31-3.68.1-.26-.08-.63-.13-.94-.29.16-.19.9-.7.63S231.12,26.62,231,26a12.27,12.27,0,0,1-.13-1.36c-.12-1.15-.59-1.83-1.89-1.36-.37.7-.83.26-1.14,0-3-2.36-6.1-4.57-7.79-8.14-.46-1-63.37-32.82-102.82-1h0a2.69,2.69,0,0,1-.42.35,96.7,96.7,0,0,0-10.34,6.65,6.18,6.18,0,0,0-2.08,1.79.37.37,0,0,0-.25.09l.66.9c.3.4.09.66-.29.7-2.84.28-4.55,2.55-6.84,3.81-1.45.81-2.39,2.27-3.89,3a4,4,0,0,1-1.63.67c-1.19,1.21-1.88,2.88-3.41,3.78C86.78,37,86,39.26,84.19,40.49a.73.73,0,0,0-.19.37,31,31,0,0,1-2.48,5.28,3.29,3.29,0,0,0-.5,2c-1.17,2-2.46,4-2.59,6.47a6.73,6.73,0,0,0-1.1,3.12c-.53,4-1.36,7.92-1.44,11.9-.09,5.06-.94,10.11-.52,15.17.51,6.08,1.52,12,4.26,17.61,1,2.07,1.76,4.28,2.63,6.43.34,2.67,2,4.76,3.12,7.1a2.68,2.68,0,0,1,.91,1.36A15.59,15.59,0,0,0,89.17,123a3.87,3.87,0,0,1,.67,1.21,12.51,12.51,0,0,0,2.91,4.71c1.09,1,1.47,2.55,2.23,3.81a9.39,9.39,0,0,0,3.5,3.52,1.68,1.68,0,0,1,.71.63c1.36,3.17,4.22,4.86,6.71,6.92,1.79,1.47,3.43,3.25,5.56,4.12,1.8.74,7.4,4.8,8.41,5.17,2.53.92,4.33,3.23,7.1,3.65.38.06.82.14.39.69-.31.39-.23.7.22.88,2.39.93,4.37,2.6,6.76,3.59,2.72,1.13,5.61,1.28,8.4,2,2.07.53,4.18.88,6.22,1.55a12.28,12.28,0,0,0,5.09.42,2.59,2.59,0,0,1,.83,0c2.78.74,5.56-.08,8.34,0a52.57,52.57,0,0,0,6.4-.06c1.19-.1,2.29-.8,3.38-.69a26.24,26.24,0,0,0,5.4-.17c3.73-.38,7.46-.94,10.88-2.72a14.21,14.21,0,0,1,3.7-1.15c2.09-.44,3.82-1.68,5.77-2.41A62.57,62.57,0,0,0,212.36,151c2.47-1.72,4.59-3.9,7-5.72,1.8-1.37,3.35-3.06,5.47-4,.15-.06.37-.32.33-.39-.75-1.63.77-1.4,1.47-1.92a29.09,29.09,0,0,0,3.91-4.16c.25-.27.43-.59.8-.73,2.47-.9,3.43-3.14,4.48-5.24a6.54,6.54,0,0,1,2.25-2.91c.82-.52,1.28-1.18.69-2.22-.31-.55.5-3.17,1.07-3.56,2.49-1.71,3.57-4.38,4.95-6.9,1.74-3.19,1.35-6.8,2.35-10,1.29-4.17.41-8.28.86-12.38.11-1-.51-2,0-3C248,85.3,248,82.85,248,80.39ZM172.86,6.3c.39,0,.76.07.83.56-.12.4-.36.71-.79.64a.86.86,0,0,1-.81-.81C172.1,6.28,172.55,6.29,172.86,6.3ZM111,88.82a1.6,1.6,0,0,1,.89-1.57.93.93,0,0,1,.85.94c.1.7-.32,1-.93,1.11C111.41,89.36,111,89.34,111,88.82Zm34,58.82c-.36.14-.55-.14-.64-.36a5.43,5.43,0,0,0-2.48-2.53c-.24-.14-.51-.32-.46-.63s.45-.38.76-.46.89-.23,1.34-.32c1.25-.24,2.39-.23,2.67,1.38.16.9.81,1.38,1.73,1.89C146.77,147,145.87,147.31,145,147.64ZM206.1,86.83c-.7.85-.86,2-1.89,2.69-.39.25-.29.87-.06,1.31a1.41,1.41,0,0,1-.38,2c-.17.14-.41.42-.37.54.69,1.91-1.45,4,.51,5.89.91.89,0,3.21-1.4,3.67-.82.27-1,.62-1,1.5a5.91,5.91,0,0,1-.83,3.3.94.94,0,0,0,.76,1.48c1.14,0,1.14,0,1.33,1.57a5.31,5.31,0,0,1-1.49-.73c-.61-.64-1.07-.45-1.49.11a1,1,0,0,0,.31,1.67,4.85,4.85,0,0,1,2,2c.48.74.81,1.42,1.91,1.17.51-.12,1,.33.5.84a49,49,0,0,1-5.08,4.58c-.48-.55.07-1.07-.48-1.65-.39,1.52-2,1.5-2.78,2.45a3.64,3.64,0,0,1-3.77,1.45c-.43-.06-.6.29-.8.64-.56.94-1.16,1.86-2.51,1.11-.52-.29-.77.13-.9.56-.46,1.43-1.28,1.68-2.69,1.14-1.57-.59-3,.17-4.08,1.28-.42.43-.59.52-1.08.15a.92.92,0,0,0-1.55.51c-.35,1.16-1.35,1.72-2.06,2.55s-1.58.71-2.34,0c-1.46-1.31-1.95-1.36-3.54-.39-1.27.77-2.41,1.74-4.19,1.06-1.06-.41-1.56.89-1.57,1.68,0,1.26-1.19,1.84-1.44,3-.07.35-1.36.52-2.12.62a3.75,3.75,0,0,1-3.09-.76c-.41-.34-.82-.95-.65-1.32.66-1.43-.45-1.67-1.28-2.05s-1.76-.5-2.6-.91a1.35,1.35,0,0,0-2,.74c-.59,1.48-2.25,2-3,3.4-.38.71-1.46,0-2.19-.18a1.14,1.14,0,0,1-1-1.15,3.37,3.37,0,0,0-2.89-3.26,10.29,10.29,0,0,1-2.05-.81c-1-.49-2-1-3.12-.28-.25.16-.63.39-.92.15-1.92-1.57-4-.53-6-.33s-3,1.93-3,4.49c-.71-1.28-2.09-1.67-2.65-2.73a28.05,28.05,0,0,0-2.27-3.51c-.49-.67-.3-1.56.88-1.68a3.63,3.63,0,0,0,3.4-2.82,4.63,4.63,0,0,0-1.7-4.88,24.91,24.91,0,0,1-3.78-3.47,4,4,0,0,0-1.38-1.15c-.65-.28-1-.87-.72-1.45a1.76,1.76,0,0,0,0-1.52,3.72,3.72,0,0,0-.89-1.65c-2.13-.88-3.93-1.55-5.66-2.37a1,1,0,0,1-.28-1.56c.71-.78,1.51-1.48,2.27-2.23.17-.17.37-.35.6-.24l.1.07,0,0a.18.18,0,0,1,0,.07l0,0a.24.24,0,0,1,0,.08v.13h0a2.56,2.56,0,0,0-.14-1,.49.49,0,0,1-.06-.17h0a1.09,1.09,0,0,1,.05-.44c.18-.73.4-1.44.59-2.16a5.25,5.25,0,0,0-.5-4.31,5.13,5.13,0,0,1-.58-4.22,5.38,5.38,0,0,0,.16-2.35c-.37-2.09.11-4.17,0-6.26-.08-1.3-.78-2.5-.5-3.84-.63-.23-.67.66-1,.36a1.18,1.18,0,0,1-.31-1.29c.2-.52.4-.94-.36-1.18s-1.38-.69-1.26-1.31,1.09-1,1.68-.94c1.45.09,1.51-.71,1.68-1.79a16.92,16.92,0,0,0-.2-6.5,3.55,3.55,0,0,1,1.64-3.68c.54-.34,1-.77,1.55-1.14.22-.15.59-.43.71-.35,1.12.72,1.61-.23,2.15-.83a15.09,15.09,0,0,1,2.35-2,7.94,7.94,0,0,0,3.22-6.48c0-.65.17-1.31.13-1.95,0-1.08.16-1.77,1.38-2.15,1-.31,1.43-1.38,1.74-2.38a3.31,3.31,0,0,0,.06-.55c.46-3.13.71-3.42,3.76-3a4.1,4.1,0,0,0,2.9-.9,15.59,15.59,0,0,1,4.37-2.39,20.77,20.77,0,0,1,5.67-.2c1.38,0,2.55,0,3.48-1.17a1.67,1.67,0,0,1,.67-.47c2.55-1,4.07-3.08,5.41-5.33.56-.95,3.13-1.31,3.78-.48a.78.78,0,0,1,.11.2s0,0,0,0h0l2,.88c.24.24,11.82,1.31,17.4,7.68,4.3,4.89,12,7,15.63,12.51s9.52,14.46,8.29,16.41-.61,9.82-.61,9.82h0l0,0,.05.06a1,1,0,0,1,.11.2,6.68,6.68,0,0,0,2.49,2.75C206.84,82.3,207.3,85.4,206.1,86.83Zm-1.38-76.64c-.45-.32-.41-.75.21-.87a1.65,1.65,0,0,1,1.35.21c1.34,1,2.66,2,4.17,3.19A13.13,13.13,0,0,1,204.72,10.19Zm7.33,88.7c-.36,0-.47-.25-.43-.55s.25-.89.69-.9.26.51.39.76C212.8,98.73,212.43,98.86,212.05,98.89Zm2.52-13.15c-.84-.42-1.07.44-1.49.88s-.63,1.21-1.24.8a2.65,2.65,0,0,1-.88-1.65c-.11-.64.61-.53,1-.66a4.8,4.8,0,0,0,1.92-1.32c.27-.28.42-.86.92-.71s.41.76.48,1.2c0,.23.06.47.09.74C215.31,85.44,215.67,86.28,214.57,85.74Zm9.52-38.16c-.05.3-.18.49-.44.38l-.12-.07c-.23-.15-.51-.35-.58-.59-.59-1.82-2.6-2.67-3.07-4.62-.14-.56-.41-2-1.76-1-.25.16-.3-.27-.44-.42a27.67,27.67,0,0,0-3.5-3.15c-1.64-1.19-2.26-3.14-2.73-5-.17-.7.51-1.06.94-.64.87.86,2.59.86,2.66,2.53,2.41,1.7,2.9,5,5.32,6.62,2.12,1.43,2.13,4,3.65,5.78a.71.71,0,0,1,.07.27Zm-1.38-21.73a.89.89,0,0,1,1,.86c.05.38-.16.61-.58.65-.47-.15-1-.33-1.07-.91C222,26.05,222.35,25.87,222.71,25.85Zm3.74.57c-.38.36-.64-.15-.94-.31-1.4-.72-2.17-2.13-3.35-3.11-1.68-1.38-3.09-3.07-4.8-4.42-.27-.22-.64-.48-.49-.92s.44-.28.8-.3c1.1.11,1.73,1.12,2.55,1.74,2.36,1.78,4.68,3.68,6,6.47C226.34,25.84,226.75,26.13,226.45,26.42Zm5.66,98a2,2,0,0,1-1.56-1.75c0-1.24,1.18-1.43,2.16-1.54s.93.66,1,1.25C233.66,123.4,232.73,124.66,232.11,124.45Zm2-82.28c-1.13.21-1-1.17-1.21-1.88a72.92,72.92,0,0,0-3.65-9c-.23-.47-.12-.74.44-.65a2.35,2.35,0,0,1,1.73.81A23.07,23.07,0,0,1,235,39.55C234.71,40.68,235.18,42,234.12,42.17Zm1.65,27.31c-.52-.51.21-.77.43-1.11a11.72,11.72,0,0,0,1.64-6.93c0-.47-.41-1.17.32-1.28s.75.56.85,1.08c.13.69.26,1.37.41,2.18-.65,1.88-.24,4.23-2.19,5.74C236.77,69.51,236.28,70,235.77,69.48Zm3.6,15.83c-.38.49-2.62,0-2.87-.65s.22-.52.53-.57c.5-.08,1-.12,1.51-.19,1.6-.22,1.62-1.7,2.26-2.76C241.17,82.82,240.31,84.1,239.37,85.31Z" transform="translate(-0.04)"/><path class="b" d="M127.69,111.63a9.84,9.84,0,0,0,1.84,1.23,5.27,5.27,0,0,1,2.9,3.92,1.6,1.6,0,0,0,.13.6c1.62,2.26,3.34,4.44,6.27,5.07.29.07.63-.14,1-.17.52-.06,1.24-.8,1.42.41,0,.25.27,0,.41,0a21.24,21.24,0,0,1,6.35.55c2.08.43,4.14,1.1,6.38.56a8.84,8.84,0,0,1,3.66.3,14.14,14.14,0,0,0,8.33-1.13c1.82-.73,3.71-.62,5.55-1,1.25-.25,2.48-.33,3.45-1.34a12.31,12.31,0,0,1,3.22-1.9c-.05-.41-.31-.38-.48-.35a34.2,34.2,0,0,1-8.15.1,28.43,28.43,0,0,1-9.15-2.33c-.92-.41-1.45-.91-1.2-2.07a12.36,12.36,0,0,1,.37-2.55c.23.15.38.82.66.41.57-.82,1.66-.91,2.16-1.89s1.36-.91,2.11,0c.37.44.71.83,1.34.54a2.34,2.34,0,0,1,2.43.4c.37.26.78.62,1.22.53,1.49-.29,2.43.86,3.65,1.21a8,8,0,0,0,4.78.17,10.17,10.17,0,0,1,3.53,0c.45,0,.44.54.53.89a21.58,21.58,0,0,0-2.33,2.9,1.52,1.52,0,0,0,1.42-.5c.29-.28.66-.81.9-.76,1.24.23,1.36-.68,1.66-1.44a10.78,10.78,0,0,0,4.16-2c1.06-.66,1.5-2.41,2-3.75s.43-2.88,2.39-2.92a.69.69,0,0,0,.63-.53c.37-1.36,1.21-2.52,1.49-3.92a9.59,9.59,0,0,1,.25-2.28,21.7,21.7,0,0,0,1.68-9.72,2.22,2.22,0,0,0,1.1-2.38,1.88,1.88,0,0,1,.09-1.3c.45-.77.11-1.14-.66-1.27a1.08,1.08,0,0,1-.14-.8c.3-.86-.09-1.36-.86-1.68.7-.17,1.35-.32.73-1.29a.58.58,0,0,1,.21-.83A20.23,20.23,0,0,1,195.49,70c.17-6.64-4.42-9.53-7.33-12.63s-7.18-5.56-9.39-7.34-3.46-5.83-7.34-7.07-11.17-4.4-11.17-4.4c-.15.42-.54.19-.85.07a2.13,2.13,0,0,0-2.71.87,10.69,10.69,0,0,1-7.52,5.63c-.73.12-1.45,1-2.06-.24-.15-.31-.61,0-.91.07-2.23.78-4.55,1.32-6.49,2.85-1,.82-2.49.63-3.76.85-.72.12-1.11.47-1.15,1a5,5,0,0,1-1.74,3.13A3.73,3.73,0,0,0,132,55.71a6.79,6.79,0,0,1-1.54,4.74c-1.36,1.61-3,2.94-4.41,4.43A14.1,14.1,0,0,1,123,67a1.76,1.76,0,0,0-1,1.93,21.25,21.25,0,0,1-.08,7.59c-.41,2.33-.07,4.57-.11,6.84a10.4,10.4,0,0,0,.15,2.09c.47,2.4,0,6.79,1.36,9.67a11.49,11.49,0,0,1,.64,8.44C123,106,127.16,111.18,127.69,111.63Z" transform="translate(-0.04)"/><path class="b" d="M22.84,191.7l3.32-1.76,4.35,7.13a40.37,40.37,0,0,0,12.74-1.93A31.27,31.27,0,0,0,53.6,189.5L56,191.21a36.17,36.17,0,0,1-7.77,7.89,94.78,94.78,0,0,1-13.33,7.1A55.63,55.63,0,0,1,37.34,215a44.54,44.54,0,0,1,.83,8.55,52.28,52.28,0,0,1-2.71,17,63.81,63.81,0,0,1-8.37,16.09L15.76,244.78a60.6,60.6,0,0,0,8.74-14.31q4-9.61,4-17.09a40.67,40.67,0,0,0-.44-5.13,62.69,62.69,0,0,1-14.89-1.68A58.07,58.07,0,0,1,0,201.66l8.74-10.84a75.91,75.91,0,0,0,8.15,3.91c.95.32,2.12.66,3.52,1s3,.68,4.78,1Z" transform="translate(-0.04)"/><path class="b" d="M99.15,252.35l1.76,3.22a43.42,43.42,0,0,1-5.81.73,22.19,22.19,0,0,1-4.49-.59l-6.15,1.66-1.18-2.19,2.64-1.13a36.52,36.52,0,0,1-12.21-8.64,38.68,38.68,0,0,1-6.88-11,31.09,31.09,0,0,1-2.54-11.94,27.11,27.11,0,0,1,5.86-16.94q3.7-4.89,12.16-10.65l-3.81-5.51c1,0,2.21-.05,3.61-.15s2.31-.15,2.74-.15a43.66,43.66,0,0,1,11.37,1.62l7.67-1.52.54,2.35-3.23,1.07q8.94,5.08,13.58,11.47a31,31,0,0,1,.41,35.28Q109.9,247,99.15,252.35Zm-1.41-2.64a67.09,67.09,0,0,0,5.27-4.84q7.9-8.06,7.91-18.4a18.68,18.68,0,0,0-5.47-13.87,20.85,20.85,0,0,0-6.69-4.54,29.61,29.61,0,0,0-8.64-1.91L84,197.37a49,49,0,0,0-7.28,9,27.39,27.39,0,0,0-2.44,5.74,21,21,0,0,0-.83,5.88,21.89,21.89,0,0,0,5.42,14.55,18,18,0,0,0,5.42,4.35,31.75,31.75,0,0,0,8.06,2.39Z" transform="translate(-0.04)"/><path class="b" d="M141.28,226.08a45.38,45.38,0,0,1-9.13-3.13l1.37-3.76a23,23,0,0,0,8.89,2.3c.29-1.6.52-3.17.68-4.72a43.74,43.74,0,0,0,.24-4.51,36.77,36.77,0,0,0-1.27-10.21,45.36,45.36,0,0,0-4.88-10.4l3.62-2.39a68.64,68.64,0,0,1,7.39,13.57,79,79,0,0,1,3.93,15.73l2.49-1.52a81.17,81.17,0,0,1-.58-9.47c0-1.24.05-2.6.14-4.08s.26-3.16.49-5.05l3.47.78v3.17a44.72,44.72,0,0,0,1.22,10.89,40.2,40.2,0,0,0,12.5-25.68l12.3,11q-5.27,13.38-21.58,22.91a42.38,42.38,0,0,0,9.33,12.28,44,44,0,0,0,13.82,7.78l-11.14,14.46q-13.86-12-18.6-31.45l-3.08.93.1,1.76a62.83,62.83,0,0,1-3.61,20.21,30.9,30.9,0,0,1-1.73,4q-1.11,2.14-2.76,4.78l-11.23-14.79A59.61,59.61,0,0,0,141.28,226.08Z" transform="translate(-0.04)"/><path class="b" d="M242.69,230.13l-1.8,25.49a5.35,5.35,0,0,1-2.35.44,23.52,23.52,0,0,1-4.2-.61,22.76,22.76,0,0,0-4.39-.61,6.27,6.27,0,0,0-1.27.09l-2.93,2.25-1.32-1.81a21.25,21.25,0,0,1-8.18-1.71,27.33,27.33,0,0,1-7.64-4.78,19.77,19.77,0,0,1-6.15-8.84,44.18,44.18,0,0,1-1.3-6.71,78.55,78.55,0,0,1-.51-9.6c0-2.76-.11-5.21-.32-7.32a46.84,46.84,0,0,0-1-5.91,35.18,35.18,0,0,0-3.61-9.62l10.3-12.3a27.37,27.37,0,0,1,4.44,8.69,45.24,45.24,0,0,1,1.22,11.91c0,3.45-.16,7-.48,10.69,0,1.57-.08,3.15-.22,4.77s-.29,3.23-.42,4.85q0,2.1.15,4.23c.1,1.41.27,3,.54,4.81a16.56,16.56,0,0,0,3,8,17.42,17.42,0,0,0,7.25,5l-4.54-6.2a52.43,52.43,0,0,0,7.42-3.29,20.31,20.31,0,0,0,4.88-4,21.46,21.46,0,0,0,4-6.18,18.78,18.78,0,0,0,1.25-7.05l-.05-3.86-.1-3.86a50.73,50.73,0,0,1,2.29-15.18,30.9,30.9,0,0,1,2.93-7,21.65,21.65,0,0,1,4.59-5l1.37.93a46.84,46.84,0,0,0-1.78,4.74,42.14,42.14,0,0,0-1.25,5,77.69,77.69,0,0,0-.83,12.4q0,5.22.64,11.57C242.59,226.81,242.69,228.66,242.69,230.13Z" transform="translate(-0.04)"/><path class="b" d="M292.15,252.35l1.75,3.22a43.24,43.24,0,0,1-5.81.73,22.27,22.27,0,0,1-4.49-.59l-6.15,1.66-1.17-2.19,2.63-1.13a36.58,36.58,0,0,1-12.2-8.64,38.71,38.71,0,0,1-6.89-11,31.09,31.09,0,0,1-2.54-11.94,27.17,27.17,0,0,1,5.86-16.94q3.72-4.89,12.16-10.65l-3.81-5.51c1,0,2.22-.05,3.62-.15s2.31-.15,2.73-.15a43.79,43.79,0,0,1,11.38,1.62l7.66-1.52.54,2.35-3.22,1.07q8.93,5.08,13.57,11.47a31,31,0,0,1,.42,35.28Q302.88,247,292.15,252.35Zm-1.42-2.64a67.09,67.09,0,0,0,5.27-4.84q7.92-8.06,7.91-18.4a18.71,18.71,0,0,0-5.46-13.87,21.07,21.07,0,0,0-6.69-4.54,29.68,29.68,0,0,0-8.65-1.91l-6.1-8.78a49,49,0,0,0-7.28,9,27.93,27.93,0,0,0-2.44,5.74,21,21,0,0,0-.83,5.88,21.89,21.89,0,0,0,5.42,14.55,18.16,18.16,0,0,0,5.42,4.35,31.88,31.88,0,0,0,8.06,2.39Z" transform="translate(-0.04)"/><path class="a" d="M101.64,292.25l2.6-1.2a3.58,3.58,0,0,0,1.35,2,4.24,4.24,0,0,0,2.52.7,3.21,3.21,0,0,0,2.3-.8,2.84,2.84,0,0,0,.86-2.16q0-1.77-2.93-3.15l-.63-.3a14.2,14.2,0,0,1-4.41-2.92,4.79,4.79,0,0,1-1.1-3.19,5.13,5.13,0,0,1,1.66-4,6.18,6.18,0,0,1,4.36-1.52,7.34,7.34,0,0,1,3.7.85A4.52,4.52,0,0,1,114,279.1l-2.55,1.31a4.18,4.18,0,0,0-1.32-1.38,3.43,3.43,0,0,0-3.73.24,2.36,2.36,0,0,0-.77,1.84q0,1.8,3.39,3.36l.41.19a11.91,11.91,0,0,1,4.07,2.67,4.86,4.86,0,0,1,1.11,3.26,5.89,5.89,0,0,1-1.79,4.52,6.79,6.79,0,0,1-4.84,1.68,7,7,0,0,1-4.19-1.18A5.48,5.48,0,0,1,101.64,292.25Z" transform="translate(-0.04)"/><path class="a" d="M126.47,276.24h3.22v12.15a5.8,5.8,0,0,0,1.25,4.07,5.8,5.8,0,0,0,7.46,0,5.8,5.8,0,0,0,1.25-4.07V276.24h3.26v12.45c0,2.71-.69,4.74-2,6.08s-3.43,2-6.18,2-4.81-.67-6.17-2-2-3.37-2-6.09Z" transform="translate(-0.04)"/><path class="a" d="M154.64,292.25l2.6-1.2a3.59,3.59,0,0,0,1.36,2,4.19,4.19,0,0,0,2.51.7,3.17,3.17,0,0,0,2.3-.8,2.84,2.84,0,0,0,.86-2.16q0-1.77-2.93-3.15l-.63-.3a14,14,0,0,1-4.4-2.92,4.75,4.75,0,0,1-1.11-3.19,5.11,5.11,0,0,1,1.67-4,6.14,6.14,0,0,1,4.35-1.52,7.38,7.38,0,0,1,3.71.85A4.5,4.5,0,0,1,167,279.1l-2.54,1.31a4.18,4.18,0,0,0-1.32-1.38,3.13,3.13,0,0,0-1.65-.44,3,3,0,0,0-2.08.68,2.33,2.33,0,0,0-.78,1.84q0,1.8,3.39,3.36l.41.19a12.08,12.08,0,0,1,4.08,2.67,4.86,4.86,0,0,1,1.1,3.26,5.85,5.85,0,0,1-1.79,4.52,6.77,6.77,0,0,1-4.84,1.68,7,7,0,0,1-4.19-1.18A5.48,5.48,0,0,1,154.64,292.25Z" transform="translate(-0.04)"/><path class="a" d="M179.56,296.25v-20h3.25v7.38h9.85v-7.38h3.25v20h-3.25v-9.72h-9.85v9.72Z" transform="translate(-0.04)"/><path class="a" d="M209,296.25v-20h3.25v20Z" transform="translate(-0.04)"/></svg>