<svg xmlns="http://www.w3.org/2000/svg" viewBox="0 0 120.54 95.27" fill="#fff"><defs><style>.a{opacity:0.99;}</style></defs><title>logo-small</title><path d="M221.33,341.56a6.37,6.37,0,0,1,1.79,2,4.58,4.58,0,0,1,.59,2.6,1.54,1.54,0,0,1-.46,1.15,1,1,0,0,1-1.09.25,49.67,49.67,0,0,0-7.69-1.45,36.78,36.78,0,0,0-6.4-.15q-.36,4.4-.64,8.75c-.18,2.9-.33,5.81-.45,8.75l3.15-.2c1.07-.07,2.12-.17,3.16-.3,1.34-.2,2.24,0,2.69.55a2.63,2.63,0,0,1,.6,1.95,3.61,3.61,0,0,1-.69,1.9q-.6.79-1.23.3a3.43,3.43,0,0,0-1.37-.65c-.62-.17-1.29-.32-2-.45a20.24,20.24,0,0,0-2.28-.3l-2.11-.2q-.36,11,0,21.15t1.38,18.65A1.48,1.48,0,0,1,208,407a.65.65,0,0,1-.82.25,13.73,13.73,0,0,1-6.19-3.2,7,7,0,0,1-2-3.05,13.2,13.2,0,0,1-.74-3.85q-.37-10.71.32-23.25t2.54-25.35a9.73,9.73,0,0,1,.46-1.9,18.93,18.93,0,0,0-2.21.45c-.62.16-1.14.31-1.57.45-.18,0-.28-.1-.28-.3l.74-1.9a2.84,2.84,0,0,1,1.84-1.9,50.64,50.64,0,0,1,12.06-2.7,48.12,48.12,0,0,1,6.86-.1A3.66,3.66,0,0,1,221.33,341.56Z" transform="translate(-197.46 -332.04)"/><path d="M225.9,360.56c0,.06.17.25.51.55a8.77,8.77,0,0,0,1.46,1,16,16,0,0,0,2.56,1.1,20.71,20.71,0,0,0,3.8.85,4.59,4.59,0,0,1,3.43,2.4,6.27,6.27,0,0,1,.77,4.5q-.54,3-1.05,6.7c-.33,2.46-.58,4.78-.73,6.95a34,34,0,0,0,0,5.55c.15,1.53.56,2.36,1.23,2.5a20.6,20.6,0,0,0,2-2.7q1-1.6,1.83-3.15c.54-1,1-2,1.37-2.85s.64-1.5.82-1.9.33-.44.64-.3h.09a1.06,1.06,0,0,1,.64,1.5,69.59,69.59,0,0,1-4.11,8.55,21.5,21.5,0,0,1-3.62,4.8,5.15,5.15,0,0,1-3.1,1.6,3.59,3.59,0,0,1-2.61-1,12.35,12.35,0,0,1-3.52-7.05,41.41,41.41,0,0,1-.55-9.15,67.24,67.24,0,0,1,1-8.95c.51-2.84,1-4.95,1.32-6.35a14,14,0,0,1-3.47-1.4c.06.73.09,1.41.09,2.05v1.75a12.71,12.71,0,0,1-.09,1.6,36.14,36.14,0,0,1-1.06,5.7,68.62,68.62,0,0,1-2.78,8.2,1,1,0,0,1-.6.65.76.76,0,0,1-.78-.15.28.28,0,0,1-.18-.1c-.24-.14-.3-.37-.18-.7s.44-1.05.77-1.95.68-1.92,1-3.05.64-2.32.92-3.55a22.25,22.25,0,0,0,.5-3.45,24.67,24.67,0,0,0-.09-3.7,11,11,0,0,0-1.47-4,16.61,16.61,0,0,1-1.37-2.5,6.31,6.31,0,0,1-.55-2,2,2,0,0,1,.64-1.7c.8-.74,1.51-.84,2.15-.3a6.77,6.77,0,0,1,1.51,1.7,4,4,0,0,0,.28.5A8.9,8.9,0,0,1,225.9,360.56Z" transform="translate(-197.46 -332.04)"/><path d="M269.43,381.76a1,1,0,0,1,.6.6,1.35,1.35,0,0,1,0,.9q-1,2.4-1.92,4.35t-1.74,3.45a18.68,18.68,0,0,1-3.56,4.4,14.27,14.27,0,0,1-4.21,2.45,8.18,8.18,0,0,1-5.67-.15,9.45,9.45,0,0,1-3.52-2.4,14.69,14.69,0,0,1-3-4.5,20.85,20.85,0,0,1-1.56-6.15,20.21,20.21,0,0,1,.73-7.45,17.58,17.58,0,0,1,2.61-6.05,14.45,14.45,0,0,1,3.16-3.25,7.7,7.7,0,0,1,3.65-1.4,7.26,7.26,0,0,1,3.85.55,8.39,8.39,0,0,1,2.56,1.85,8.51,8.51,0,0,1,1.28,2.1,6,6,0,0,1,.5,2.3,7.89,7.89,0,0,1-.6,3,7.69,7.69,0,0,1-2.1,3,8.61,8.61,0,0,1-3.2,1.75,11.23,11.23,0,0,1-5.12.15,4,4,0,0,1-.05.6,4,4,0,0,0,0,.6,32.3,32.3,0,0,0,.18,6,15.22,15.22,0,0,0,1.37,4.35,3.78,3.78,0,0,0,3.2,2.25,4.76,4.76,0,0,0,3-.6,11.92,11.92,0,0,0,2.51-1.9,21.44,21.44,0,0,0,2.47-2.8c.91-1.54,1.72-3.05,2.42-4.55s1.18-2.55,1.42-3.15c.12-.34.33-.44.64-.3Zm-8.78-11.1a1.58,1.58,0,0,0-1.73-.4,5.48,5.48,0,0,0-2.29,1.45,14.34,14.34,0,0,0-2.29,3,16.51,16.51,0,0,0-1.73,4.25,7.89,7.89,0,0,0,1.83.2,7.43,7.43,0,0,0,2.05-.3,9.33,9.33,0,0,0,2-.85,5.12,5.12,0,0,0,1.7-1.65,7.46,7.46,0,0,0,1.05-2.35,4.16,4.16,0,0,0,0-1.85A3.54,3.54,0,0,0,260.65,370.66Z" transform="translate(-197.46 -332.04)"/><path d="M275.69,383.48a5.93,5.93,0,0,1,1.46,1.59,4.18,4.18,0,0,1,.61,2.06.53.53,0,0,1-.16.43.29.29,0,0,1-.37,0l-1.38-.26a4.62,4.62,0,0,0-1.8.09,5.34,5.34,0,0,0-2.34,1.3,4.32,4.32,0,0,0-1.27,2.93,6.15,6.15,0,0,0,.53,3.63,5.22,5.22,0,0,0,1.7,1.83,6.23,6.23,0,0,0,2.6.75,5.44,5.44,0,0,0,3.6-.75,7.46,7.46,0,0,0,2.07-2.09,8.41,8.41,0,0,0,1.12-3.19,13,13,0,0,0-.29-4.93,22.78,22.78,0,0,0-1.73-4.35q-1.11-2.15-2.54-4.5a43.68,43.68,0,0,1-2.76-5.36,10.62,10.62,0,0,1-1.22-5.28,7.81,7.81,0,0,1,1.06-3.48,7.38,7.38,0,0,1,2.65-2.55,7.71,7.71,0,0,1,2.76-.52,6,6,0,0,1,2.46.58,5,5,0,0,1,2.26,2.32,2.15,2.15,0,0,1,.21,1.5,7,7,0,0,1-.87,2,5.29,5.29,0,0,1-2.47,2,.5.5,0,0,1-.53-.08.48.48,0,0,1-.21-.5c0-.38,0-.87,0-1.45a10.16,10.16,0,0,0-.19-1.68,5.62,5.62,0,0,0-.53-1.54,2.42,2.42,0,0,0-1-1.07,1.63,1.63,0,0,0-.75-.17,3.71,3.71,0,0,0-.82.11,2,2,0,0,0-.87.53,2.1,2.1,0,0,0-.64,1.27,4.31,4.31,0,0,0,.13,1.68,9.94,9.94,0,0,0,.75,1.95,11,11,0,0,0,1.24,1.94c.35.46.83,1.12,1.43,2s1.25,1.81,1.94,2.87,1.38,2.21,2.07,3.42a41,41,0,0,1,1.88,3.75,25.08,25.08,0,0,1,1.35,3.76,11.37,11.37,0,0,1,.45,3.43,8.76,8.76,0,0,1-1.08,4.17,10.61,10.61,0,0,1-2.68,3.16,11.27,11.27,0,0,1-3.79,2,13.2,13.2,0,0,1-4.43.52,8.57,8.57,0,0,1-3.87-1.22A5.74,5.74,0,0,1,270,397a6.89,6.89,0,0,1-1.14-1.65,8.57,8.57,0,0,1-.72-2.29A13.13,13.13,0,0,1,268,390a7.39,7.39,0,0,1,.8-3.13,7.26,7.26,0,0,1,1.59-2.06,6.53,6.53,0,0,1,1.85-1.16,15.07,15.07,0,0,1,1.65-.55A2.06,2.06,0,0,1,275.69,383.48Z" transform="translate(-197.46 -332.04)"/><path d="M317.94,382.36a1.34,1.34,0,0,1,0,.9,68.66,68.66,0,0,1-4.07,8.45,20.91,20.91,0,0,1-3.52,4.65,5.36,5.36,0,0,1-3.07,1.6,4.5,4.5,0,0,1-2.79-.8,5.88,5.88,0,0,1-2.24-3.6,30.47,30.47,0,0,1-.87-5.75,55.17,55.17,0,0,1,0-6.3c.13-2.1.25-3.85.37-5.25a15.14,15.14,0,0,0,.05-3.05c-.1-.57-.29-.89-.6-.95-.73-.07-1.39.43-2,1.5a20.28,20.28,0,0,0-1.55,3.9,43.18,43.18,0,0,0-1.14,4.8,32.88,32.88,0,0,0-.55,4.2c-.12,3.86-.12,7.6,0,11.2a1.36,1.36,0,0,1-.41,1,1.09,1.09,0,0,1-1,.3,5,5,0,0,1-3-1.25,8.09,8.09,0,0,1-1.65-2.15,7.61,7.61,0,0,1-.73-2.9q-.45-3.81-.59-9t-.19-10.5q0-5.31.05-10t.18-7.5a6.8,6.8,0,0,1,2.93-5.6,10.62,10.62,0,0,1,3.34-1.85,20.67,20.67,0,0,1,2.79-.75.82.82,0,0,1,.82.3,1,1,0,0,1,.27.9q-.82,6.39-1.37,12.7T296.5,374a20,20,0,0,1,3.29-5.2,6.29,6.29,0,0,1,4.94-2.3,4.82,4.82,0,0,1,4,1.6,8.93,8.93,0,0,1,1.74,3.5,19,19,0,0,1,.27,5l-.36,5.6c-.13,1.86-.2,3.58-.23,5.15s0,2.83,0,3.8.19,1.48.37,1.55a17.48,17.48,0,0,0,2-2.7c.64-1.07,1.23-2.12,1.78-3.15s1-2,1.37-2.85.64-1.5.82-1.9.34-.44.64-.3h.19A1,1,0,0,1,317.94,382.36Z" transform="translate(-197.46 -332.04)"/><g class="a"><path d="M228.2,403.58a2.4,2.4,0,0,1,.7.72,1.49,1.49,0,0,1,.23.94.52.52,0,0,1-.18.41.42.42,0,0,1-.43.09,21.53,21.53,0,0,0-3-.52,16.64,16.64,0,0,0-2.52-.05c-.1,1.05-.18,2.1-.25,3.15s-.14,2.09-.18,3.15l1.24-.08c.42,0,.83-.06,1.24-.1s.88,0,1.06.19a.94.94,0,0,1,.24.71,1.32,1.32,0,0,1-.27.68c-.16.19-.32.23-.49.11a1.36,1.36,0,0,0-.54-.24c-.24-.06-.5-.11-.79-.16l-.9-.11-.83-.07q-.15,4,0,7.62t.54,6.71a.47.47,0,0,1-.11.41.26.26,0,0,1-.32.09,5.51,5.51,0,0,1-2.44-1.15,2.54,2.54,0,0,1-.8-1.1,4.3,4.3,0,0,1-.29-1.38c-.1-2.57-.05-5.36.13-8.37s.51-6.06,1-9.13a2.76,2.76,0,0,1,.18-.68c-.34.05-.63.1-.87.16l-.62.16a.1.1,0,0,1-.11-.11l.29-.68a1.08,1.08,0,0,1,.73-.68,21.71,21.71,0,0,1,4.74-1,20.86,20.86,0,0,1,2.7,0A1.57,1.57,0,0,1,228.2,403.58Z" transform="translate(-197.46 -332.04)"/><path d="M243.43,411.21a8.2,8.2,0,0,1-.72,2.63,9.81,9.81,0,0,1-1.48,2.16,5.93,5.93,0,0,1-2.7,1.69,3.63,3.63,0,0,1,2,1.41,6.87,6.87,0,0,1,1,2.12,12.9,12.9,0,0,1,.29,1.53c0,.45.08.83.1,1.14s0,.68,0,1a2.59,2.59,0,0,1-.33,1,3.17,3.17,0,0,1-.64.79,2.84,2.84,0,0,1-1.19.61.38.38,0,0,1-.27,0c-.09,0-.12-.07-.09-.14a7.85,7.85,0,0,1,.14-.78,10.12,10.12,0,0,0,.15-1.56,10.63,10.63,0,0,0-.35-3.46,5.7,5.7,0,0,0-1-2,2.9,2.9,0,0,0-1.23-.9,4.51,4.51,0,0,0-1.06-.25c0,.48-.08.95-.11,1.4s-.05.93-.07,1.41c-.05,1.05-.08,2.09-.11,3.11s0,2,0,3a.16.16,0,0,1-.06.18.19.19,0,0,1-.19,0,4.2,4.2,0,0,1-1.53-.62,6,6,0,0,1-.81-.64.84.84,0,0,1-.18-.47,14.2,14.2,0,0,1-.09-1.44c0-.55,0-1.07,0-1.55v-1.76c0-.94,0-1.88,0-2.81s0-1.82,0-2.67,0-1.6,0-2.3,0-1.26,0-1.69a2.51,2.51,0,0,1,1.12-2.05,5,5,0,0,1,1.31-.69,8.74,8.74,0,0,1,1.1-.29.39.39,0,0,1,.43.44c-.17,1.34-.32,2.7-.45,4.06s-.26,2.74-.38,4.11a4.48,4.48,0,0,0,2.29-1.51,7.67,7.67,0,0,0,1.24-2.24,11.81,11.81,0,0,0,.61-2.91,6.92,6.92,0,0,0-.38-3.13,4.12,4.12,0,0,0-1.13-1.59A3,3,0,0,0,237,405a4.85,4.85,0,0,0-2.38.61A4.93,4.93,0,0,0,233,407a7.3,7.3,0,0,0-1,2,12,12,0,0,0-.48,2.13,13.6,13.6,0,0,0-.15,1.94c0,.6,0,1.07,0,1.4a.6.6,0,0,1-.18.44.4.4,0,0,1-.43.1,2.57,2.57,0,0,1-1.21-.41,5.21,5.21,0,0,1-.81-.63,1.32,1.32,0,0,1-.36-.76,9.65,9.65,0,0,1,.4-3.63,8.83,8.83,0,0,1,1.67-3.13,8.34,8.34,0,0,1,2.83-2.2,7.77,7.77,0,0,1,3.85-.72,7.24,7.24,0,0,1,3.18.76,5.34,5.34,0,0,1,2,1.74,6.17,6.17,0,0,1,1,2.41A10.78,10.78,0,0,1,243.43,411.21Z" transform="translate(-197.46 -332.04)"/><path d="M260.31,403.44a.34.34,0,0,1,.32.12.44.44,0,0,1,.08.42c-.29,1.53-.55,3.19-.78,5s-.4,3.63-.52,5.56-.2,3.92-.23,6,0,4.1.09,6.14a.68.68,0,0,1-.17.47.37.37,0,0,1-.37.14,2,2,0,0,1-1.57-.88,3.54,3.54,0,0,1-.63-1.74c0-.29,0-.57-.07-.85s0-.56-.07-.84a9.45,9.45,0,0,1-.49,1.11,4.08,4.08,0,0,1-.77,1,3.5,3.5,0,0,1-1.1.7,3,3,0,0,1-1.5.14,3.46,3.46,0,0,1-1.83-.93,5.21,5.21,0,0,1-1.19-2,9.26,9.26,0,0,1-.32-3.8c.07-1,.14-2.11.23-3.22s.16-2.2.22-3.26.1-2.06.12-3,0-1.82,0-2.58a9.37,9.37,0,0,0-.23-1.85c-.12-.48-.3-.77-.54-.86a.7.7,0,0,0-.9.28,4.25,4.25,0,0,0-.67,1.35,10.26,10.26,0,0,0-.39,1.8,7,7,0,0,0-.06,1.61.29.29,0,0,1-.1.23.24.24,0,0,1-.26,0,4.8,4.8,0,0,1-1-.63,2.38,2.38,0,0,1-.77-1.39,2.15,2.15,0,0,1,.1-1.19,7.6,7.6,0,0,1,.45-.93,4.83,4.83,0,0,1,.81-1,4.53,4.53,0,0,1,1.23-.81,3.73,3.73,0,0,1,1.69-.29,3.85,3.85,0,0,1,2.2.78,4.39,4.39,0,0,1,1.38,1.9,9.45,9.45,0,0,1,.6,2.88,18.76,18.76,0,0,1-.18,3.73q-.15,1.19-.36,2.52c-.15.89-.28,1.78-.4,2.67s-.21,1.73-.27,2.53a13.93,13.93,0,0,0,0,2.13,3.5,3.5,0,0,0,.38,1.44,1,1,0,0,0,1,.48,2,2,0,0,0,1.53-.84,5.65,5.65,0,0,0,.83-1.71,9.47,9.47,0,0,0,.34-1.77c.05-.55.08-.89.08-1-.08-2.18-.08-4.32,0-6.4s.2-4.05.39-5.87a4.54,4.54,0,0,1,.36-1.37,2.38,2.38,0,0,1,.87-1A5.24,5.24,0,0,1,260.31,403.44Z" transform="translate(-197.46 -332.04)"/><path d="M270.39,403.76a2.12,2.12,0,0,1,.57.72,2,2,0,0,1,.22.94.7.7,0,0,1-.18.41.26.26,0,0,1-.32.09,16.38,16.38,0,0,0-2.16-.43c-.36,3.65-.55,7.16-.56,10.55a84.87,84.87,0,0,0,.45,9.36l.67-.16c.22-.06.47-.14.73-.24a.33.33,0,0,1,.35.06.49.49,0,0,1,.19.3,1.56,1.56,0,0,1-.68,1.44,1.08,1.08,0,0,1-.36.2l-.36.13c-.34,0-.82.08-1.44.1a16,16,0,0,1-2.48-.14,1.45,1.45,0,0,1-1.34-1q0-.18.15-.18c.29,0,.6,0,1,0a9.4,9.4,0,0,0,1.14-.07,2.9,2.9,0,0,0-.29-.22,2.6,2.6,0,0,1-.76-1.11,4.85,4.85,0,0,1-.29-1.41,76.38,76.38,0,0,1,.18-8.2q.33-4.32,1.05-9l.11-.54a12.49,12.49,0,0,0-1.7.22,8.86,8.86,0,0,0-1,.25c-.13,0-.15,0-.08-.11l.18-.68a1.08,1.08,0,0,1,.62-.68,16.23,16.23,0,0,1,2.05-.65,11.68,11.68,0,0,1,1.6-.29,9.09,9.09,0,0,1,1.21-.06l.82.06A1.07,1.07,0,0,1,270.39,403.76Z" transform="translate(-197.46 -332.04)"/><path d="M284.39,405.38c-.33-.05-1.05-.11-2.14-.2a29,29,0,0,0-3.83,0,100.66,100.66,0,0,0-.56,11.5,93,93,0,0,0,.59,10.07.44.44,0,0,1-.46.5,5.52,5.52,0,0,1-2.38-1.19,2.44,2.44,0,0,1-.79-1.1,4.3,4.3,0,0,1-.29-1.38,83.49,83.49,0,0,1,.14-8.41c.2-3,.53-6.09,1-9.16.05-.24.08-.41.11-.5-.53.09-1.05.2-1.57.32a12.77,12.77,0,0,0-1.53.47.51.51,0,0,1-.45-.06.49.49,0,0,1-.23-.37,1.66,1.66,0,0,1,.14-1,2.66,2.66,0,0,1,.62-.81,1.83,1.83,0,0,1,.9-.39,22.47,22.47,0,0,1,3.24-.27,35,35,0,0,1,6.37.52,1,1,0,0,1,.79.57l.39.69C284.51,405.33,284.49,405.38,284.39,405.38Z" transform="translate(-197.46 -332.04)"/><path d="M287.27,417.41a3.59,3.59,0,0,1,1,1,2.5,2.5,0,0,1,.42,1.27.34.34,0,0,1-.11.27.21.21,0,0,1-.25,0l-.94-.16a3.39,3.39,0,0,0-1.22.05,3.73,3.73,0,0,0-1.59.82,2.52,2.52,0,0,0-.86,1.81,3.43,3.43,0,0,0,.36,2.25,3.29,3.29,0,0,0,1.15,1.14,4.35,4.35,0,0,0,1.76.46,3.94,3.94,0,0,0,2.45-.46,5.09,5.09,0,0,0,1.41-1.3,5,5,0,0,0,.75-2,7.14,7.14,0,0,0-.2-3.06,12.69,12.69,0,0,0-1.17-2.7c-.5-.89-1.08-1.82-1.72-2.79a25.66,25.66,0,0,1-1.87-3.33,6.09,6.09,0,0,1-.83-3.28,4.53,4.53,0,0,1,.72-2.16,4.88,4.88,0,0,1,1.8-1.58,5.53,5.53,0,0,1,1.87-.32,4.41,4.41,0,0,1,1.67.36,3.27,3.27,0,0,1,1.53,1.44,1.25,1.25,0,0,1,.15.93,4.09,4.09,0,0,1-.6,1.26,3.47,3.47,0,0,1-1.67,1.26.37.37,0,0,1-.36-.05.31.31,0,0,1-.15-.31c0-.24,0-.54,0-.9a7,7,0,0,0-.13-1,3.38,3.38,0,0,0-.36-1,1.6,1.6,0,0,0-.68-.66,1.19,1.19,0,0,0-.51-.11,3.05,3.05,0,0,0-.56.07,1.41,1.41,0,0,0-.59.33,1.3,1.3,0,0,0-.43.79,2.39,2.39,0,0,0,.09,1,5.75,5.75,0,0,0,.5,1.21,6.41,6.41,0,0,0,.85,1.2c.24.29.56.7,1,1.23s.85,1.12,1.31,1.78.94,1.37,1.41,2.12a26.37,26.37,0,0,1,1.28,2.33,14.83,14.83,0,0,1,.91,2.34,6.64,6.64,0,0,1,.31,2.12,5.08,5.08,0,0,1-.74,2.59,6.42,6.42,0,0,1-1.82,2,7.72,7.72,0,0,1-2.57,1.21,9.73,9.73,0,0,1-3,.32,6.16,6.16,0,0,1-2.62-.75,3.88,3.88,0,0,1-1-.69,3.8,3.8,0,0,1-.77-1,4.93,4.93,0,0,1-.49-1.42,7.29,7.29,0,0,1-.09-1.91,4.38,4.38,0,0,1,.54-1.95,4.53,4.53,0,0,1,1.08-1.27,4.25,4.25,0,0,1,1.26-.72,11.23,11.23,0,0,1,1.12-.35A1.5,1.5,0,0,1,287.27,417.41Z" transform="translate(-197.46 -332.04)"/></g><path d="M249.07,362.89a30.94,30.94,0,0,1-6.07-2.4A24.13,24.13,0,0,1,232.48,350a3.31,3.31,0,0,1,1.36-4.52,6.28,6.28,0,0,1,6.06.09l.06,0a25.06,25.06,0,0,0,5.08,2.15c8.43,2.36,17.16.09,21.22-5.52a10.68,10.68,0,0,0,1.63-5.39,3.4,3.4,0,0,1,2-2.79,6.08,6.08,0,0,1,4.23-.28c2.39.67,4.11,2.56,4.09,4.48a13.85,13.85,0,0,1-.75,4.57.61.61,0,0,0,0,.4,14.1,14.1,0,0,1-1.62,13.65,15.65,15.65,0,0,1-6.13,4.87,25.32,25.32,0,0,1-8.39,2.21,33.76,33.76,0,0,1-12.28-1.1Zm-11.33-15.24a2,2,0,0,0-1.56.17,1.13,1.13,0,0,0-.46,1.55,20.44,20.44,0,0,0,8.91,8.86,26.37,26.37,0,0,0,5.18,2,29.16,29.16,0,0,0,10.64,1c5.48-.54,10-2.71,12.32-6a11.93,11.93,0,0,0,1.38-11.57,2.76,2.76,0,0,1,0-1.92,11.91,11.91,0,0,0,.64-3.9,1.68,1.68,0,0,0-1.33-1.45,1.91,1.91,0,0,0-1.38.09,1.07,1.07,0,0,0-.66.9,12.74,12.74,0,0,1-2,6.48,18.53,18.53,0,0,1-10.7,6.82,28.23,28.23,0,0,1-14.35-.32,29.94,29.94,0,0,1-6.08-2.56,2.74,2.74,0,0,0-.49-.19Zm.51.2Zm.17-5c.93-.1,1.47-.8,1.21-1.56a10.36,10.36,0,0,1-.37-5.82,1,1,0,0,1,1-.67,1.52,1.52,0,0,1,1.28.63,20.75,20.75,0,0,0,3.3,3.85,24.62,24.62,0,0,0,12.84,5.87c1,.14,1.78-.36,1.82-1.12a1.79,1.79,0,0,0-1.68-1.62,20,20,0,0,1-10.51-4.8,18.17,18.17,0,0,1-2.72-3.18,5.76,5.76,0,0,0-4.89-2.41c-2,0-3.52,1-3.89,2.55a12.56,12.56,0,0,0,.43,7.09,1.93,1.93,0,0,0,1.32,1.12A2,2,0,0,0,238.42,342.88Zm21.13,15.59c4.55-.45,8.24-2.2,10.13-4.8a1.36,1.36,0,0,0-.73-1.95,1.91,1.91,0,0,0-2.37.31c-1.43,2-4.32,3.31-7.93,3.67-.93.09-1.49.79-1.24,1.55a1.89,1.89,0,0,0,1.33,1.14,2.46,2.46,0,0,0,.81.08Z" transform="translate(-197.46 -332.04)"/></svg>