<svg xmlns="http://www.w3.org/2000/svg" viewBox="0 0 150.87 107.89" fill="#fff">
<title>logo</title>
<path d="M506.91,317.56a6.52,6.52,0,0,1,1.95,2,4.26,4.26,0,0,1,.65,2.6,1.5,1.5,0,0,1-.5,1.15,1.21,1.21,0,0,1-1.2.25,58.88,58.88,0,0,0-8.4-1.45,44,44,0,0,0-7-.15q-.41,4.4-.7,8.75c-.2,2.9-.37,5.81-.5,8.75l3.45-.2q1.74-.11,3.45-.3c1.46-.2,2.45,0,2.95.55a2.5,2.5,0,0,1,.65,1.95,3.51,3.51,0,0,1-.75,1.9q-.66.79-1.35.3a3.9,3.9,0,0,0-1.5-.65c-.67-.17-1.4-.32-2.2-.45a24.42,24.42,0,0,0-2.5-.3l-2.3-.2q-.41,11,0,21.15t1.51,18.65a1.41,1.41,0,0,1-.3,1.15.76.76,0,0,1-.9.25,15.56,15.56,0,0,1-6.77-3.2,7.11,7.11,0,0,1-2.23-3.05,12.36,12.36,0,0,1-.8-3.85q-.41-10.71.35-23.25t2.78-25.35a8.92,8.92,0,0,1,.51-1.9,22.41,22.41,0,0,0-2.43.45q-1,.24-1.71.45a.27.27,0,0,1-.3-.3l.8-1.9a3,3,0,0,1,2-1.9,59.69,59.69,0,0,1,13.18-2.7,57.51,57.51,0,0,1,7.5-.1A4.25,4.25,0,0,1,506.91,317.56Z" transform="translate(-461.75 -316.58)"/><path d="M511.91,336.56c0,.06.18.25.55.55a9.68,9.68,0,0,0,1.6,1,18.37,18.37,0,0,0,2.8,1.1,24.34,24.34,0,0,0,4.15.85,5,5,0,0,1,3.75,2.4,5.85,5.85,0,0,1,.85,4.5c-.4,2-.79,4.23-1.15,6.7s-.64,4.78-.8,6.95a30.05,30.05,0,0,0,0,5.55c.16,1.53.61,2.36,1.35,2.5a20.78,20.78,0,0,0,2.2-2.7c.73-1.07,1.4-2.12,2-3.15s1.1-2,1.5-2.85.7-1.5.9-1.9a.47.47,0,0,1,.7-.3h.1a1,1,0,0,1,.7,1.5,67.57,67.57,0,0,1-4.5,8.55,22,22,0,0,1-4,4.8,5.91,5.91,0,0,1-3.4,1.6,4.11,4.11,0,0,1-2.85-1,12,12,0,0,1-3.85-7.05A37.56,37.56,0,0,1,514,357a61,61,0,0,1,1.1-8.95c.56-2.84,1.05-4.95,1.45-6.35a16.26,16.26,0,0,1-3.8-1.4c.06.73.1,1.41.1,2.05v1.75a12.57,12.57,0,0,1-.1,1.6,33.43,33.43,0,0,1-1.15,5.7,65.77,65.77,0,0,1-3.05,8.2,1.07,1.07,0,0,1-.65.65.88.88,0,0,1-.85-.15.3.3,0,0,1-.2-.1c-.27-.14-.34-.37-.2-.7s.48-1.05.85-1.95.73-1.92,1.1-3.05.7-2.32,1-3.55a20.46,20.46,0,0,0,.55-3.45,23.34,23.34,0,0,0-.1-3.7,10.49,10.49,0,0,0-1.6-4,15.35,15.35,0,0,1-1.5-2.5,5.52,5.52,0,0,1-.6-2,1.87,1.87,0,0,1,.7-1.7c.86-.74,1.65-.84,2.35-.3a7.12,7.12,0,0,1,1.65,1.7,3.43,3.43,0,0,0,.3.5A9.17,9.17,0,0,1,511.91,336.56Z" transform="translate(-461.75 -316.58)"/><path d="M559.51,357.76a1.05,1.05,0,0,1,.65.6,1.24,1.24,0,0,1,0,.9q-1.11,2.4-2.1,4.35c-.67,1.3-1.3,2.45-1.9,3.45a19.6,19.6,0,0,1-3.9,4.4,16,16,0,0,1-4.6,2.45,9.73,9.73,0,0,1-6.2-.15,10.42,10.42,0,0,1-3.85-2.4,14.63,14.63,0,0,1-3.25-4.5,18.93,18.93,0,0,1-1.7-6.15,18.4,18.4,0,0,1,.8-7.45,16.64,16.64,0,0,1,2.85-6.05,14.89,14.89,0,0,1,3.45-3.25,9,9,0,0,1,4-1.4,8.6,8.6,0,0,1,4.2.55,9.1,9.1,0,0,1,2.8,1.85,8.19,8.19,0,0,1,1.4,2.1,5.69,5.69,0,0,1,.55,2.3,7.5,7.5,0,0,1-.65,3,7.94,7.94,0,0,1-2.3,3,9.8,9.8,0,0,1-3.5,1.75,13.4,13.4,0,0,1-5.6.15,4,4,0,0,1-.05.6,3,3,0,0,0,0,.6,28.41,28.41,0,0,0,.2,6,14,14,0,0,0,1.5,4.35,4.14,4.14,0,0,0,3.5,2.25,5.6,5.6,0,0,0,3.25-.6,13,13,0,0,0,2.75-1.9,22.57,22.57,0,0,0,2.7-2.8,51.75,51.75,0,0,0,2.65-4.55c.76-1.5,1.28-2.55,1.55-3.15a.47.47,0,0,1,.7-.3Zm-9.6-11.1a1.86,1.86,0,0,0-1.9-.4,6.06,6.06,0,0,0-2.5,1.45,14.09,14.09,0,0,0-2.5,3,15.73,15.73,0,0,0-1.9,4.25,9.4,9.4,0,0,0,2,.2,8.93,8.93,0,0,0,2.25-.3,10.88,10.88,0,0,0,2.2-.85,5.52,5.52,0,0,0,1.85-1.65,7.31,7.31,0,0,0,1.15-2.35,4,4,0,0,0,.05-1.85A3.6,3.6,0,0,0,549.91,346.66Z" transform="translate(-461.75 -316.58)"/><path d="M566.35,359.48a6,6,0,0,1,1.59,1.59,3.94,3.94,0,0,1,.67,2.06.54.54,0,0,1-.17.43.34.34,0,0,1-.41,0l-1.51-.26a5.31,5.31,0,0,0-2,.09,6,6,0,0,0-2.55,1.3,4.12,4.12,0,0,0-1.39,2.93,5.62,5.62,0,0,0,.58,3.63A5.33,5.33,0,0,0,563,373.1a7.18,7.18,0,0,0,2.85.76,6.36,6.36,0,0,0,3.94-.76,7.75,7.75,0,0,0,2.26-2.08,7.9,7.9,0,0,0,1.22-3.19,11.87,11.87,0,0,0-.32-4.93,21.12,21.12,0,0,0-1.88-4.35c-.82-1.43-1.74-2.93-2.79-4.5a43.4,43.4,0,0,1-3-5.36,9.91,9.91,0,0,1-1.34-5.28,7.46,7.46,0,0,1,1.16-3.48,7.68,7.68,0,0,1,2.9-2.55,9.15,9.15,0,0,1,3-.53,7,7,0,0,1,2.69.59,5.26,5.26,0,0,1,2.47,2.31,2,2,0,0,1,.23,1.51,6.28,6.28,0,0,1-1,2,5.75,5.75,0,0,1-2.69,2,.58.58,0,0,1-.58-.08.46.46,0,0,1-.23-.5c0-.38,0-.87,0-1.45a9.19,9.19,0,0,0-.21-1.68,5.42,5.42,0,0,0-.58-1.54,2.52,2.52,0,0,0-1.1-1.07,1.73,1.73,0,0,0-.81-.17,4.4,4.4,0,0,0-.9.11,2.28,2.28,0,0,0-1,.52,2.11,2.11,0,0,0-.69,1.28,4,4,0,0,0,.14,1.68,10.38,10.38,0,0,0,.81,1.95,11.24,11.24,0,0,0,1.37,1.94c.38.46.91,1.12,1.56,2s1.37,1.81,2.12,2.87,1.51,2.21,2.26,3.42a41.44,41.44,0,0,1,2.06,3.74,25.52,25.52,0,0,1,1.48,3.77,10.6,10.6,0,0,1,.49,3.43,8.21,8.21,0,0,1-1.19,4.17,10.85,10.85,0,0,1-2.92,3.16,12.81,12.81,0,0,1-4.15,2,15.68,15.68,0,0,1-4.84.52,10,10,0,0,1-4.24-1.22,6.53,6.53,0,0,1-1.54-1.1,7.13,7.13,0,0,1-1.24-1.65,8.17,8.17,0,0,1-.79-2.3,12,12,0,0,1-.14-3.07,7,7,0,0,1,.87-3.13,7.28,7.28,0,0,1,1.74-2.06,7.21,7.21,0,0,1,2-1.16,17,17,0,0,1,1.8-.55A2.43,2.43,0,0,1,566.35,359.48Z" transform="translate(-461.75 -316.58)"/><path d="M612.55,358.36a1.24,1.24,0,0,1,0,.9,65,65,0,0,1-4.45,8.45,21.1,21.1,0,0,1-3.85,4.65,6.07,6.07,0,0,1-3.35,1.6,5.25,5.25,0,0,1-3.05-.8,5.82,5.82,0,0,1-2.45-3.6,26.76,26.76,0,0,1-1-5.75,50.93,50.93,0,0,1,0-6.3c.13-2.1.27-3.85.4-5.25a13.74,13.74,0,0,0,.05-3.05c-.1-.57-.32-.89-.65-.95-.8-.07-1.52.43-2.15,1.5a19.37,19.37,0,0,0-1.7,3.9,41.08,41.08,0,0,0-1.25,4.8,32.36,32.36,0,0,0-.6,4.2c-.13,3.86-.13,7.6,0,11.2a1.29,1.29,0,0,1-.45,1,1.25,1.25,0,0,1-1,.3,5.74,5.74,0,0,1-3.3-1.25,8.07,8.07,0,0,1-1.8-2.15,7,7,0,0,1-.8-2.9q-.5-3.81-.65-9c-.1-3.47-.16-7-.2-10.5s0-6.87,0-10,.14-5.64.2-7.5a6.65,6.65,0,0,1,3.2-5.6,12,12,0,0,1,3.65-1.85,24.92,24.92,0,0,1,3-.75.94.94,0,0,1,.9.3.93.93,0,0,1,.3.9q-.9,6.39-1.5,12.7t-1,12.4a19.81,19.81,0,0,1,3.6-5.2,7.17,7.17,0,0,1,5.4-2.3,5.53,5.53,0,0,1,4.4,1.6,8.54,8.54,0,0,1,1.9,3.5,17.32,17.32,0,0,1,.3,5c-.13,1.86-.27,3.73-.4,5.6s-.22,3.58-.25,5.15,0,2.83.05,3.8.2,1.48.4,1.55a17.82,17.82,0,0,0,2.15-2.7q1.05-1.6,2-3.15t1.5-2.85c.4-.87.7-1.5.9-1.9a.47.47,0,0,1,.7-.3h.2A1.05,1.05,0,0,1,612.55,358.36Z" transform="translate(-461.75 -316.58)"/><path d="M536.3,381.64a2.75,2.75,0,0,1,.84.86,1.79,1.79,0,0,1,.28,1.12.62.62,0,0,1-.21.49.52.52,0,0,1-.52.11,26.57,26.57,0,0,0-3.61-.62,20.68,20.68,0,0,0-3-.07c-.11,1.26-.21,2.52-.3,3.77s-.16,2.5-.22,3.76L531,391c.5,0,1-.07,1.48-.13a1.45,1.45,0,0,1,1.27.24,1.08,1.08,0,0,1,.28.84,1.56,1.56,0,0,1-.32.82c-.19.23-.38.27-.58.12a2,2,0,0,0-.65-.28c-.29-.07-.6-.13-.95-.19s-.7-.1-1.07-.13l-1-.08q-.18,4.72,0,9.09c.12,2.91.33,5.58.65,8a.65.65,0,0,1-.13.5.33.33,0,0,1-.39.1,6.75,6.75,0,0,1-2.91-1.37,3.07,3.07,0,0,1-1-1.31,5.58,5.58,0,0,1-.34-1.66q-.18-4.6.15-10t1.19-10.9a4.42,4.42,0,0,1,.22-.82c-.41.06-.75.13-1,.2l-.74.19a.12.12,0,0,1-.13-.13l.35-.81a1.26,1.26,0,0,1,.86-.82A25.27,25.27,0,0,1,532,381.3a26.36,26.36,0,0,1,3.23-.05A1.79,1.79,0,0,1,536.3,381.64Z" transform="translate(-461.75 -316.58)"/><path d="M552.77,390.76a9.5,9.5,0,0,1-.86,3.14,12,12,0,0,1-1.76,2.58,7.16,7.16,0,0,1-3.22,2,4.2,4.2,0,0,1,2.4,1.67,8.07,8.07,0,0,1,1.16,2.54,13.13,13.13,0,0,1,.35,1.83c.06.53.1,1,.13,1.35s0,.82-.05,1.16a3,3,0,0,1-.38,1.17,3.6,3.6,0,0,1-.78.94,3.34,3.34,0,0,1-1.42.73.46.46,0,0,1-.32.05.14.14,0,0,1-.11-.18c0-.23.09-.53.18-.92a12.31,12.31,0,0,0,.17-1.87,12.5,12.5,0,0,0-.41-4.13,6.73,6.73,0,0,0-1.2-2.36,3.46,3.46,0,0,0-1.47-1.08,5.59,5.59,0,0,0-1.26-.3c-.06.57-.11,1.13-.13,1.68s-.06,1.1-.09,1.67c-.06,1.27-.1,2.51-.13,3.72s0,2.4,0,3.55a.19.19,0,0,1-.06.22.26.26,0,0,1-.24,0,5.07,5.07,0,0,1-1.82-.73,8,8,0,0,1-1-.78,1,1,0,0,1-.22-.55c0-.49-.09-1.07-.1-1.73s0-1.27,0-1.84v-2.11c0-1.12,0-2.24,0-3.36s0-2.17,0-3.18,0-1.92.07-2.75,0-1.5,0-2a3,3,0,0,1,1.33-2.45,5.78,5.78,0,0,1,1.57-.82,10.26,10.26,0,0,1,1.31-.34.39.39,0,0,1,.39.13.38.38,0,0,1,.13.38q-.3,2.42-.54,4.86c-.16,1.64-.31,3.27-.45,4.9a5.23,5.23,0,0,0,2.73-1.8,9.13,9.13,0,0,0,1.49-2.67,14.79,14.79,0,0,0,.73-3.48,8.56,8.56,0,0,0-.45-3.74,4.86,4.86,0,0,0-1.36-1.89,3.52,3.52,0,0,0-2.11-.73,5.65,5.65,0,0,0-2.83.73,6,6,0,0,0-1.9,1.74,9.08,9.08,0,0,0-1.14,2.34,16.23,16.23,0,0,0-.58,2.54,17.74,17.74,0,0,0-.17,2.32c0,.72,0,1.28.05,1.68a.7.7,0,0,1-.22.51.48.48,0,0,1-.52.13,3.17,3.17,0,0,1-1.44-.49,6.31,6.31,0,0,1-1-.75,1.53,1.53,0,0,1-.43-.91,11.52,11.52,0,0,1,.47-4.34,10.8,10.8,0,0,1,2-3.74,10.08,10.08,0,0,1,3.37-2.62,9.21,9.21,0,0,1,4.6-.86,8.84,8.84,0,0,1,3.81.9,6.59,6.59,0,0,1,2.39,2.08,7.44,7.44,0,0,1,1.14,2.88A12.38,12.38,0,0,1,552.77,390.76Z" transform="translate(-461.75 -316.58)"/><path d="M571.22,381.47a.4.4,0,0,1,.39.15.49.49,0,0,1,.08.49q-.51,2.76-.92,5.94t-.63,6.64q-.21,3.46-.27,7.14c0,2.45,0,4.89.1,7.33a.79.79,0,0,1-.19.56.48.48,0,0,1-.45.17,2.38,2.38,0,0,1-1.87-1.05,4.08,4.08,0,0,1-.75-2.09l-.09-1c0-.33-.06-.66-.09-1a8,8,0,0,1-.58,1.34,5,5,0,0,1-.92,1.22,4,4,0,0,1-1.31.84,3.57,3.57,0,0,1-1.79.17,4.05,4.05,0,0,1-2.19-1.12,6.16,6.16,0,0,1-1.42-2.38,11.21,11.21,0,0,1-.39-4.54c.09-1.23.18-2.51.28-3.85s.19-2.63.26-3.89.12-2.46.15-3.61,0-2.17,0-3.08a11.65,11.65,0,0,0-.28-2.21c-.14-.57-.36-.92-.65-1a.84.84,0,0,0-1.07.34,5.14,5.14,0,0,0-.8,1.61,13,13,0,0,0-.47,2.15,8,8,0,0,0-.06,1.92.37.37,0,0,1-.13.28.25.25,0,0,1-.3,0,5.61,5.61,0,0,1-1.14-.75,2.89,2.89,0,0,1-.93-1.66,2.68,2.68,0,0,1,.13-1.42,9.13,9.13,0,0,1,.54-1.12,5.15,5.15,0,0,1,1-1.22,5,5,0,0,1,1.46-1,4.43,4.43,0,0,1,2-.34,4.48,4.48,0,0,1,2.62.92,5.37,5.37,0,0,1,1.66,2.28,11.18,11.18,0,0,1,.71,3.44,22.44,22.44,0,0,1-.22,4.45c-.11,1-.25,2-.43,3s-.33,2.12-.47,3.18-.25,2.07-.32,3a16.73,16.73,0,0,0,0,2.54,3.85,3.85,0,0,0,.45,1.72,1.13,1.13,0,0,0,1.14.58,2.34,2.34,0,0,0,1.82-1,6.34,6.34,0,0,0,1-2,11,11,0,0,0,.41-2.11q.09-1,.09-1.2-.14-3.92,0-7.66t.47-7a5.38,5.38,0,0,1,.43-1.63,2.93,2.93,0,0,1,1-1.25A6.36,6.36,0,0,1,571.22,381.47Z" transform="translate(-461.75 -316.58)"/><path d="M581.54,381.86a2.53,2.53,0,0,1,1,2,.89.89,0,0,1-.22.5.33.33,0,0,1-.39.11,18.67,18.67,0,0,0-2.58-.52q-.64,6.54-.66,12.6a99.48,99.48,0,0,0,.53,11.18l.8-.19c.27-.08.57-.17.88-.28a.39.39,0,0,1,.41.06.6.6,0,0,1,.24.37,1.9,1.9,0,0,1-.82,1.72,1.29,1.29,0,0,1-.43.23l-.43.15a17.23,17.23,0,0,1-1.72.13,20.51,20.51,0,0,1-3-.17,1.71,1.71,0,0,1-1.59-1.25c0-.14.06-.21.17-.21.35,0,.73,0,1.14,0a13.49,13.49,0,0,0,1.36-.08,1.93,1.93,0,0,0-.35-.26,3.21,3.21,0,0,1-.9-1.33,5.77,5.77,0,0,1-.34-1.68,86.13,86.13,0,0,1,.21-9.81q.39-5.16,1.25-10.7l.13-.65a16.57,16.57,0,0,0-2,.26,10,10,0,0,0-1.21.3c-.14,0-.17,0-.08-.13l.21-.82a1.29,1.29,0,0,1,.73-.81,22.32,22.32,0,0,1,2.45-.78,15.7,15.7,0,0,1,1.92-.34,9.4,9.4,0,0,1,1.44-.06q.6,0,1,.06A1.24,1.24,0,0,1,581.54,381.86Z" transform="translate(-461.75 -316.58)"/><path d="M596.55,383.79c-.41-.06-1.26-.13-2.56-.24a33.62,33.62,0,0,0-4.58,0,121.92,121.92,0,0,0-.67,13.74,111.32,111.32,0,0,0,.71,12,.5.5,0,0,1-.15.46.48.48,0,0,1-.41.15,6.8,6.8,0,0,1-2.84-1.42,3,3,0,0,1-.94-1.31,5.59,5.59,0,0,1-.35-1.66c-.11-3.07,0-6.41.18-10s.63-7.27,1.2-10.94c.06-.29.1-.49.13-.61-.63.12-1.26.25-1.87.39a13.3,13.3,0,0,0-1.83.56.6.6,0,0,1-.54-.07.61.61,0,0,1-.28-.45,2,2,0,0,1,.18-1.14,3,3,0,0,1,.73-1,2.13,2.13,0,0,1,1.07-.48,27.3,27.3,0,0,1,3.87-.32,42.76,42.76,0,0,1,7.61.62,1.23,1.23,0,0,1,.95.69l.47.82C596.69,383.73,596.66,383.79,596.55,383.79Z" transform="translate(-461.75 -316.58)"/><path d="M598.27,398.15a4.76,4.76,0,0,1,1.18,1.19,2.92,2.92,0,0,1,.49,1.52.4.4,0,0,1-.13.33.27.27,0,0,1-.3,0c-.28-.06-.66-.13-1.12-.2a3.85,3.85,0,0,0-1.46.07,4.36,4.36,0,0,0-1.89,1,3.06,3.06,0,0,0-1,2.18,4.13,4.13,0,0,0,.43,2.68,4,4,0,0,0,1.38,1.36,5.42,5.42,0,0,0,2.1.56,4.81,4.81,0,0,0,2.93-.56,5.33,5.33,0,0,0,2.58-3.91,8.77,8.77,0,0,0-.24-3.66,15.88,15.88,0,0,0-1.4-3.22c-.6-1.06-1.29-2.18-2.06-3.34a32.28,32.28,0,0,1-2.24-4,7.45,7.45,0,0,1-1-3.92,5.54,5.54,0,0,1,.86-2.58,5.84,5.84,0,0,1,2.15-1.89,6.77,6.77,0,0,1,2.24-.39,5.42,5.42,0,0,1,2,.43,4,4,0,0,1,1.83,1.72,1.56,1.56,0,0,1,.17,1.12,5,5,0,0,1-.71,1.51,4.25,4.25,0,0,1-2,1.5.43.43,0,0,1-.43-.06.33.33,0,0,1-.17-.37c0-.28,0-.64,0-1.07a7.24,7.24,0,0,0-.16-1.25,3.67,3.67,0,0,0-.43-1.14,2,2,0,0,0-.81-.8,1.4,1.4,0,0,0-.6-.12,2.72,2.72,0,0,0-.67.08,1.73,1.73,0,0,0-.71.39,1.56,1.56,0,0,0-.52.94,3.07,3.07,0,0,0,.11,1.25,7.13,7.13,0,0,0,.6,1.44,8.53,8.53,0,0,0,1,1.44c.29.35.68.83,1.17,1.46s1,1.35,1.56,2.13,1.12,1.64,1.68,2.54a31.25,31.25,0,0,1,1.53,2.77,18.13,18.13,0,0,1,1.09,2.8,7.7,7.7,0,0,1,.37,2.54,6.14,6.14,0,0,1-.88,3.09,8.09,8.09,0,0,1-2.17,2.35,9.6,9.6,0,0,1-3.08,1.44,11.64,11.64,0,0,1-3.59.38,7.32,7.32,0,0,1-3.14-.9,4.55,4.55,0,0,1-1.14-.82,5.21,5.21,0,0,1-.92-1.22,6,6,0,0,1-.58-1.7A8.71,8.71,0,0,1,592,403a5.06,5.06,0,0,1,.65-2.32,5.45,5.45,0,0,1,1.29-1.53,5.32,5.32,0,0,1,1.5-.86c.52-.18,1-.32,1.33-.41A1.85,1.85,0,0,1,598.27,398.15Z" transform="translate(-461.75 -316.58)"/><path d="M492.46,424.11a29.59,29.59,0,0,1-8.08.15,28.9,28.9,0,0,1-17.52-9.08,6.63,6.63,0,0,1,5.7-11.1l.09,0a23.57,23.57,0,0,0,27.18-21.05,22.32,22.32,0,0,0-1.23-9,6.48,6.48,0,0,1,12.24-4.22,28.69,28.69,0,0,1,1.74,7.22,1.2,1.2,0,0,0,.23.59,28.53,28.53,0,0,1,5.9,21.23,26.09,26.09,0,0,1-4,11,30.89,30.89,0,0,1-8,8.39,33.12,33.12,0,0,1-14.2,5.85Zm-21.14-15.68a2.22,2.22,0,0,0-1.62,1.21,2.19,2.19,0,0,0,.36,2.56,24.48,24.48,0,0,0,14.86,7.72,24.82,24.82,0,0,0,6.88-.13,28.66,28.66,0,0,0,12.3-5.07c5.76-4.15,9.5-10.11,10.27-16.35a24.2,24.2,0,0,0-5-18,5.55,5.55,0,0,1-1.14-2.81,24.77,24.77,0,0,0-1.49-6.18,2.11,2.11,0,0,0-2.29-1.35,2.12,2.12,0,0,0-1.69,2.72,26.57,26.57,0,0,1,1.41,10.84,28.73,28.73,0,0,1-24,24.92,29.15,29.15,0,0,1-8.16-.09,2.4,2.4,0,0,0-.66,0Zm.68,0ZM469.39,401a2.19,2.19,0,0,0,.45-3.06,20.27,20.27,0,0,1-3.69-8.41,1.5,1.5,0,0,1,.74-1.61,1.52,1.52,0,0,1,1.77.16,27.68,27.68,0,0,0,5.84,3.7A24.25,24.25,0,0,0,488,393.58a23.15,23.15,0,0,0,4-1,2.19,2.19,0,0,0-1.38-4.15,19.32,19.32,0,0,1-14.34-.72,22.61,22.61,0,0,1-4.8-3.05,5.92,5.92,0,0,0-9.64,5.57,24.55,24.55,0,0,0,4.49,10.25,2.18,2.18,0,0,0,2.09.85A2.16,2.16,0,0,0,469.39,401Zm32.16,10.22c4.78-3.44,7.87-8.29,8.49-13.3a2.19,2.19,0,0,0-4.34-.53c-.47,3.8-2.91,7.55-6.71,10.28a2.18,2.18,0,0,0,1.61,3.93,2.29,2.29,0,0,0,.95-.38Z" transform="translate(-461.75 -316.58)"/></svg>