<svg width="484" height="14" viewBox="0 0 484 14" fill="none" xmlns="http://www.w3.org/2000/svg">
<path d="M1 10.5666C21.8728 5.22798 43.1056 1 65.1062 1C121.895 1 173.932 16.8382 231.631 7.53407C261.701 2.68513 298.381 0.220543 328.587 6.62742C379.746 17.4787 430.926 13.5999 481 1.56274" stroke="#ababab" stroke-width="2" stroke-linecap="round" stroke-linejoin="round"/>
<path d="M3 4.21094C40.369 4.21094 70.8755 13.5664 109.019 9.86843C139.431 6.91993 170.532 5.07639 201.156 5.07639C220.927 5.07639 240.515 9.11516 259.995 9.11516C292.053 9.11516 324.258 -0.357488 355.194 1.16584C397.783 3.26292 440.489 12 483 12" stroke="#ababab" stroke-width="2" stroke-linecap="round" stroke-linejoin="round"/>
</svg>
