<svg id="Capa_1" enable-background="new 0 0 512 512" height="512" viewBox="0 0 512 512" width="512" xmlns="http://www.w3.org/2000/svg" fill="#c39838"><g id="XMLID_1902_"><path id="XMLID_412_" d="m509.071 443.33-15.885-15.885v-28.968c0-2.652-1.054-5.195-2.929-7.071l-29.574-29.574v-24.797c0-2.652-1.054-5.195-2.929-7.071l-12.579-12.579c5.613-1.737 10.897-4.815 15.333-9.25 7.064-7.065 10.955-16.458 10.955-26.449s-3.891-19.384-10.955-26.448l-34.313-34.314c-3.905-3.905-10.235-3.905-14.143 0-3.905 3.905-3.905 10.237 0 14.142l34.313 34.314c3.287 3.287 5.098 7.658 5.098 12.307s-1.811 9.02-5.097 12.307c-6.688 6.687-17.503 6.771-24.311.273l-115.646-115.649c13.137-1.847 26.667-.705 39.326 3.435 5.247 1.717 10.895-1.147 12.613-6.396 1.717-5.25-1.147-10.896-6.396-12.613-18.264-5.974-37.999-6.857-56.698-2.699l-82.707-82.707c-2.257-2.257-5.461-3.299-8.606-2.81-16.941 2.632-34.296-3.034-46.421-15.158l-5.143-5.142c-3.904-3.905-10.235-3.904-14.142 0l-32.107 32.108c-3.905 3.905-3.905 10.237 0 14.142l5.142 5.142c12.125 12.124 17.792 29.477 15.158 46.419-.489 3.153.555 6.351 2.811 8.607l42.964 42.964-72.512 68.336c-13.945 13.143-32.179 20.381-51.341 20.381h-38.35c-5.522 0-10 4.478-10 10s4.478 10 10 10h38.349c24.282 0 47.387-9.172 65.058-25.826l72.943-68.742 17.701 17.701-5.566 17.731c-4.939 15.739.172 32.593 13.023 42.936 10.485 8.438 24.391 11.005 37.196 6.868l61.947-20.01c9.499-3.065 19.972 1.085 24.897 9.881l.362.646c2.867 5.119 3.379 11.224 1.404 16.747-1.974 5.521-6.236 9.915-11.694 12.056-17.259 6.767-37.997 14.894-53.131 20.81-15.888 6.21-28.698 19.128-35.146 35.443-14.307 36.202-49.828 60.482-88.469 60.482-.075 0-.154 0-.229 0h-138.645c-5.522 0-10 4.478-10 10s4.478 10 10 10h138.621.287c23.063 0 45.4-6.934 64.612-20.059 19.224-13.135 33.894-31.487 42.424-53.073 4.105-10.387 11.911-18.73 21.62-23.22l38.568 38.568c7.065 7.064 16.458 10.955 26.449 10.955 9.99 0 19.383-3.891 26.447-10.954 1.34-1.34 2.565-2.768 3.674-4.27l8.859 8.859c1.876 1.875 4.419 2.929 7.071 2.929h24.797l29.574 29.574c1.876 1.875 4.419 2.929 7.071 2.929h28.968l15.885 15.885c1.953 1.952 4.512 2.929 7.071 2.929s5.118-.977 7.071-2.929c3.908-3.906 3.908-10.238.002-14.143zm-141.737-79.688-26.55-26.55c7.034-4.757 12.454-11.66 15.364-19.802 2.684-7.507 3.052-15.553 1.193-23.144l18.141-18.141 39.758 39.73zm-71.33-96.645-19.134 6.181-38.031-38.031 47.893-47.893 44.508 44.508zm-19.842-97.458-55.023 55.023-70.688-70.687 55.023-55.024zm-148.857-75.796 18.037-18.038c10.278 9.539 23.019 15.854 36.562 18.432l-36.168 36.168c-2.579-13.542-8.893-26.285-18.431-36.562zm115.252 190.519c-6.377 2.058-13.294.779-18.51-3.418-6.395-5.146-8.938-13.533-6.48-21.365l4.138-13.181 33.787 33.786zm85.041-20.572 17.785-17.785 15.958 15.958-13.876 13.876c-5.386-5.892-12.323-10.033-19.867-12.049zm14.984 128.831c-4.649 0-9.02-1.811-12.307-5.098l-32.44-32.441c7.61-2.98 15.629-6.122 23.391-9.164l36.973 36.973c-.836 1.698-1.942 3.264-3.311 4.632-3.287 3.288-7.658 5.098-12.306 5.098zm38.895-14.736 47.907-47.907 11.3 11.3v21.736l-26.171 26.171h-21.736zm50.78 21.841 18.968-18.968 21.962 21.962v18.968h-18.968z"/><g id="XMLID_284_"><path id="XMLID_303_" d="m387.31 206.179c-2.64 0-5.21-1.07-7.08-2.93-1.859-1.86-2.92-4.44-2.92-7.07 0-2.64 1.061-5.22 2.92-7.08 1.86-1.86 4.44-2.92 7.08-2.92 2.63 0 5.2 1.06 7.061 2.92 1.87 1.87 2.939 4.44 2.939 7.08 0 2.63-1.069 5.21-2.939 7.07-1.861 1.86-4.432 2.93-7.061 2.93z"/></g></g></svg>