<svg id="Capa_1" enable-background="new 0 0 512.001 512.001" height="512" viewBox="0 0 512.001 512.001" width="512" xmlns="http://www.w3.org/2000/svg" fill="#c39838"><g><path d="m321.006 453.396c-29.643-13.976-60.917-29.216-88.801-45.957-3.552-2.133-8.159-.982-10.29 2.57-2.133 3.551-.982 8.158 2.569 10.291 28.45 17.08 60.129 32.521 90.125 46.664 3.77 1.778 8.227.136 9.982-3.586 1.766-3.746.162-8.216-3.585-9.982z"/><path d="m205.696 390.302c-55.382-38.788-84.562-81.479-91.832-134.349-3.271-23.79-26.246-42.421-53.441-43.337-2.155-.073-.369-.026-52.923-.039-4.143 0-7.5 3.357-7.5 7.5s3.357 7.5 7.5 7.5c53.259.011 50.708-.026 52.417.031 17.24.58 36.573 12.105 39.088 30.388 4.224 30.717 15.161 57.944 33.439 83.239 15.825 21.901 36.972 41.97 64.646 61.354 1.31.917 2.811 1.357 4.296 1.357 2.364 0 4.69-1.115 6.15-3.198 2.377-3.392 1.553-8.069-1.84-10.446z"/><path d="m510.542 263.256c-2.456-3.336-7.148-4.052-10.486-1.598l-43.469 31.974c-22.643 16.655-54.571 12.869-72.692-8.622-17.641-20.922-16.713-51.645 2.157-71.465l62.612-65.764c11.443-12.02 17.432-27.772 16.859-44.358-.572-16.587-7.631-31.892-19.876-43.095-23.735-21.717-60.523-21.29-83.751.969l-24.449 23.431c-2.577-2.574-6.001-3.991-9.642-3.991-3.643 0-7.068 1.419-9.646 3.995l-11.111 11.111c-5.826-.77-11.933 1.058-16.401 5.524l-11.342 11.342-.121-.121c-2.93-2.928-7.678-2.928-10.607 0-2.929 2.93-2.929 7.678 0 10.607l.121.121-5.659 5.659-.122-.122c-2.93-2.928-7.678-2.928-10.607 0-2.929 2.93-2.929 7.678 0 10.607l.122.122-41.123 41.123-15.308-22.232c-24.638-35.781-65.283-57.144-108.726-57.144h-79.775c-4.143 0-7.5 3.357-7.5 7.5s3.357 7.5 7.5 7.5h79.775c38.506 0 74.533 18.935 96.372 50.651l16.876 24.509-13.837 13.837c-7.62 7.621-7.62 20.021.001 27.643l1.679 1.679-21.414 21.415c-2.929 2.929-2.929 7.678.001 10.606 2.928 2.928 7.677 2.929 10.606-.001l21.413-21.414 1.68 1.68c7.619 7.617 20.019 7.622 27.642 0l6.163-6.163 115.887 168.305c2.35 3.411 7.017 4.273 10.431 1.924 3.412-2.35 4.273-7.02 1.925-10.431l-117.456-170.582 14.267-14.267c2.93-2.93 2.93-7.678.001-10.607-2.929-2.927-7.678-2.929-10.606 0l-31.217 31.215c-1.771 1.773-4.655 1.773-6.429 0l-13.966-13.966c-1.772-1.771-1.772-4.656 0-6.428l65.746-65.746 20.394 20.394-13.114 13.114c-2.929 2.93-2.929 7.678 0 10.607 2.93 2.928 7.678 2.928 10.607 0l13.114-13.114.121.121c2.931 2.929 7.678 2.928 10.607 0 2.929-2.93 2.929-7.678 0-10.607l-.121-.121 5.659-5.659.121.121c2.931 2.929 7.678 2.928 10.607 0 2.929-2.93 2.929-7.678 0-10.607l-.121-.121 11.342-11.342c4.467-4.467 6.294-10.574 5.524-16.4 8.176-9.262 15.106-12.007 15.106-20.757 0-6.526-4.602-10.158-4.83-10.48l24.219-23.21c17.54-16.812 45.323-17.131 63.248-.732 9.247 8.461 14.577 20.019 15.009 32.545.432 12.525-4.09 24.422-12.731 33.498l-62.612 65.764c-24.154 25.371-25.342 64.697-2.761 91.479 13.472 15.978 32.907 24.31 52.515 24.31 14.147 0 28.384-4.339 40.532-13.273l43.47-31.974c3.335-2.456 4.051-7.151 1.597-10.488zm-182.736-166.956 9.519 9.518-7.292 7.292-9.518-9.518zm-33.765 63.676-20.394-20.394 5.659-5.659 20.394 20.394zm-4.128-36.66 6.311-6.312c.044.046.083.096.128.142l20.125 20.125c.045.045.095.083.141.127l-6.311 6.311z"/></g></svg>