<svg xmlns="http://www.w3.org/2000/svg" viewBox="0 0 168.66 122.87"><title>logo</title><path d="M53.87,36.63,50.93,32.9v-.07A1.11,1.11,0,0,0,50.6,32l-1.71-1.68A1.27,1.27,0,0,0,48.6,29l-1.34-1.33A2.81,2.81,0,0,0,47,23.88l-2.54-2.5a.79.79,0,1,0-1.11,1.12L45.93,25a1.23,1.23,0,0,1,0,1.73l-4,4.05a1.23,1.23,0,0,1-1.73,0l-8.34-8.21a1.23,1.23,0,0,1,0-1.72l4-4.05a1.22,1.22,0,0,1,1.72,0l3.17,3.11a.79.79,0,1,0,1.11-1.12l-3.16-3.12a2.82,2.82,0,0,0-3.82-.11l-.47-.46.74-.75A2.21,2.21,0,1,0,32,11.25l-.74.75-1.09-1.07a1.27,1.27,0,0,0-1.43-.24L21.38,3.44A3.3,3.3,0,0,0,18.06,0a3.3,3.3,0,0,0-2.33,1h0a3.29,3.29,0,0,0-.93,2.63l-6,6.08a.79.79,0,0,0,0,1.12.78.78,0,0,0,1.12,0l5.47-5.56a3.26,3.26,0,0,0,.92.86L6.42,16.19,3.34,19.32a1.75,1.75,0,0,0,0,2.46l9.18,9a1.75,1.75,0,0,0,2.46,0L28.12,17.46l.9.88L15.89,31.67a3,3,0,0,1-4.24,0l-9.17-9a3,3,0,0,1,0-4.23l4.91-5a.8.8,0,0,0,0-1.12.78.78,0,0,0-1.12,0l-4.91,5a4.57,4.57,0,0,0,.05,6.48l9.17,9a4.58,4.58,0,0,0,6.48,0L30.14,19.45l.47.46a2.81,2.81,0,0,0,.17,3.81l8.34,8.21a2.81,2.81,0,0,0,3.77.15l1.35,1.33a1.27,1.27,0,0,0,1.39.26l1.71,1.68a1.1,1.1,0,0,0,.86.32L52,38.55a1.36,1.36,0,0,0,1.89-1.92ZM34,12.35a.63.63,0,0,1,0,.89l-.75.75-.89-.88.74-.75a.63.63,0,0,1,.89,0ZM16.88,4.53h0a1.72,1.72,0,1,1,2.43,0,1.72,1.72,0,0,1-2.43,0ZM20,6a3.42,3.42,0,0,0,.89-.89l6.74,6.64-.88.89ZM16.39,27.11l-2.52,2.57a.16.16,0,0,1-.22,0l-9.18-9a.16.16,0,0,1,0-.22L7,17.86l.65.64-.36.35a2,2,0,0,0,0,2.73l5.37,5.28a1.93,1.93,0,0,0,2.73,0l.35-.36Zm-5.67-9,5.36,5.29a.35.35,0,0,1,0,.49l-1.82,1.84a.35.35,0,0,1-.49,0L8.41,20.45a.36.36,0,0,1,0-.49l1.82-1.84A.36.36,0,0,1,10.72,18.11Zm11,3.6L17.5,26l-.64-.63.35-.36a1.93,1.93,0,0,0,0-2.73L11.83,17A1.93,1.93,0,0,0,9.1,17l-.35.36-.65-.63,4.21-4.28.64.63-.35.36a1.93,1.93,0,0,0,0,2.73L18,21.46a1.92,1.92,0,0,0,2.72,0l.36-.36Zm-5.68-9L21.4,18a.34.34,0,0,1,0,.48l-.9.93h0l-.9.92a.35.35,0,0,1-.49,0l-5.37-5.28a.35.35,0,0,1,0-.49l1.81-1.84a.35.35,0,0,1,.49,0Zm6.79,7.87L22.18,20l.35-.35a1.91,1.91,0,0,0,.55-1.37,1.87,1.87,0,0,0-.57-1.36l-5.37-5.28a1.93,1.93,0,0,0-2.73,0l-.35.36-.64-.64L18.08,6.6h.2l7.36,7.24a1.29,1.29,0,0,0,.26,1.44L27,16.35Zm4.42-6.21,2.06-2.09,4.47,4.41-2.05,2.09ZM44,31l2.14-2.18,1.13,1.11-2.15,2.18Zm2.8,1.65,1-1.05,1.3,1.28-1,1.06Zm2.73,2.09.08-.07.36-.37,1.55,2Z" fill="#b19455"/><path d="M9.71,89.62Q4.35,86.25,4.36,79.3a10.22,10.22,0,0,1,1.27-5.61,4.19,4.19,0,0,1,3.74-1.94,4.41,4.41,0,0,1,2.94.94,3,3,0,0,1,1.14,2.4,12.37,12.37,0,0,1-.2,2.34,6.92,6.92,0,0,1-.1.94,9,9,0,0,0-.1,1.4,4.75,4.75,0,0,0,3,4.48,20,20,0,0,0,8.52,1.47c3.78,0,6.75-.68,8.88-2A6.43,6.43,0,0,0,36.7,78a5.64,5.64,0,0,0-1.47-3.9,12,12,0,0,0-3.67-2.74q-2.2-1.11-6.22-2.71A70.32,70.32,0,0,1,17,64.8a17.43,17.43,0,0,1-5.55-4.91,12.56,12.56,0,0,1-2.3-7.72,14.69,14.69,0,0,1,2.57-8.55,16.66,16.66,0,0,1,7.42-5.81,28.78,28.78,0,0,1,11.39-2.07,26.71,26.71,0,0,1,9,1.43A14.56,14.56,0,0,1,46,41.55a10.94,10.94,0,0,1,2.44,7.21,12.72,12.72,0,0,1-1.27,6.35,4.4,4.4,0,0,1-6.65,1.07,3.33,3.33,0,0,1-1.17-2.54,12.29,12.29,0,0,1,.2-2.34c.13-1.33.2-2.18.2-2.54A4.62,4.62,0,0,0,37,44.49,14.31,14.31,0,0,0,30.15,43q-5.74,0-8.78,2.1a6.79,6.79,0,0,0-3,5.92,6.37,6.37,0,0,0,1.57,4.34,13.07,13.07,0,0,0,3.91,3q2.34,1.2,6.54,2.87A84.84,84.84,0,0,1,38.51,65a16.39,16.39,0,0,1,5.24,4.55,11.37,11.37,0,0,1,2.17,7.08q0,7.88-6,12.13T23.94,93Q15,93,9.71,89.62Z" fill="#b19455"/><path d="M87,72.82a4.63,4.63,0,0,1,.46,2.2c0,2.14-.64,3.41-1.93,3.81a30.57,30.57,0,0,1-8.82,1.61,16.66,16.66,0,0,1-5,9,12.32,12.32,0,0,1-8.48,3.38,11.88,11.88,0,0,1-6.85-1.94,12.36,12.36,0,0,1-4.31-5.14,16.5,16.5,0,0,1-1.47-7,20.31,20.31,0,0,1,1.94-9.06,15.19,15.19,0,0,1,5.34-6.21,13.48,13.48,0,0,1,7.55-2.24,10.4,10.4,0,0,1,8.19,3.51,15.05,15.05,0,0,1,3.64,8.65,40,40,0,0,0,7.48-1.34,4.47,4.47,0,0,1,.94-.13A1.47,1.47,0,0,1,87,72.82ZM67.47,84a9.66,9.66,0,0,0,2.11-5,9.29,9.29,0,0,1-3.18-3.68,10.94,10.94,0,0,1-1.1-4.81,12,12,0,0,1,.2-2.14h-.33a5.24,5.24,0,0,0-4.45,2.58C59.54,72.63,59,75.05,59,78.16a9.31,9.31,0,0,0,1.44,5.62,4.15,4.15,0,0,0,3.37,1.94A4.84,4.84,0,0,0,67.47,84Z" fill="#b19455"/><path d="M82.91,90.12c-.7-1.78-1-4.63-1-8.55a54.33,54.33,0,0,1,2.47-16.5,5,5,0,0,1,2-2.84,7,7,0,0,1,3.85-.9,3.81,3.81,0,0,1,1.87.33,1.39,1.39,0,0,1,.53,1.27,25.21,25.21,0,0,1-1,4.81c-.45,1.78-.8,3.34-1.07,4.68a47.28,47.28,0,0,0-.67,4.94,37.75,37.75,0,0,1,5-9.35,19.32,19.32,0,0,1,5.37-5.15A9.83,9.83,0,0,1,105,61.33c2.89,0,4.34,1.44,4.34,4.34a33.69,33.69,0,0,1-.6,4.21,23.77,23.77,0,0,0-.53,3.34c0,1.56.55,2.34,1.67,2.34s2.85-1,4.81-2.94a2.56,2.56,0,0,1,1.8-.87,1.56,1.56,0,0,1,1.37.77,3.63,3.63,0,0,1,.5,2A5.37,5.37,0,0,1,117,78.43a18.16,18.16,0,0,1-4.38,3.31,10.94,10.94,0,0,1-5.31,1.37,7.38,7.38,0,0,1-5.38-1.8,6.52,6.52,0,0,1-1.84-4.88,10.54,10.54,0,0,1,.2-2c.09-.89.14-1.49.14-1.8,0-.71-.25-1.07-.74-1.07-.67,0-1.55.75-2.64,2.24a31.43,31.43,0,0,0-3.24,5.91,48.32,48.32,0,0,0-2.61,7.75,10.4,10.4,0,0,1-1.7,4.25,3.87,3.87,0,0,1-3,1.1A3.64,3.64,0,0,1,82.91,90.12Z" fill="#b19455"/><path d="M113.31,90.12q-1-2.67-1-8.55a54.64,54.64,0,0,1,2.47-16.5,5,5,0,0,1,2-2.84,7,7,0,0,1,3.85-.9,3.81,3.81,0,0,1,1.87.33,1.39,1.39,0,0,1,.53,1.27,25.21,25.21,0,0,1-1,4.81c-.45,1.78-.8,3.34-1.07,4.68a47.28,47.28,0,0,0-.67,4.94,37.75,37.75,0,0,1,5-9.35,19.34,19.34,0,0,1,5.38-5.15,9.8,9.8,0,0,1,4.84-1.53c2.9,0,4.34,1.44,4.34,4.34a33.69,33.69,0,0,1-.6,4.21,25.5,25.5,0,0,0-.53,3.34c0,1.56.55,2.34,1.67,2.34s2.85-1,4.81-2.94a2.56,2.56,0,0,1,1.8-.87,1.56,1.56,0,0,1,1.37.77,3.63,3.63,0,0,1,.5,2,5.37,5.37,0,0,1-1.33,3.87A18.16,18.16,0,0,1,143,81.74a10.94,10.94,0,0,1-5.31,1.37,7.39,7.39,0,0,1-5.38-1.8,6.52,6.52,0,0,1-1.84-4.88,10.54,10.54,0,0,1,.2-2c.09-.89.14-1.49.14-1.8,0-.71-.25-1.07-.74-1.07-.67,0-1.55.75-2.64,2.24a31.43,31.43,0,0,0-3.24,5.91,47.33,47.33,0,0,0-2.6,7.75,10.38,10.38,0,0,1-1.71,4.25,3.85,3.85,0,0,1-3,1.1A3.64,3.64,0,0,1,113.31,90.12Z" fill="#b19455"/><path d="M168.06,61.73a1.47,1.47,0,0,1,.6,1.33q0,1.6-1.73,11.43-1.55,9.42-1.81,11.16-2.48,17.17-6.81,27.19t-11.56,10a7.6,7.6,0,0,1-5.55-2.11,7.41,7.41,0,0,1-2.14-5.51,15.89,15.89,0,0,1,1.44-6.42,29.07,29.07,0,0,1,5.35-7.51,87.58,87.58,0,0,1,11.06-9.72l.2-1.54q.46-2.48,1.06-7.08a16.9,16.9,0,0,1-3.74,7.31,7,7,0,0,1-5.08,2.51A5.75,5.75,0,0,1,144.44,90a11.9,11.9,0,0,1-1.9-6.91,53.71,53.71,0,0,1,2.87-18,5.56,5.56,0,0,1,1.87-2.87,6.6,6.6,0,0,1,3.81-.87,3.33,3.33,0,0,1,2,.46,1.73,1.73,0,0,1,.57,1.41,28.48,28.48,0,0,1-.74,3.61c-.44,1.64-.8,3.14-1.07,4.47q-.52,2.75-.93,5.25a26.68,26.68,0,0,0-.4,4.11c0,1.69.47,2.54,1.4,2.54.67,0,1.5-.67,2.51-2a29.08,29.08,0,0,0,3.2-6.08,81,81,0,0,0,3.31-10,5.19,5.19,0,0,1,1.64-2.87,5.28,5.28,0,0,1,3.31-.87A4,4,0,0,1,168.06,61.73Zm-16.83,50.78q2.07-3.87,4.14-12.9a38,38,0,0,0-7.45,7.92,12,12,0,0,0-2.31,6.25,3.62,3.62,0,0,0,.44,1.87,1.53,1.53,0,0,0,1.43.73C148.6,116.38,149.84,115.09,151.23,112.51Z" fill="#b19455"/><path d="M93.74,44A2.08,2.08,0,0,1,94,45.14a3.22,3.22,0,0,1-.65,2.11,12.73,12.73,0,0,1-3.47,3.14,7.22,7.22,0,0,1-3.67,1,4.9,4.9,0,0,1-4.54-3q-1.55-3-1.54-8.62a65.66,65.66,0,0,1,.78-9.25h-.07q-3.41,9.35-6.53,19.24a3,3,0,0,1-.85,1.47,2.31,2.31,0,0,1-1.46.4A2,2,0,0,1,69.89,50a37.76,37.76,0,0,1-1.32-6.51,61,61,0,0,1-.48-7.67c0-1.49,0-2.8.14-3.91h-.07q-1.34,6.81-2.4,10.63a17.93,17.93,0,0,1-3.08,6.37,6.77,6.77,0,0,1-8.41,1.79,5.49,5.49,0,0,1-2.13-2.06,5.55,5.55,0,0,1-.74-2.79,2.49,2.49,0,0,1,.54-1.68,1.91,1.91,0,0,1,1.53-.63,1.52,1.52,0,0,1,1.63,1.29,3.82,3.82,0,0,0,1,1.92,2.35,2.35,0,0,0,1.71.67c.86,0,1.7-.74,2.5-2.21a34.73,34.73,0,0,0,2.52-7.11q1.3-4.89,2.84-13A3.22,3.22,0,0,1,66.8,23a4.16,4.16,0,0,1,2.51-.63c1.86,0,2.72,1,2.59,3s-.17,3.67-.17,5.23a120.82,120.82,0,0,0,.81,12.92h.07a76.65,76.65,0,0,1,2.76-8.84q1.86-5.05,4-9.55a9.81,9.81,0,0,1,1-1.73,2.26,2.26,0,0,1,.91-.77,3.66,3.66,0,0,1,1.43-.22,3.14,3.14,0,0,1,2.2.7,2.2,2.2,0,0,1,.62,2q-.84,8.57-.85,13.36A25.88,25.88,0,0,0,85.26,45c.43,1.58,1.14,2.37,2.14,2.37a3.85,3.85,0,0,0,2.16-.7,14,14,0,0,0,2.57-2.53,1.12,1.12,0,0,1,.92-.48A.79.79,0,0,1,93.74,44Z" fill="#b19455"/><path d="M92.06,49.83a6.11,6.11,0,0,1-1.26-4,11,11,0,0,1,1.26-5.15,10.65,10.65,0,0,1,3.35-3.91,7.51,7.51,0,0,1,4.44-1.48,1.34,1.34,0,0,1,1,.29,2.4,2.4,0,0,1,.42,1,8.12,8.12,0,0,1,1.5-.14c1.11,0,1.67.4,1.67,1.19a25.4,25.4,0,0,1-.51,3.4,32.37,32.37,0,0,0-.79,5.44,1.26,1.26,0,0,0,.26.82.83.83,0,0,0,.66.3,2.64,2.64,0,0,0,1.57-.83,30.47,30.47,0,0,0,2.48-2.7,1.19,1.19,0,0,1,.92-.48.79.79,0,0,1,.69.41,2.08,2.08,0,0,1,.26,1.12,3.13,3.13,0,0,1-.65,2.11,17,17,0,0,1-3,2.92,5,5,0,0,1-3,1.19,3.17,3.17,0,0,1-2.06-.76,4.73,4.73,0,0,1-1.41-2.09q-1.77,2.85-4.45,2.85A4.14,4.14,0,0,1,92.06,49.83Zm6-2.79a5.72,5.72,0,0,0,1-2.34l1.26-6.26a4.09,4.09,0,0,0-2.63,1.07,7.12,7.12,0,0,0-1.92,2.74,9.11,9.11,0,0,0-.72,3.6,2.37,2.37,0,0,0,.43,1.57,1.43,1.43,0,0,0,1.17.51A1.88,1.88,0,0,0,98.08,47Z" fill="#b19455"/><path d="M134.68,44a2.09,2.09,0,0,1,.25,1.12,3.18,3.18,0,0,1-.64,2.14,19.86,19.86,0,0,1-3,3A5.2,5.2,0,0,1,128,51.36,2.75,2.75,0,0,1,125.41,50a8,8,0,0,1-.78-3.94,35.46,35.46,0,0,1,.55-5.61h-.07a25.4,25.4,0,0,0-1.6,3.3c-.5,1.22-1.05,2.67-1.67,4.35l-.57,1.53a2.77,2.77,0,0,1-.89,1.37,2.07,2.07,0,0,1-1.22.36,1.32,1.32,0,0,1-1.09-.41,3.69,3.69,0,0,1-.61-1.29,15.64,15.64,0,0,1-.51-2.8,31,31,0,0,1-.21-3.62,21,21,0,0,1,.11-2.15h-.07a50.72,50.72,0,0,1-1.67,5.43A9.33,9.33,0,0,1,112.9,50a4.88,4.88,0,0,1-3.53,1.35,3.3,3.3,0,0,1-2.78-1.26,5.06,5.06,0,0,1-1-3.16,4.9,4.9,0,0,1,.78-2.84,2.53,2.53,0,0,1,2.21-1.14c.9,0,1.36.31,1.36.92a.7.7,0,0,1,0,.27,16.5,16.5,0,0,0-.27,2.31c0,.77.17,1.16.51,1.16s.64-.23.95-.7a16.28,16.28,0,0,0,1.33-3q1.16-3.16,2.18-6.46a3,3,0,0,1,1-1.55,2.91,2.91,0,0,1,1.78-.49,3,3,0,0,1,1.58.37,1.32,1.32,0,0,1,.63,1.23c0,3.28.08,5.79.24,7.51h.07a31,31,0,0,1,1.8-4.45,15.76,15.76,0,0,1,1.94-3.3,5.24,5.24,0,0,1,1.31-1,3,3,0,0,1,1.48-.36,2.1,2.1,0,0,1,1.66.53,3.11,3.11,0,0,1,.45,2c0,.52,0,1,0,1.54s0,1-.07,1.41c-.09,1.68-.13,2.93-.13,3.74a8.26,8.26,0,0,0,.27,2.62,1,1,0,0,0,1,.68q1.37,0,3.43-3.57a1.08,1.08,0,0,1,.92-.61A.79.79,0,0,1,134.68,44Z" fill="#b19455"/><path d="M132.66,49.83a6.11,6.11,0,0,1-1.26-4,11,11,0,0,1,1.26-5.15A10.63,10.63,0,0,1,136,36.76a7.56,7.56,0,0,1,4.44-1.48,1.32,1.32,0,0,1,1,.29,2.39,2.39,0,0,1,.43,1,8,8,0,0,1,1.5-.14c1.11,0,1.66.4,1.66,1.19a25.4,25.4,0,0,1-.51,3.4,33.13,33.13,0,0,0-.78,5.44,1.25,1.25,0,0,0,.25.82.85.85,0,0,0,.67.3,2.59,2.59,0,0,0,1.56-.83,30.47,30.47,0,0,0,2.48-2.7,1.21,1.21,0,0,1,.92-.48.79.79,0,0,1,.7.41,2.09,2.09,0,0,1,.25,1.12,3.13,3.13,0,0,1-.64,2.11,17.32,17.32,0,0,1-3,2.92,5,5,0,0,1-3,1.19,3.16,3.16,0,0,1-2.05-.76,4.57,4.57,0,0,1-1.41-2.09A5.18,5.18,0,0,1,136,51.36,4.12,4.12,0,0,1,132.66,49.83Zm6-2.79a5.6,5.6,0,0,0,1-2.34l1.26-6.26a4.14,4.14,0,0,0-2.64,1.07,7.34,7.34,0,0,0-1.92,2.74,9.28,9.28,0,0,0-.71,3.6,2.43,2.43,0,0,0,.42,1.57,1.47,1.47,0,0,0,1.18.51A1.87,1.87,0,0,0,138.67,47Z" fill="#b19455"/><path d="M54.3,41.4a6.36,6.36,0,0,0-1-2.4,6.36,6.36,0,0,0-1,2.4c0,.88.27,1.6,1,1.6S54.3,42.28,54.3,41.4Z" fill="#b19455"/></svg>