<svg xmlns="http://www.w3.org/2000/svg" viewBox="0 0 256 256"><title>logo</title><path d="M13,76.44A126.29,126.29,0,0,0,14.61,183" fill="none" stroke="#b19455" stroke-linecap="round" stroke-miterlimit="10" stroke-width="4"/><path d="M241.39,183a126,126,0,0,0-183-160" fill="none" stroke="#b19455" stroke-linecap="round" stroke-miterlimit="10" stroke-width="4"/><path d="M74.28,242a126.24,126.24,0,0,0,107.44,0" fill="none" stroke="#b19455" stroke-linecap="round" stroke-miterlimit="10" stroke-width="4"/><path d="M88.62,230.34a3.77,3.77,0,0,0,4.51,6l11.45-6.55a3.09,3.09,0,0,0,2.49-.56l5.31-4a3.55,3.55,0,0,0,3.94-.22l4.2-3.17a7.81,7.81,0,0,0,10.44.95l26-19.57a7.8,7.8,0,0,0,1.85-10.44l1.46-1.1,31.3,41.51a12.75,12.75,0,0,0,17.83,2.5l28.57-21.54a12.72,12.72,0,0,0,2.5-17.83l-11.71-15.54a2.2,2.2,0,0,0-3.52,2.65l11.72,15.54a8.35,8.35,0,0,1-1.64,11.67l-28.57,21.54a8.34,8.34,0,0,1-11.66-1.64L163.74,189l2.8-2.11,31.3,41.51a4.83,4.83,0,0,0,6.77.95l28.57-21.54a4.84,4.84,0,0,0,.94-6.77l-7.34-9.74-23.67-31.39a9.32,9.32,0,0,0,2.86-2L219,175.21a2.2,2.2,0,1,0,3.51-2.65l-14.27-18.93a9.19,9.19,0,0,0-1.61-7.61h0a9.18,9.18,0,0,0-16.47,4.72L167.27,168a3.52,3.52,0,0,0-4,.13l-3.38,2.55-1.77-2.34a6.15,6.15,0,0,0-9.82,7.4l1.77,2.35-1.46,1.09A7.81,7.81,0,0,0,138,178.13l-9.84,7.42a2.2,2.2,0,0,0,2.64,3.52l9.85-7.43a3.39,3.39,0,0,1,4.75.67l9.51,12.61a3.41,3.41,0,0,1-.66,4.76l-26,19.57a3.41,3.41,0,0,1-4.76-.66C123.34,218.3,114,206,114,206a3.4,3.4,0,0,1,.67-4.75l7.92-6a2.2,2.2,0,0,0-2.65-3.51l-7.92,6a7.81,7.81,0,0,0-2,10.29l-4.19,3.17a3.55,3.55,0,0,0-1.31,3.72l-5.31,4a3.07,3.07,0,0,0-1.2,2c0,.07,0,.13,0,.2l-9.45,9.2Zm63.5-59.67a1.75,1.75,0,0,1,2.45.35l1.76,2.34-2.79,2.11-1.77-2.35a1.75,1.75,0,0,1,.35-2.45Zm50.08-15.3a4.78,4.78,0,1,1,1-6.7,4.77,4.77,0,0,1-1,6.7h0Zm-30,18.84-2.11-2.8,21-15.83a9.28,9.28,0,0,0,2.1,2.79Zm25.14,42.06.84,1.11a5.36,5.36,0,0,0,7.5,1.06l16.72-12.6a5.37,5.37,0,0,0,1.05-7.51l-.84-1.12,2-1.5,6,8a.45.45,0,0,1-.08.61L202,225.84a.45.45,0,0,1-.61-.08l-6-8Zm18.26-21,4.34,5.75a1,1,0,0,1-.19,1.34L203,214.92a1,1,0,0,1-1.35-.18L197.35,209a1,1,0,0,1,.19-1.34L214.25,195A1,1,0,0,1,215.59,195.23Zm-30.94,4.22.84,1.12a5.36,5.36,0,0,0,7.5,1.05L209.71,189a5.38,5.38,0,0,0,1-7.51l-.84-1.11,2-1.51,10,13.31-2,1.5-.84-1.12a5.38,5.38,0,0,0-7.51-1.05l-16.71,12.6a5.37,5.37,0,0,0-1,7.51l.84,1.12-2,1.5-10-13.3Zm16.92-21.22a1,1,0,0,1,1.34.19l4.34,5.74a1,1,0,0,1-.19,1.35l-16.71,12.6a1,1,0,0,1-1.35-.19l-2.16-2.87h0l-2.16-2.87a.93.93,0,0,1-.18-.71.91.91,0,0,1,.37-.63l16.71-12.6Zm-31.52,6,3.38-2.55a3.48,3.48,0,0,0,1.24-3.84l22.93-17.3a5.25,5.25,0,0,0,.55.09l11.11,14.74-2,1.5-.84-1.11a5.37,5.37,0,0,0-7.51-1.05l-16.71,12.6a5.35,5.35,0,0,0-1.05,7.5l.84,1.12-2,1.5Zm-13.91,5-4.9-6.51,13.93-10.51,4.91,6.51ZM114.35,221l-5.12-6.79,3.49-2.64,5.12,6.79Zm-8.89,3.95L103,221.62l4.06-3.05,2.48,3.29Zm-10.24,5.15,5-4.84.87,1.16.17.23Z" fill="#b19455"/><path d="M167.38,230.34l-9.45-9.2c0-.07,0-.13,0-.2a3.07,3.07,0,0,0-1.2-2l-5.31-4a3.55,3.55,0,0,0-1.31-3.72L145.9,208a7.81,7.81,0,0,0-2-10.29l-7.92-6a2.2,2.2,0,1,0-2.65,3.51l7.92,6A3.4,3.4,0,0,1,142,206s-9.3,12.33-9.51,12.62a3.41,3.41,0,0,1-4.76.66l-26-19.57a3.41,3.41,0,0,1-.66-4.76l9.51-12.61a3.39,3.39,0,0,1,4.75-.67l9.85,7.43a2.2,2.2,0,1,0,2.64-3.52L118,178.13a7.81,7.81,0,0,0-10.55,1.08L106,178.12l1.77-2.35a6.15,6.15,0,1,0-9.82-7.4l-1.77,2.34-3.38-2.55a3.52,3.52,0,0,0-4-.13L65.81,150.74A9.18,9.18,0,0,0,49.34,146h0a9.19,9.19,0,0,0-1.61,7.61L33.46,172.56A2.2,2.2,0,0,0,37,175.21L50,157.89a9.32,9.32,0,0,0,2.86,2L29.22,191.3,21.88,201a4.84,4.84,0,0,0,.94,6.77l28.57,21.54a4.83,4.83,0,0,0,6.77-.95l31.3-41.51,2.8,2.11L61,230.51a8.34,8.34,0,0,1-11.66,1.64L20.72,210.61a8.35,8.35,0,0,1-1.64-11.67L30.8,183.4a2.2,2.2,0,0,0-3.52-2.65L15.57,196.29a12.72,12.72,0,0,0,2.5,17.83l28.57,21.54a12.75,12.75,0,0,0,17.83-2.5l31.3-41.51,1.46,1.1a7.8,7.8,0,0,0,1.85,10.44l26,19.57a7.81,7.81,0,0,0,10.44-.95l4.2,3.17a3.55,3.55,0,0,0,3.94.22l5.31,4a3.09,3.09,0,0,0,2.49.56l11.45,6.55a3.77,3.77,0,0,0,4.51-6Zm-63.5-59.67a1.75,1.75,0,0,1,.35,2.45l-1.77,2.35-2.79-2.11,1.76-2.34a1.75,1.75,0,0,1,2.45-.35ZM53.8,155.37h0a4.78,4.78,0,1,1,6.7-.94,4.79,4.79,0,0,1-6.7.94Zm9,3a9.28,9.28,0,0,0,2.1-2.79l21,15.83-2.11,2.8Zm-2.14,59.4-6,8a.45.45,0,0,1-.61.08L25.47,204.3a.45.45,0,0,1-.08-.61l6-8,2,1.5-.84,1.12a5.37,5.37,0,0,0,1,7.51l16.72,12.6a5.36,5.36,0,0,0,7.5-1.06l.84-1.11ZM41.75,195l16.71,12.61a1,1,0,0,1,.19,1.34l-4.33,5.75a1,1,0,0,1-1.35.18l-16.71-12.6a1,1,0,0,1-.19-1.34l4.34-5.75A1,1,0,0,1,41.75,195ZM73.35,201l-10,13.3-2-1.5.84-1.12a5.37,5.37,0,0,0-1-7.51L44.4,191.53a5.38,5.38,0,0,0-7.51,1.05l-.84,1.12-2-1.5,10-13.31,2,1.51-.84,1.11a5.38,5.38,0,0,0,1,7.51L63,201.62a5.36,5.36,0,0,0,7.5-1.05l.84-1.12ZM54.43,178.23l16.71,12.6a.91.91,0,0,1,.37.63.93.93,0,0,1-.18.71L69.17,195h0L67,197.92a1,1,0,0,1-1.35.19l-16.71-12.6a1,1,0,0,1-.19-1.35l4.34-5.74a1,1,0,0,1,1.34-.19ZM76,197.44l-2-1.5.84-1.12a5.35,5.35,0,0,0-1-7.5l-16.71-12.6a5.37,5.37,0,0,0-7.51,1.05l-.84,1.11-2-1.5,11.11-14.74a5.25,5.25,0,0,0,.55-.09l22.93,17.3a3.48,3.48,0,0,0,1.24,3.84L86,184.24Zm9.92-18.73,4.91-6.51,13.93,10.51-4.9,6.51Zm52.24,39.61,5.12-6.79,3.49,2.64L141.65,221Zm8.32,3.54,2.48-3.29,4.06,3.05-2.48,3.29Zm8.29,4.75.17-.23.87-1.16,5,4.84Z" fill="#b19455"/><path d="M40.79,111.13a11.35,11.35,0,0,1-4.36.12,8.06,8.06,0,0,1-3.61-1.63A11.36,11.36,0,0,1,30,106.11a14.38,14.38,0,0,1-1.37-3.46,9.23,9.23,0,0,1-.21-3.29,8.09,8.09,0,0,1,1-3,9.89,9.89,0,0,1,2.17-2.66,6.71,6.71,0,0,1,3.75-1.92,2.26,2.26,0,0,1,2.43,1.37,12,12,0,0,1,.89,2.55,6.9,6.9,0,0,1,.34,1,8.6,8.6,0,0,0,.56,1.51,3.55,3.55,0,0,0,2.07,2,5.69,5.69,0,0,0,3.31-.08A17.61,17.61,0,0,0,47.71,99,35,35,0,0,0,51,97.28q1.74-1.05,3.74-2.4c1.38-.94,2.63-1.86,3.77-2.78a33.18,33.18,0,0,0,3-2.77,22.35,22.35,0,0,0,2.31-2.82,12,12,0,0,0,1.9-4.23,8.22,8.22,0,0,0-.17-4.12,4.84,4.84,0,0,0-3.07-3.39A10.35,10.35,0,0,0,60,74.22a14,14,0,0,0-2.87.06c-1,.12-2.24.32-3.66.61s-3,.67-4.85,1.18l-4.4,1.27-3.89,1.11c-1.21.33-2.33.63-3.37.89a25.05,25.05,0,0,1-4.57.69A19.84,19.84,0,0,1,28,79.76a8.34,8.34,0,0,1-3.79-1.67,10.44,10.44,0,0,1-2.82-3.58,14,14,0,0,1-1.2-3.38,16.7,16.7,0,0,1-.34-3.8,22.23,22.23,0,0,1,.55-4.2,26.5,26.5,0,0,1,1-3.35,30.93,30.93,0,0,1,1.52-3.44,37.75,37.75,0,0,1,2-3.51c.77-1.17,1.62-2.36,2.57-3.54s2-2.35,3.07-3.49,2.27-2.26,3.52-3.35,2.58-2.14,4-3.16,2.88-2,4.43-2.94a51.72,51.72,0,0,1,4.57-2.48,43.93,43.93,0,0,1,4.45-1.82,33.63,33.63,0,0,1,4.31-1.2,23.61,23.61,0,0,1,4-.52,17.81,17.81,0,0,1,3.56.21,13.85,13.85,0,0,1,3.11.9A8.85,8.85,0,0,1,70,34.09a10.39,10.39,0,0,1,1.88,4.16,19.11,19.11,0,0,1,.53,4.4,10.68,10.68,0,0,1-.59,3.57,7.72,7.72,0,0,1-1.67,2.72,8.82,8.82,0,0,1-2.74,1.88,6.42,6.42,0,0,1-4.18.62,2.92,2.92,0,0,1-2.35-2.07,15.49,15.49,0,0,1-.47-2.76,19.28,19.28,0,0,0-.53-3,3.64,3.64,0,0,0-1.73-2.3,6,6,0,0,0-3.44-.53,16.1,16.1,0,0,0-3,.57,25,25,0,0,0-3.32,1.24,35.76,35.76,0,0,0-3.6,1.93c-1.31.8-2.53,1.63-3.65,2.46a36.63,36.63,0,0,0-3,2.54,27.87,27.87,0,0,0-2.46,2.57,21.49,21.49,0,0,0-1.86,2.57,13.06,13.06,0,0,0-1.89,4.85,7.64,7.64,0,0,0,.52,4.26,4.76,4.76,0,0,0,3.92,3,14.06,14.06,0,0,0,2.93.12,21,21,0,0,0,3.26-.47c1.15-.25,2.5-.57,4.07-1s3.34-.84,5.31-1.3c1.59-.37,3.09-.65,4.48-.88s2.68-.41,3.87-.53,2.27-.19,3.25-.22a16.17,16.17,0,0,1,4.22.43,14.51,14.51,0,0,1,3.77,1.51,8.82,8.82,0,0,1,2.93,2.74,12.87,12.87,0,0,1,1.74,4.12,20.71,20.71,0,0,1,.58,4.42,19.11,19.11,0,0,1-.4,4.28A20.85,20.85,0,0,1,75,84.23a27.06,27.06,0,0,1-2.23,4c-.72,1.08-1.5,2.12-2.34,3.15s-1.76,2-2.75,3-2,2-3.15,2.92-2.3,1.92-3.56,2.87-2.58,1.91-4,2.87-3,2-4.48,2.92-2.82,1.65-4.17,2.33a35.69,35.69,0,0,1-3.9,1.71A24.16,24.16,0,0,1,40.79,111.13Z" fill="#b19455"/><path d="M127.87,56a5.21,5.21,0,0,1,.6,2.64,6.57,6.57,0,0,1-.62,3,3,3,0,0,1-1.8,1.51c-1.1.39-2.23.74-3.4,1.06s-2.37.6-3.61.85-2.51.46-3.82.65a26.9,26.9,0,0,1-1.1,4.31,22.79,22.79,0,0,1-1.75,3.81A21.82,21.82,0,0,1,110,77.25,20.51,20.51,0,0,1,107.2,80a16.73,16.73,0,0,1-3.1,2,16.07,16.07,0,0,1-3.41,1.21,17,17,0,0,1-4.3.52A12.12,12.12,0,0,1,92.56,83a13.08,13.08,0,0,1-3.33-1.7,13.34,13.34,0,0,1-2.75-2.62,16.93,16.93,0,0,1-2.08-3.39,18.4,18.4,0,0,1-1.31-4,25.94,25.94,0,0,1-.52-3.85,22.55,22.55,0,0,1,.08-3.77A22.14,22.14,0,0,1,83.36,60a21,21,0,0,1,1.31-3.48,20.2,20.2,0,0,1,4.29-6,19.93,19.93,0,0,1,2.89-2.33,19.7,19.7,0,0,1,3.23-1.74,19.94,19.94,0,0,1,3.56-1.12A17.24,17.24,0,0,1,103,45a12.59,12.59,0,0,1,3.8.77A11.6,11.6,0,0,1,110,47.61a14.29,14.29,0,0,1,2.57,2.71,14.53,14.53,0,0,1,1.8,3.26,18.05,18.05,0,0,1,1,3.79c1.33-.21,2.78-.5,4.37-.87s3.3-.81,5.16-1.3a5.45,5.45,0,0,1,1.2-.19A1.86,1.86,0,0,1,127.87,56ZM104.36,71.67a10.41,10.41,0,0,0,1.31-2.81,16.25,16.25,0,0,0,.62-3.59,11.35,11.35,0,0,1-2.46-1.51,10.55,10.55,0,0,1-2-2.1,11.76,11.76,0,0,1-1.37-2.54,11.48,11.48,0,0,1-.71-2.84,13,13,0,0,1,0-2.58l-.43.1a7.09,7.09,0,0,0-3.07,1.48A9,9,0,0,0,94,58.2a11.65,11.65,0,0,0-1.12,4.08,19.73,19.73,0,0,0,.23,5,14.06,14.06,0,0,0,1,3.67,7.25,7.25,0,0,0,1.72,2.43,4.68,4.68,0,0,0,4.33,1.27,6.19,6.19,0,0,0,2.29-1A7.43,7.43,0,0,0,104.36,71.67Z" fill="#b19455"/><path d="M123.79,76.8a15.6,15.6,0,0,1-.73-2.53,31.93,31.93,0,0,1-.49-3.39c-.12-1.27-.21-2.69-.25-4.25,0-1.38,0-2.75,0-4.11s.14-2.71.27-4,.32-2.66.55-4,.5-2.61.82-3.9.7-2.55,1.13-3.81a5.94,5.94,0,0,1,2.62-3.42,7.14,7.14,0,0,1,2.23-.8,13.88,13.88,0,0,1,3-.19,5.52,5.52,0,0,1,2.52.51,1.63,1.63,0,0,1,.68,1.56,10.58,10.58,0,0,1-.41,2.06c-.25.94-.64,2.16-1.11,3.61-.32,1-.61,2-.86,3s-.48,1.78-.66,2.57-.37,1.68-.53,2.66-.31,2-.44,3.22c.64-1.51,1.32-2.91,2-4.22a36.28,36.28,0,0,1,2.23-3.6,27.66,27.66,0,0,1,2.43-3,26.41,26.41,0,0,1,3.79-3.35,16.08,16.08,0,0,1,3.73-2,15.45,15.45,0,0,1,3.52-.87,10.69,10.69,0,0,1,3.16.08,6.86,6.86,0,0,1,4.23,2.16,5.27,5.27,0,0,1,1,4.16,32.7,32.7,0,0,1-1.41,4.78,28.54,28.54,0,0,0-1.18,3.8c-.22,1.84.36,2.9,1.75,3.22a5.53,5.53,0,0,0,2.79-.21,19,19,0,0,0,3.75-1.68,3.11,3.11,0,0,1,2.45-.36,2.4,2.4,0,0,1,1.57,1.43,4.53,4.53,0,0,1,.2,2.57,5.45,5.45,0,0,1-2.45,4,20.43,20.43,0,0,1-2.82,1.37,26.14,26.14,0,0,1-3.1,1,14.69,14.69,0,0,1-3.27.44,15.94,15.94,0,0,1-3.34-.32,14.39,14.39,0,0,1-3.69-1.26,8.19,8.19,0,0,1-2.6-2,7.82,7.82,0,0,1-1.48-2.77,9.12,9.12,0,0,1-.31-3.35,14.79,14.79,0,0,1,.43-2.35,13.21,13.21,0,0,0,.34-2.12c.06-.85-.22-1.32-.85-1.4-.86-.11-2.06.63-3.55,2.27a22.64,22.64,0,0,0-2.23,2.9A40.22,40.22,0,0,0,137,64.59,46.79,46.79,0,0,0,135.09,69a48.21,48.21,0,0,0-1.51,4.68,25.4,25.4,0,0,1-1,3.11,7,7,0,0,1-1.1,1.89A4.45,4.45,0,0,1,128,79.92a4,4,0,0,1-2.49-.77A5.42,5.42,0,0,1,123.79,76.8Z" fill="#b19455"/><path d="M159.77,81a15.55,15.55,0,0,1-.28-2.68,32.35,32.35,0,0,1,.1-3.45c.1-1.28.26-2.68.49-4.22.25-1.69.56-3.35.94-5s.81-3.21,1.32-4.75,1.08-3,1.72-4.5a45.36,45.36,0,0,1,2.15-4.23,4.94,4.94,0,0,1,3.16-2.54,6.48,6.48,0,0,1,2.32-.09,13.89,13.89,0,0,1,3,.72A6.53,6.53,0,0,1,177,51.59a1.83,1.83,0,0,1,.39,1.73,9.82,9.82,0,0,1-.75,1.88c-.41.84-1,1.9-1.71,3.18-.5.91-.95,1.79-1.35,2.61s-.78,1.59-1.1,2.3-.64,1.52-1,2.43-.66,1.9-1,3a41.07,41.07,0,0,1,2.72-3.49,29.94,29.94,0,0,1,2.81-2.82,22.45,22.45,0,0,1,2.9-2.16,21.15,21.15,0,0,1,4.3-2.09,13.88,13.88,0,0,1,4-.81,15,15,0,0,1,3.61.25A11.53,11.53,0,0,1,194,58.66a8.43,8.43,0,0,1,3.8,3.42,5.54,5.54,0,0,1,.23,4.36,28.12,28.12,0,0,1-2.22,4.21A24.18,24.18,0,0,0,194,74c-.54,1.72-.15,2.94,1.17,3.69a5.86,5.86,0,0,0,2.79.68,17.25,17.25,0,0,0,4-.46,3.15,3.15,0,0,1,2.48.44,3,3,0,0,1,1.31,1.89,4.37,4.37,0,0,1-.24,2.57,4.5,4.5,0,0,1-3.11,3.11,19.43,19.43,0,0,1-3,.44,25.1,25.1,0,0,1-3.24,0,14.86,14.86,0,0,1-3.3-.6,17.31,17.31,0,0,1-3.24-1.36A17.1,17.1,0,0,1,186.2,82,10.19,10.19,0,0,1,184,79.18,8.92,8.92,0,0,1,183,76a9.25,9.25,0,0,1,.26-3.36,13.85,13.85,0,0,1,.84-2.16,11.49,11.49,0,0,0,.69-2c.21-.8,0-1.35-.59-1.62-.82-.38-2.13,0-3.88,1.11a20.1,20.1,0,0,0-2.69,2.14,33.65,33.65,0,0,0-2.8,3,39.66,39.66,0,0,0-2.66,3.68A42.6,42.6,0,0,0,169.89,81a20.94,20.94,0,0,1-1.53,2.71A5.62,5.62,0,0,1,167,85.18a4.19,4.19,0,0,1-3.66.16A4.8,4.8,0,0,1,161,83.83,6.28,6.28,0,0,1,159.77,81Z" fill="#b19455"/><path d="M234.63,88.45a2.06,2.06,0,0,1,0,2,13.3,13.3,0,0,1-1.27,1.7c-.65.8-1.54,1.82-2.65,3.07s-2.48,2.75-4,4.49-2.71,3.17-3.75,4.42-1.89,2.28-2.54,3.08-1.1,1.35-1.36,1.68q-1.87,2.43-3.68,4.66t-3.54,4.22c-1.16,1.34-2.28,2.61-3.39,3.81s-2.18,2.33-3.23,3.39-2.08,2.06-3.09,3-2,1.77-2.94,2.56a26.8,26.8,0,0,1-4.11,2.84,13.93,13.93,0,0,1-3.76,1.45,8.65,8.65,0,0,1-3.47.05,9.21,9.21,0,0,1-3.23-1.35,10.21,10.21,0,0,1-2.5-2.3,10.1,10.1,0,0,1-1.59-3,10.75,10.75,0,0,1-.58-3.5,12,12,0,0,1,.59-3.67,16.49,16.49,0,0,1,1.46-3.3,16.7,16.7,0,0,1,2.2-3,15.84,15.84,0,0,1,3.3-2.64,25.82,25.82,0,0,1,4.82-2.27,29.12,29.12,0,0,1,3.05-.92c1.11-.27,2.3-.51,3.58-.7s2.65-.34,4.11-.43,3-.13,4.66-.09l.91-1.42c.54-.71,1.18-1.6,1.92-2.66s1.57-2.29,2.5-3.68a18.69,18.69,0,0,1-3.67,3,10.83,10.83,0,0,1-3.63,1.45,8.93,8.93,0,0,1-3.41,0,7.74,7.74,0,0,1-3-1.26,9.31,9.31,0,0,1-2.59-2.68,11.56,11.56,0,0,1-1.52-3.74,15.4,15.4,0,0,1-.37-4.34,16.66,16.66,0,0,1,.89-4.45c.42-1.21.85-2.37,1.3-3.48s.92-2.17,1.41-3.17,1-2,1.51-2.86a40.7,40.7,0,0,1,2.69-4A42.77,42.77,0,0,1,206,70.47a4.58,4.58,0,0,1,3.45-1.58,5.79,5.79,0,0,1,2.19.61,17.35,17.35,0,0,1,2.88,1.71,7.25,7.25,0,0,1,2.29,2.31,2.3,2.3,0,0,1,.08,2,19.09,19.09,0,0,1-2.47,3.11c-1.2,1.33-2.32,2.59-3.2,3.76-.6.81-1.18,1.61-1.73,2.4s-1.09,1.58-1.59,2.35a22.86,22.86,0,0,0-2.2,4c-.71,1.79-.55,3,.47,3.78.73.53,1.93.5,3.63,0a16.26,16.26,0,0,0,2.85-1.29c1.05-.58,2.21-1.32,3.48-2.19.85-.59,1.73-1.24,2.64-2s1.86-1.5,2.85-2.35,2-1.76,3.06-2.74A3.9,3.9,0,0,1,228,83.1a5.43,5.43,0,0,1,2,.79,14.92,14.92,0,0,1,2.37,1.83A9.87,9.87,0,0,1,234.63,88.45Zm-41.74,36.76a25.89,25.89,0,0,0,2.65-2.38q1.46-1.48,3.19-3.52c1.16-1.35,2.42-2.9,3.77-4.62a32.35,32.35,0,0,0-4.3.63,23.54,23.54,0,0,0-3.54,1.06,15.89,15.89,0,0,0-2.8,1.4,13.35,13.35,0,0,0-3,2.49,8.61,8.61,0,0,0-1.69,2.76,5.24,5.24,0,0,0-.33,2.27,2.07,2.07,0,0,0,3,1.71A11.81,11.81,0,0,0,192.89,125.21Z" fill="#b19455"/><path d="M114.31,114.92a3,3,0,0,1,.36,1.4,4.74,4.74,0,0,1-.55,2.73,24.4,24.4,0,0,1-1.69,2.57,12.78,12.78,0,0,1-1.66,1.84,7.52,7.52,0,0,1-3.66,1.83,4.28,4.28,0,0,1-2.81-.4,6.69,6.69,0,0,1-2.37-2.35,15.7,15.7,0,0,1-1.33-2.63,27.35,27.35,0,0,1-1.11-3.44c-.34-1.29-.63-2.71-.88-4.27-.17-1.07-.32-2.23-.44-3.45s-.23-2.54-.3-3.92-.13-2.85-.14-4.39l-.09,0c-.25,1.41-.5,2.82-.72,4.24s-.44,2.85-.64,4.28-.38,2.87-.55,4.31-.32,2.89-.45,4.35-.26,2.9-.37,4.37-.2,2.92-.28,4.39a4.67,4.67,0,0,1-.49,2.09,2.48,2.48,0,0,1-1.35,1c-1.09.39-1.94,0-2.58-1.2-.53-1-1.1-2.1-1.65-3.33s-1.11-2.57-1.66-4-1.07-3-1.54-4.46-.92-3-1.32-4.61c-.46-1.81-.81-3.4-1-4.79l-.08,0c.12,2,.23,3.8.32,5.49s.18,3.23.24,4.64.11,2.68.14,3.82a37.2,37.2,0,0,1-.2,4.81,28.39,28.39,0,0,1-.8,4.27,10.16,10.16,0,0,1-1.6,3.41,8.21,8.21,0,0,1-2.61,2.29,6.24,6.24,0,0,1-3.34.87,5.13,5.13,0,0,1-3-1.08,6.3,6.3,0,0,1-2-2.69,3.66,3.66,0,0,1-.21-2.26A2.68,2.68,0,0,1,71.18,129a1.45,1.45,0,0,1,2.21.48,4,4,0,0,0,1.81,1.63,2.28,2.28,0,0,0,2-.2c.86-.47,1.4-1.78,1.67-3.94a34.22,34.22,0,0,0,.22-4.06c0-1.62,0-3.51-.14-5.68,0-1.09-.11-2.26-.19-3.51s-.16-2.59-.26-4-.2-2.93-.32-4.51-.24-3.26-.38-5a4.71,4.71,0,0,1,.7-3.16,6.31,6.31,0,0,1,3-2,3.13,3.13,0,0,1,2.77-.08,3.26,3.26,0,0,1,1.29,2.46c.19,1.2.39,2.35.6,3.43s.41,2.09.63,3c.25,1.12.53,2.29.85,3.49s.65,2.45,1,3.74.77,2.62,1.2,4,.87,2.79,1.35,4.25l.07,0c0-1.1,0-2.27.06-3.52s.14-2.57.27-4,.29-2.86.5-4.4.45-3.06.72-4.56.56-3,.89-4.41.68-2.87,1.06-4.27a13.51,13.51,0,0,1,.86-2.47,3.39,3.39,0,0,1,1-1.25,5.14,5.14,0,0,1,1.8-.7,3.84,3.84,0,0,1,2.93.27,2.58,2.58,0,0,1,1.1,2.35c0,1.83.08,3.55.15,5.17s.14,3.14.22,4.56.19,2.73.3,3.94.22,2.31.35,3.31c.22,1.75.47,3.3.76,4.65a25,25,0,0,0,1,3.43c.7,1.89,1.57,2.74,2.63,2.56a4,4,0,0,0,2.21-1.23,19.81,19.81,0,0,0,2.53-3.56,1.23,1.23,0,0,1,1-.7A.8.8,0,0,1,114.31,114.92Z" fill="#b19455"/><path d="M113.29,122.43a7.17,7.17,0,0,1-1.15-2.12,11.39,11.39,0,0,1-.55-2.8,16.63,16.63,0,0,1,.1-3.39,14.57,14.57,0,0,1,.83-3.29,14.31,14.31,0,0,1,1.49-3,12,12,0,0,1,2.08-2.35,8.86,8.86,0,0,1,2.47-1.55,7.28,7.28,0,0,1,2.68-.54,1.49,1.49,0,0,1,1.19.35,3.26,3.26,0,0,1,.5,1.32,7.66,7.66,0,0,1,1.75-.15c1.3,0,1.94.56,1.91,1.56a34.35,34.35,0,0,1-.68,4.3c-.32,1.64-.57,3.05-.73,4.2a23.14,23.14,0,0,0-.25,2.69,1.76,1.76,0,0,0,.26,1.05.85.85,0,0,0,.7.41,2.71,2.71,0,0,0,1.7-1c.68-.67,1.61-1.76,2.83-3.24a1.22,1.22,0,0,1,1-.52.89.89,0,0,1,.74.59,3.13,3.13,0,0,1,.19,1.45,4.38,4.38,0,0,1-.87,2.6,22.91,22.91,0,0,1-3.3,3.46,4.89,4.89,0,0,1-3.17,1.38,3,3,0,0,1-2.12-1,6.33,6.33,0,0,1-1.49-2.65,8.58,8.58,0,0,1-2,2.78,4.31,4.31,0,0,1-2.51,1A4,4,0,0,1,113.29,122.43Zm6.2-4a8.29,8.29,0,0,0,1-3c.25-1.59.45-2.79.65-4s.4-2.39.68-4a4.35,4.35,0,0,0-3,1.44,8.9,8.9,0,0,0-2,3.59,12.72,12.72,0,0,0-.59,4.62,3.45,3.45,0,0,0,.54,2,1.42,1.42,0,0,0,1.27.57C118.53,119.6,119,119.21,119.49,118.44Z" fill="#b19455"/><path d="M159.5,122a3,3,0,0,1-.08,1.47,3.9,3.9,0,0,1-1.34,2.31,23.86,23.86,0,0,1-4,2.37,4.73,4.73,0,0,1-3.57.23,3.3,3.3,0,0,1-2.29-2.5,8.43,8.43,0,0,1-.23-2.24,17.85,17.85,0,0,1,.3-2.89c.16-.92.4-2,.7-3.08s.68-2.37,1.14-3.7l-.08,0a26.83,26.83,0,0,0-2.47,3.6c-.4.68-.82,1.44-1.26,2.26s-.91,1.72-1.39,2.69l-.9,1.76a3.39,3.39,0,0,1-1.16,1.5,1.83,1.83,0,0,1-1.31.16,1.41,1.41,0,0,1-1.05-.75,6,6,0,0,1-.42-1.75,27.15,27.15,0,0,1-.11-3.63c0-1.52.14-3.05.32-4.59.11-.94.25-1.83.43-2.67l-.08,0c-.48,1.32-.93,2.53-1.36,3.61s-.84,2-1.22,2.89a12.48,12.48,0,0,1-2.75,4,4.62,4.62,0,0,1-3.79,1.25,3.43,3.43,0,0,1-2.78-1.84,7.56,7.56,0,0,1-.87-4.08,6.79,6.79,0,0,1,1-3.55,2.56,2.56,0,0,1,2.51-1.25c1,.09,1.48.54,1.43,1.31a1.23,1.23,0,0,1-.06.34,24,24,0,0,0-.49,2.9c-.06,1,.09,1.48.45,1.52s.69-.21,1.08-.76a25,25,0,0,0,1.74-3.66l1.61-3.86c.53-1.29,1.07-2.6,1.6-3.92a3.41,3.41,0,0,1,1.37-1.75,3,3,0,0,1,2.16-.23,3.46,3.46,0,0,1,1.78.85,1.84,1.84,0,0,1,.52,1.7c-.28,2.05-.52,3.87-.69,5.45s-.3,2.91-.36,4l.07,0a26.6,26.6,0,0,1,1.18-2.42c.47-.85,1-1.74,1.63-2.67a15.82,15.82,0,0,1,2.87-3.53A5.37,5.37,0,0,1,151,108a3.24,3.24,0,0,1,1.79.08,2.72,2.72,0,0,1,1.79,1.26,4.39,4.39,0,0,1,0,2.58c-.13.64-.28,1.27-.43,1.88s-.3,1.19-.44,1.71c-.53,2-.89,3.55-1.1,4.55a12.3,12.3,0,0,0-.38,3.31,1.3,1.3,0,0,0,.88,1.2,2.18,2.18,0,0,0,1.84-.51,17.48,17.48,0,0,0,2.76-2.5,1,1,0,0,1,1.16-.35A1.06,1.06,0,0,1,159.5,122Z" fill="#b19455"/><path d="M156,128.32a8.33,8.33,0,0,1-.44-2.52,11.22,11.22,0,0,1,.31-2.86,14.76,14.76,0,0,1,1.09-3.1,12.4,12.4,0,0,1,1.76-2.64,10.41,10.41,0,0,1,2.27-2,9.18,9.18,0,0,1,2.64-1.17,7.49,7.49,0,0,1,5.47.56,1.87,1.87,0,0,1,1,.91,3.51,3.51,0,0,1,.09,1.46,9.31,9.31,0,0,1,1.69.72c1.22.66,1.67,1.47,1.34,2.39a29.42,29.42,0,0,1-1.91,3.65c-.79,1.36-1.44,2.54-1.94,3.52a22.91,22.91,0,0,0-1,2.37,1.91,1.91,0,0,0-.06,1.1,1.12,1.12,0,0,0,.54.72,2.42,2.42,0,0,0,1.9-.07,39,39,0,0,0,3.65-1.61,1.13,1.13,0,0,1,1.14,0,1.18,1.18,0,0,1,.52.91,3,3,0,0,1-.25,1.44,3.41,3.41,0,0,1-1.59,2,18.11,18.11,0,0,1-4.16,1.57,4.62,4.62,0,0,1-3.41-.29,4.08,4.08,0,0,1-1.7-2,7.35,7.35,0,0,1-.62-3.17,6.61,6.61,0,0,1-2.75,1.57,4.05,4.05,0,0,1-2.67-.25A5.2,5.2,0,0,1,156,128.32Zm7-.7a6.49,6.49,0,0,0,1.85-2.3l1.79-3.38c.54-1,1.09-2,1.83-3.36a4.08,4.08,0,0,0-3.25-.13,6.91,6.91,0,0,0-3,2.33,11.28,11.28,0,0,0-1.93,4,3.7,3.7,0,0,0-.07,2.07,1.84,1.84,0,0,0,1,1.15A1.72,1.72,0,0,0,163,127.62Z" fill="#b19455"/></svg>