<svg xmlns="http://www.w3.org/2000/svg" viewBox="0 0 294 294" fill="#b19455">
<path d="M241.17,255.94a144,144,0,0,1-188.34,0" fill="transparent" stroke="#b19455" stroke-linecap="round" stroke-miterlimit="10" stroke-width="6"/>
<path d="M3.92,163.34a144,144,0,1,1,286.16,0" fill="transparent" stroke="#b19455" stroke-linecap="round" stroke-miterlimit="10" stroke-width="6"/>
<path d="M179.25,248.6,170,235.9c0-.08,0-.16,0-.24a3.74,3.74,0,0,0-1-2.64l-5.45-5.77a4.22,4.22,0,0,0-.78-4.64l-4.3-4.56a9.32,9.32,0,0,0-.24-12.49L150.11,197a2.62,2.62,0,1,0-3.81,3.6l8.11,8.6a4.08,4.08,0,0,1-.16,5.73l-13.7,12.92a4.07,4.07,0,0,1-5.73-.17l-26.59-28.2a4.05,4.05,0,0,1,.17-5.72c1.63-1.55,12.06-11.38,13.7-12.92a4.05,4.05,0,0,1,5.72.16l10.08,10.7a2.62,2.62,0,0,0,3.82-3.6l-10.09-10.69a9.29,9.29,0,0,0-12.61-.84l-1.49-1.58,2.54-2.4A7.33,7.33,0,0,0,110,161.87l-2.54,2.4L104,160.6a4.2,4.2,0,0,0-4.72-1L75.8,134.73a10.94,10.94,0,0,0-18.41-8.84h0A10.92,10.92,0,0,0,54,134.51L33.42,153.9a2.62,2.62,0,0,0,3.6,3.82L55.83,140a11.18,11.18,0,0,0,3,3l-34.1,32.15-10.58,10a5.76,5.76,0,0,0-.24,8.14l29.27,31a5.76,5.76,0,0,0,8.14.24L96.37,182l2.86,3L54.14,227.51a10,10,0,0,1-14-.41l-29.26-31a9.94,9.94,0,0,1,.41-14l16.88-15.92a2.62,2.62,0,0,0-3.6-3.81L7.64,178.21A15.17,15.17,0,0,0,7,199.66l29.27,31a15.19,15.19,0,0,0,21.45.63l45.1-42.53,1.49,1.58a9.31,9.31,0,0,0,.09,12.65l26.6,28.2a9.32,9.32,0,0,0,12.45,1l4.3,4.56a4.24,4.24,0,0,0,4.59,1.05l5.44,5.78a3.67,3.67,0,0,0,2.82,1.14l12.14,10a4.5,4.5,0,0,0,6.5-6.13Zm-62.69-82.82a2.07,2.07,0,0,1-.09,2.94l-2.54,2.4-2.86-3,2.54-2.4a2.09,2.09,0,0,1,3,.09Zm-55.8-28h0a5.7,5.7,0,1,1,8.06.24,5.71,5.71,0,0,1-8.06-.24Zm10,5.33a11.18,11.18,0,0,0,3-2.87l21.51,22.82-3,2.86ZM56.35,212.48l-8.68,8.18a.53.53,0,0,1-.73,0l-29.26-31a.53.53,0,0,1,0-.73l8.67-8.18,2.05,2.17L27.2,184a6.39,6.39,0,0,0-.26,9l17.12,18.15a6.39,6.39,0,0,0,9,.27l1.21-1.15ZM38.66,182l17.12,18.15a1.15,1.15,0,0,1-.05,1.62l-6.24,5.88a1.16,1.16,0,0,1-1.62,0L30.75,189.44a1.17,1.17,0,0,1,.05-1.62L37,181.94A1.15,1.15,0,0,1,38.66,182Zm36,13.27L60.16,208.88l-2-2.16,1.21-1.15a6.4,6.4,0,0,0,.27-9L42.48,178.39a6.39,6.39,0,0,0-9-.27l-1.22,1.15-2-2.17,14.45-13.63,2,2.17-1.22,1.14a6.39,6.39,0,0,0-.26,9L62.33,194a6.39,6.39,0,0,0,9,.26l1.21-1.14Zm-17.68-30.5,17.12,18.15a1.17,1.17,0,0,1,.31.82,1.16,1.16,0,0,1-.36.8l-3.12,2.94h0l-3.12,2.94a1.17,1.17,0,0,1-1.62,0L49,172.21a1.16,1.16,0,0,1,0-1.61l6.24-5.89a1.17,1.17,0,0,1,1.62,0Zm21.5,26.9-2-2.17,1.21-1.14a6.4,6.4,0,0,0,.26-9L60.74,161.16a6.39,6.39,0,0,0-9-.26L50.5,162l-2-2.17,16-15.1c.22,0,.43,0,.65,0l23.49,24.91a4.19,4.19,0,0,0,.69,4.77l3.47,3.68Zm15.41-20,7.07-6.67,14.27,15.14-7.07,6.66Zm53.47,57,7.37-7,3.58,3.8-7.37,7Zm9.08,5.82,3.57-3.37,4.15,4.4-3.57,3.37Zm8.78,7.25.26-.25,1.25-1.18,4.87,6.68Z"/><path d="M114.75,248.6a4.5,4.5,0,0,0,6.5,6.13l12.14-10a3.67,3.67,0,0,0,2.82-1.14l5.44-5.78a4.24,4.24,0,0,0,4.59-1.05l4.3-4.56a9.32,9.32,0,0,0,12.45-1l26.6-28.2a9.31,9.31,0,0,0,.09-12.65l1.49-1.58,45.1,42.53a15.19,15.19,0,0,0,21.45-.63l29.27-31a15.17,15.17,0,0,0-.63-21.45L269.48,162.3a2.62,2.62,0,0,0-3.6,3.81L282.76,182a9.94,9.94,0,0,1,.41,14l-29.26,31a10,10,0,0,1-14,.41L194.77,185l2.86-3,45.1,42.53a5.76,5.76,0,0,0,8.14-.24l29.27-31a5.76,5.76,0,0,0-.24-8.14l-10.58-10-34.1-32.15a11.18,11.18,0,0,0,2.95-3L257,157.72a2.62,2.62,0,0,0,3.6-3.82L240,134.51a10.92,10.92,0,0,0-3.41-8.62h0a10.94,10.94,0,0,0-18.41,8.84l-23.48,24.9a4.2,4.2,0,0,0-4.72,1l-3.47,3.67-2.54-2.4a7.33,7.33,0,0,0-10.06,10.67l2.54,2.4L175,176.52a9.29,9.29,0,0,0-12.61.84l-10.09,10.69a2.62,2.62,0,1,0,3.82,3.6L166.18,181a4.05,4.05,0,0,1,5.72-.16c1.64,1.54,12.07,11.37,13.7,12.92a4.05,4.05,0,0,1,.17,5.72l-26.59,28.2a4.07,4.07,0,0,1-5.73.17l-13.7-12.92a4.08,4.08,0,0,1-.16-5.73l8.11-8.6a2.62,2.62,0,1,0-3.81-3.6l-8.12,8.61a9.32,9.32,0,0,0-.24,12.49l-4.3,4.56a4.22,4.22,0,0,0-.78,4.64L125,233a3.74,3.74,0,0,0-1,2.64c0,.08,0,.16,0,.24l-9.27,12.7Zm62.69-82.82a2.09,2.09,0,0,1,2.95-.09l2.54,2.4-2.86,3-2.54-2.4a2.07,2.07,0,0,1-.09-2.94Zm55.8-28a5.7,5.7,0,1,1-.22-8.06,5.7,5.7,0,0,1,.22,8.06h0Zm-31.5,28.14-3-2.86,21.51-22.82a11.18,11.18,0,0,0,3,2.87Zm38,44.4,1.21,1.15a6.39,6.39,0,0,0,9-.27L267.06,193a6.39,6.39,0,0,0-.26-9l-1.22-1.14,2.05-2.17,8.67,8.18a.53.53,0,0,1,0,.73l-29.26,31a.53.53,0,0,1-.73,0l-8.68-8.18ZM257,181.94l6.24,5.88a1.17,1.17,0,0,1,.05,1.62L246.13,207.6a1.16,1.16,0,0,1-1.62,0l-6.24-5.88a1.15,1.15,0,0,1-.05-1.62L255.34,182A1.15,1.15,0,0,1,257,181.94Zm-35.53,11.15,1.21,1.14a6.39,6.39,0,0,0,9-.26l17.12-18.16a6.39,6.39,0,0,0-.26-9l-1.22-1.14,2.05-2.17,14.45,13.63-2,2.17-1.22-1.15a6.39,6.39,0,0,0-9,.27L234.4,196.54a6.4,6.4,0,0,0,.27,9l1.21,1.15-2,2.16-14.45-13.62Zm15.64-28.33a1.17,1.17,0,0,1,1.62,0l6.24,5.89a1.16,1.16,0,0,1,0,1.61l-17.12,18.16a1.17,1.17,0,0,1-1.62,0l-3.12-2.94h0L220,184.53a1.16,1.16,0,0,1-.36-.8,1.17,1.17,0,0,1,.31-.82l17.12-18.15Zm-35.84,13.38,3.47-3.68a4.19,4.19,0,0,0,.69-4.77l23.49-24.91c.22,0,.43,0,.65,0l16,15.1-2,2.17-1.21-1.14a6.39,6.39,0,0,0-9,.26l-17.12,18.15a6.4,6.4,0,0,0,.26,9l1.21,1.14-2,2.17Zm-15.34,8.62-7.07-6.66L193.09,165l7.07,6.67Zm-42.78,45.67-7.37-7,3.58-3.8,7.37,7Zm-9.65,6.42-3.57-3.37,4.15-4.4,3.57,3.37Zm-11,8.1,4.87-6.68,1.25,1.18.26.25Z"/><path d="M65.77,107.93a14,14,0,0,1-4.07.09,8.82,8.82,0,0,1-3.36-1.15A9.46,9.46,0,0,1,54.4,102a4.78,4.78,0,0,1,.7-4.43,8.17,8.17,0,0,1,2-1.87,7.28,7.28,0,0,1,3.5-1.35,2.29,2.29,0,0,1,2.26,1,7.05,7.05,0,0,1,.83,1.79,4.34,4.34,0,0,1,.32.73,5.47,5.47,0,0,0,.52,1.06,3.13,3.13,0,0,0,1.93,1.39,6.91,6.91,0,0,0,3.09-.06,23.66,23.66,0,0,0,4.11-1.31c1.53-.62,3.21-1.41,5.07-2.36q1.92-1,3.51-2a30.15,30.15,0,0,0,2.83-1.94,16.59,16.59,0,0,0,2.14-2,7.51,7.51,0,0,0,1.77-3,4.36,4.36,0,0,0-.15-2.89A4,4,0,0,0,86,82.44a11.92,11.92,0,0,0-2.34-.38,16.17,16.17,0,0,0-2.68,0c-1,.08-2.08.22-3.4.43s-2.84.47-4.52.82l-4.1.89L65.33,85c-1.13.23-2.18.44-3.15.62a30.44,30.44,0,0,1-4.25.49,23.84,23.84,0,0,1-4.07-.19,9.14,9.14,0,0,1-3.54-1.17,8.46,8.46,0,0,1-4-6.18,10.61,10.61,0,0,1,.45-4.31,15.7,15.7,0,0,1,1.36-3.15,22.22,22.22,0,0,1,2.21-3.24,32.08,32.08,0,0,1,3.08-3.32c.88-.83,1.83-1.64,2.86-2.44s2.12-1.59,3.28-2.35,2.4-1.5,3.71-2.21S66,56.16,67.41,55.5s2.85-1.23,4.25-1.73,2.79-.93,4.15-1.28a37.73,37.73,0,0,1,4-.84,28.09,28.09,0,0,1,3.73-.36,20.83,20.83,0,0,1,3.31.14,16.67,16.67,0,0,1,2.9.63A8.49,8.49,0,0,1,93,53.92a6.71,6.71,0,0,1,1.76,2.92,10,10,0,0,1,.48,3.08,5.74,5.74,0,0,1-.55,2.5,5.35,5.35,0,0,1-1.55,1.91,9,9,0,0,1-2.55,1.32,7.77,7.77,0,0,1-3.89.43,2.56,2.56,0,0,1-2.2-1.45,8.84,8.84,0,0,1-.44-1.93,10.47,10.47,0,0,0-.49-2.09A2.73,2.73,0,0,0,82,59a7.08,7.08,0,0,0-3.2-.38,20.93,20.93,0,0,0-4.32.78,33,33,0,0,0-4.94,1.84,44.85,44.85,0,0,0-4.41,2.32A28.56,28.56,0,0,0,61.68,66a16.87,16.87,0,0,0-2.44,2.4,8,8,0,0,0-1.76,3.41,4.18,4.18,0,0,0,.49,3,4.48,4.48,0,0,0,3.65,2.12,17.34,17.34,0,0,0,2.73.08,24.48,24.48,0,0,0,3-.33c1.06-.17,2.33-.4,3.78-.67s3.12-.59,5-.91c1.48-.26,2.88-.46,4.18-.62s2.49-.29,3.6-.37,2.12-.13,3-.15a19.18,19.18,0,0,1,3.92.3,16.71,16.71,0,0,1,3.52,1,7.71,7.71,0,0,1,2.73,1.93,7.86,7.86,0,0,1,1.62,2.89,10.69,10.69,0,0,1,.51,4.1,10.88,10.88,0,0,1-1.07,3.94,16.55,16.55,0,0,1-2.59,3.8,28.94,28.94,0,0,1-2.78,2.75,41.64,41.64,0,0,1-3.38,2.61q-1.83,1.28-4,2.53c-1.42.83-3,1.66-4.57,2.51-1.45.74-2.84,1.43-4.18,2s-2.63,1.17-3.88,1.64-2.47.88-3.64,1.2A26.84,26.84,0,0,1,65.77,107.93Z"/><path d="M146.88,69.31a2.89,2.89,0,0,1,.55,1.85c0,1.79-.76,2.85-2.24,3.2-1,.27-2.09.52-3.18.74s-2.2.42-3.35.59-2.34.33-3.56.46a14.56,14.56,0,0,1-1.77,4.4,16,16,0,0,1-3.09,3.63,17.63,17.63,0,0,1-4,2.66,18.12,18.12,0,0,1-4.66,1.47,21.07,21.07,0,0,1-4,.36A14.63,14.63,0,0,1,110.88,87a12,12,0,0,1-2.56-1.84,11.19,11.19,0,0,1-1.93-2.38,10.81,10.81,0,0,1-1.22-2.8,13.45,13.45,0,0,1-.52-4,11.81,11.81,0,0,1,.77-3.9,13.49,13.49,0,0,1,2-3.57,15.78,15.78,0,0,1,3.2-3,19.2,19.2,0,0,1,4.15-2.3,22.56,22.56,0,0,1,4.86-1.34,20.94,20.94,0,0,1,4-.27,15.25,15.25,0,0,1,3.54.54,12.45,12.45,0,0,1,3,1.31,11.63,11.63,0,0,1,3.32,3,10.4,10.4,0,0,1,1.72,3.85c1.24-.15,2.59-.35,4.07-.61s3.08-.56,4.81-.91a6.22,6.22,0,0,1,1.12-.13A1.86,1.86,0,0,1,146.88,69.31Zm-21.9,11a7.53,7.53,0,0,0,1.8-4.49,9.79,9.79,0,0,1-4.11-2.53,7.15,7.15,0,0,1-1.94-3.77,7.28,7.28,0,0,1,0-1.81l-.4.07a7.52,7.52,0,0,0-2.86,1,7,7,0,0,0-2.08,2,6.58,6.58,0,0,0-1,2.86,10.24,10.24,0,0,0,.21,3.52,8.19,8.19,0,0,0,1,2.57,5.34,5.34,0,0,0,1.6,1.7,5.4,5.4,0,0,0,4,.9A6.65,6.65,0,0,0,125,80.27Z"/><path d="M143.08,83.86a10.34,10.34,0,0,1-.94-2.88,28.1,28.1,0,0,1-.43-4.24,33,33,0,0,1,.16-4.78,29.42,29.42,0,0,1,2.43-9.13,4.6,4.6,0,0,1,2.45-2.4,11.63,11.63,0,0,1,4.86-.69,6.49,6.49,0,0,1,2.35.36,1.05,1.05,0,0,1,.63,1.09,18.3,18.3,0,0,1-1.41,4c-.61,1.45-1.07,2.76-1.42,3.87a26.87,26.87,0,0,0-.91,4.12,30.11,30.11,0,0,1,2.91-4.27,22.62,22.62,0,0,1,3.33-3.31,24.47,24.47,0,0,1,3.53-2.34,16.44,16.44,0,0,1,3.47-1.41,18,18,0,0,1,3.28-.61,13.09,13.09,0,0,1,2.95.06,7.19,7.19,0,0,1,3.94,1.51,3,3,0,0,1,.89,2.91,18.64,18.64,0,0,1-1.32,3.36,16.71,16.71,0,0,0-1.09,2.66A1.75,1.75,0,0,0,174.37,74a6.6,6.6,0,0,0,2.6-.15,20.21,20.21,0,0,0,3.49-1.18,3.72,3.72,0,0,1,2.28-.25,2.14,2.14,0,0,1,1.46,1,2.43,2.43,0,0,1,.19,1.8,3.89,3.89,0,0,1-2.28,2.8,21,21,0,0,1-2.63,1,26.56,26.56,0,0,1-2.89.7,17.33,17.33,0,0,1-3.05.31,18.2,18.2,0,0,1-3.1-.23,16.11,16.11,0,0,1-3.44-.87,7.88,7.88,0,0,1-2.42-1.44,4.84,4.84,0,0,1-1.67-4.3,7.56,7.56,0,0,1,.4-1.64,6.57,6.57,0,0,0,.31-1.49.78.78,0,0,0-.78-1c-.8-.08-1.92.45-3.31,1.59a17.91,17.91,0,0,0-2.08,2,28.86,28.86,0,0,0-2,2.66,29.88,29.88,0,0,0-1.81,3.08,28,28,0,0,0-1.42,3.28,8.44,8.44,0,0,1-1.95,3.5,4.94,4.94,0,0,1-3.28.89A4,4,0,0,1,143.08,83.86Z"/><path d="M176.59,86.83a10.41,10.41,0,0,1-.26-3,27.94,27.94,0,0,1,.55-4.23A33.41,33.41,0,0,1,178.13,75,30.17,30.17,0,0,1,180,70.64a29.28,29.28,0,0,1,2.58-4,4.57,4.57,0,0,1,2.94-1.78,11.61,11.61,0,0,1,4.92.44,6.81,6.81,0,0,1,2.23.89,1,1,0,0,1,.37,1.21A18.1,18.1,0,0,1,190.76,71c-.93,1.27-1.69,2.44-2.29,3.44a26.4,26.4,0,0,0-1.82,3.81,28.67,28.67,0,0,1,3.83-3.49,22.43,22.43,0,0,1,4-2.45,23.86,23.86,0,0,1,4-1.47,16.86,16.86,0,0,1,3.74-.56,19.25,19.25,0,0,1,3.37.17,13.44,13.44,0,0,1,2.89.74A7.41,7.41,0,0,1,212,73.55a3,3,0,0,1,.22,3,18.73,18.73,0,0,1-2.06,3,16.49,16.49,0,0,0-1.69,2.34,1.77,1.77,0,0,0,1.1,2.59,7,7,0,0,0,2.6.47,21.44,21.44,0,0,0,3.72-.32,3.7,3.7,0,0,1,2.3.31,2.16,2.16,0,0,1,1.22,1.32,2.33,2.33,0,0,1-.22,1.8,3.88,3.88,0,0,1-2.89,2.18,23,23,0,0,1-2.82.31c-1,0-2,0-3,0a18.85,18.85,0,0,1-3.08-.42,19.09,19.09,0,0,1-3-1,16.87,16.87,0,0,1-3.19-1.66,7.91,7.91,0,0,1-2.05-2,4.85,4.85,0,0,1-.67-4.57,7.94,7.94,0,0,1,.77-1.51,6.55,6.55,0,0,0,.65-1.38.78.78,0,0,0-.55-1.13c-.77-.27-2,0-3.61.78a17.74,17.74,0,0,0-2.51,1.49,28.64,28.64,0,0,0-5.08,4.7A27.07,27.07,0,0,0,186,86.78a8.38,8.38,0,0,1-2.72,3,5,5,0,0,1-3.41.11A4.07,4.07,0,0,1,176.59,86.83Z"/><path d="M246.33,92a1.14,1.14,0,0,1,0,1.37,17.72,17.72,0,0,1-2.26,2.15c-1.24,1.08-3,2.51-5.12,4.34s-3.64,3.23-4.82,4.31-1.94,1.79-2.3,2.13q-2.1,2.06-4.11,3.88t-3.9,3.46c-1.27,1.08-2.5,2.08-3.7,3s-2.37,1.81-3.5,2.61-2.23,1.53-3.3,2.19a24.54,24.54,0,0,1-5,2.44,12.58,12.58,0,0,1-4.48.7,9.71,9.71,0,0,1-4.06-1A8.75,8.75,0,0,1,197.4,122a6.93,6.93,0,0,1-1.48-2.12,6,6,0,0,1-.54-2.46,6.54,6.54,0,0,1,.55-2.57,11.17,11.17,0,0,1,1.36-2.32,12.91,12.91,0,0,1,2.05-2.07,14.47,14.47,0,0,1,3.08-1.85,28,28,0,0,1,4.48-1.6,38.89,38.89,0,0,1,3.9-.82c1.45-.23,3-.42,4.78-.54s3.62-.17,5.67-.14l.85-1c.51-.5,1.1-1.12,1.79-1.87s1.46-1.6,2.33-2.58a18.07,18.07,0,0,1-3.42,2.09,12.52,12.52,0,0,1-3.39,1,11.26,11.26,0,0,1-3.17,0,8.62,8.62,0,0,1-2.78-.89,8,8,0,0,1-2.41-1.87,7.14,7.14,0,0,1-1.41-2.62,8.11,8.11,0,0,1-.35-3,9.29,9.29,0,0,1,.83-3.12A39.92,39.92,0,0,1,212,88.05,31.39,31.39,0,0,1,214.05,85a30.38,30.38,0,0,1,2.51-2.81,36.2,36.2,0,0,1,3.14-2.73,5,5,0,0,1,3.21-1.1,6.85,6.85,0,0,1,2,.42A18,18,0,0,1,227.63,80a6,6,0,0,1,2.14,1.62,1.26,1.26,0,0,1,.07,1.38,14.66,14.66,0,0,1-2.3,2.18c-1.12.94-2.16,1.82-3,2.64q-1.68,1.7-3.09,3.33a15.88,15.88,0,0,0-2,2.81c-.67,1.25-.52,2.13.43,2.65a5.08,5.08,0,0,0,3.38,0,19.15,19.15,0,0,0,2.66-.91c1-.41,2.06-.92,3.24-1.54s2.44-1.33,3.76-2.16,2.73-1.75,4.21-2.78a4.42,4.42,0,0,1,3.09-.86,9.57,9.57,0,0,1,4,1.84A7.68,7.68,0,0,1,246.33,92ZM207.45,117.8a22.94,22.94,0,0,0,2.46-1.67q1.35-1,3-2.46t3.52-3.24a39.77,39.77,0,0,0-4,.44,27.13,27.13,0,0,0-3.3.74,17.83,17.83,0,0,0-2.62,1,12.33,12.33,0,0,0-2.78,1.75,6.24,6.24,0,0,0-1.57,1.94,2.72,2.72,0,0,0-.31,1.59,1.53,1.53,0,0,0,.94,1.16,2.72,2.72,0,0,0,1.87,0A12.31,12.31,0,0,0,207.45,117.8Z"/><path d="M139,115.68a1.75,1.75,0,0,1,.34,1,3,3,0,0,1-.51,2A14.31,14.31,0,0,1,135.7,122a7.91,7.91,0,0,1-3.45,1.35,5,5,0,0,1-2.64-.29,5.89,5.89,0,0,1-2.23-1.74,12.26,12.26,0,0,1-1.81-3.15,24.89,24.89,0,0,1-1.32-4.51c-.24-1.19-.43-2.51-.58-4s-.23-3-.25-4.75l-.08,0c-.36,1.56-.69,3.14-1,4.72s-.57,3.18-.81,4.78-.44,3.21-.61,4.83-.32,3.24-.43,4.88a2.84,2.84,0,0,1-.46,1.54,2.37,2.37,0,0,1-1.27.75,2,2,0,0,1-2.43-.89c-.5-.73-1-1.55-1.55-2.46s-1-1.9-1.56-3-1-2.18-1.46-3.3-.86-2.25-1.24-3.41c-.43-1.34-.76-2.52-1-3.55l-.08,0c.12,1.46.22,2.82.31,4.07s.16,2.39.22,3.44.11,2,.13,2.82a21.66,21.66,0,0,1-.18,3.57,17.17,17.17,0,0,1-.76,3.16,7.22,7.22,0,0,1-1.5,2.52,7.42,7.42,0,0,1-2.46,1.69,7.07,7.07,0,0,1-3.15.65,5.64,5.64,0,0,1-2.78-.8,4.78,4.78,0,0,1-1.87-2,2.19,2.19,0,0,1-.21-1.67,2.16,2.16,0,0,1,1.2-1.26,1.57,1.57,0,0,1,2.08.36,3.6,3.6,0,0,0,1.71,1.21,2.66,2.66,0,0,0,1.87-.15c.81-.35,1.32-1.32,1.58-2.92a21.91,21.91,0,0,0,.2-3c0-1.2,0-2.61-.13-4.21-.06-1.08-.15-2.26-.25-3.55s-.23-2.69-.37-4.2-.29-3.13-.46-4.87a2.92,2.92,0,0,1,.65-2.34,6.32,6.32,0,0,1,2.78-1.52c2.2-.68,3.47-.05,3.83,1.77s.75,3.38,1.15,4.8c.32,1.1.69,2.27,1.1,3.48s.89,2.49,1.4,3.82,1.07,2.71,1.67,4.16l.06,0c0-1.23,0-2.57.16-4s.33-3.06.63-4.77c.19-1.14.42-2.26.67-3.37s.53-2.2.84-3.27.64-2.12,1-3.16a8.64,8.64,0,0,1,.81-1.83,2.72,2.72,0,0,1,1-.92,5.71,5.71,0,0,1,1.69-.53,4.5,4.5,0,0,1,2.76.21,1.8,1.8,0,0,1,1,1.73c0,1.81.11,3.48.2,5s.2,2.93.33,4.19.27,2.39.43,3.38a31.74,31.74,0,0,0,.71,3.44,16.31,16.31,0,0,0,.91,2.54c.66,1.4,1.47,2,2.47,1.9a4.17,4.17,0,0,0,2.09-.92,15.35,15.35,0,0,0,2.38-2.63,1.2,1.2,0,0,1,.91-.52A.79.79,0,0,1,139,115.68Z"/><path d="M138.07,121.24a5.72,5.72,0,0,1-1.59-3.65,9,9,0,0,1,.87-4.94,9.7,9.7,0,0,1,1.41-2.18,9.56,9.56,0,0,1,2-1.74,8.87,8.87,0,0,1,2.33-1.15,8.52,8.52,0,0,1,2.52-.41,1.67,1.67,0,0,1,1.12.27,2,2,0,0,1,.47,1,9.73,9.73,0,0,1,1.65-.11c1.22,0,1.82.41,1.8,1.16a22.37,22.37,0,0,1-.64,3.18c-.3,1.22-.54,2.26-.69,3.11a13.87,13.87,0,0,0-.24,2,1.16,1.16,0,0,0,.25.78.85.85,0,0,0,.65.3,2.73,2.73,0,0,0,1.61-.73c.64-.49,1.51-1.3,2.67-2.4a1.25,1.25,0,0,1,1-.38.83.83,0,0,1,.69.43,1.86,1.86,0,0,1,.18,1.08,2.81,2.81,0,0,1-.82,1.92,19.91,19.91,0,0,1-3.1,2.57,5.32,5.32,0,0,1-3,1,3.23,3.23,0,0,1-2-.74,4.48,4.48,0,0,1-1.4-2,6.88,6.88,0,0,1-1.93,2.06,4.66,4.66,0,0,1-2.36.77A4.28,4.28,0,0,1,138.07,121.24Zm5.84-3a5.38,5.38,0,0,0,1-2.23c.23-1.18.42-2.07.6-3s.38-1.78.65-3a4.65,4.65,0,0,0-2.83,1.07,6.48,6.48,0,0,0-1.93,2.66,7.66,7.66,0,0,0-.56,3.42,2.22,2.22,0,0,0,.51,1.45,1.53,1.53,0,0,0,1.2.42A1.91,1.91,0,0,0,143.91,118.28Z"/><path d="M181.59,120.92a1.83,1.83,0,0,1-.08,1.09,2.83,2.83,0,0,1-1.26,1.7,23.57,23.57,0,0,1-3.74,1.76,5.53,5.53,0,0,1-3.36.17,2.78,2.78,0,0,1-2.16-1.85,7.29,7.29,0,0,1,.07-3.79,20.31,20.31,0,0,1,.66-2.29c.29-.84.64-1.75,1.07-2.73l-.07,0a20.71,20.71,0,0,0-2.33,2.66q-1.12,1.53-2.5,3.67l-.84,1.3A2.74,2.74,0,0,1,166,123.7a2.13,2.13,0,0,1-1.24.12,1.32,1.32,0,0,1-1-.55,3.38,3.38,0,0,1-.4-1.3,15,15,0,0,1-.11-2.69,30.42,30.42,0,0,1,.3-3.4,18.49,18.49,0,0,1,.41-2l-.07,0c-.45,1-.88,1.87-1.28,2.68s-.79,1.51-1.15,2.13a9.48,9.48,0,0,1-2.6,3,5.08,5.08,0,0,1-3.56.93,3.36,3.36,0,0,1-2.62-1.36,4.71,4.71,0,0,1-.82-3,4.23,4.23,0,0,1,.93-2.63,2.65,2.65,0,0,1,2.36-.93c.94.07,1.39.4,1.34,1a1.33,1.33,0,0,1-.05.26A12.47,12.47,0,0,0,156,118c-.06.72.08,1.1.42,1.13a1.29,1.29,0,0,0,1-.57,16.87,16.87,0,0,0,1.65-2.71c.5-.94,1-1.89,1.51-2.85s1-1.93,1.51-2.91a2.8,2.8,0,0,1,1.29-1.3,4.41,4.41,0,0,1,3.71.47,1.19,1.19,0,0,1,.49,1.25c-.27,1.52-.49,2.87-.65,4s-.28,2.16-.34,3h.07a22.25,22.25,0,0,1,2.64-3.76,12.78,12.78,0,0,1,2.7-2.61,5.46,5.46,0,0,1,1.63-.64,3.88,3.88,0,0,1,1.69,0,1.9,1.9,0,0,1,1.69,2.84c-.13.48-.27.94-.41,1.4s-.29.88-.41,1.27c-.5,1.5-.85,2.62-1,3.36a7.23,7.23,0,0,0-.36,2.46,1,1,0,0,0,.83.89,2.48,2.48,0,0,0,1.73-.39,15.29,15.29,0,0,0,2.6-1.84,1.12,1.12,0,0,1,1.09-.26A.82.82,0,0,1,181.59,120.92Z"/><path d="M178.25,125.6a5.7,5.7,0,0,1-.12-4,9.85,9.85,0,0,1,1-2.29,9.49,9.49,0,0,1,1.65-2,10,10,0,0,1,2.14-1.48,9.68,9.68,0,0,1,2.49-.87,9,9,0,0,1,2.62-.18,8.64,8.64,0,0,1,2.53.6,1.66,1.66,0,0,1,1,.67,2.09,2.09,0,0,1,.07,1.08,10.33,10.33,0,0,1,1.6.53c1.15.49,1.57,1.09,1.26,1.77a21.07,21.07,0,0,1-1.8,2.7c-.75,1-1.36,1.88-1.82,2.61a12.81,12.81,0,0,0-1,1.76,1.05,1.05,0,0,0-.06.81.87.87,0,0,0,.5.53,2.82,2.82,0,0,0,1.79,0c.8-.21,1.93-.62,3.44-1.19a1.32,1.32,0,0,1,1.07,0,.86.86,0,0,1,.5.68,1.86,1.86,0,0,1-.24,1.06,2.81,2.81,0,0,1-1.5,1.47,20.44,20.44,0,0,1-3.91,1.16,5.44,5.44,0,0,1-3.21-.22,3.37,3.37,0,0,1-1.61-1.45,4.54,4.54,0,0,1-.58-2.36,6.67,6.67,0,0,1-2.59,1.17A4.78,4.78,0,0,1,181,128,4.35,4.35,0,0,1,178.25,125.6Zm6.6-.52a5.37,5.37,0,0,0,1.74-1.7c.67-1,1.17-1.76,1.68-2.5s1-1.5,1.72-2.49a4.78,4.78,0,0,0-3.06-.1,6.54,6.54,0,0,0-2.82,1.73,7.6,7.6,0,0,0-1.81,3,2.11,2.11,0,0,0-.07,1.53,1.54,1.54,0,0,0,1,.85A2,2,0,0,0,184.85,125.08Z"/></svg>