<svg id="_x31__px" height="512" viewBox="0 0 24 24" width="512" xmlns="http://www.w3.org/2000/svg" fill="#c39838"><path d="m16.5 4h-2c-.276 0-.5-.224-.5-.5s.224-.5.5-.5h1.5v-1.5c0-.276.224-.5.5-.5s.5.224.5.5v2c0 .276-.224.5-.5.5z"/><path d="m7.5 4.99c-.018 0-.036-.001-.054-.003-.274-.029-.473-.276-.444-.55.272-2.53 2.394-4.437 4.938-4.437 1.139 0 2.238.384 3.096 1.083.656.511 1.17 1.199 1.479 1.984.101.257-.025.547-.282.648-.256.1-.547-.025-.648-.282-.244-.618-.649-1.161-1.172-1.568-.688-.56-1.563-.865-2.473-.865-2.031 0-3.726 1.523-3.943 3.543-.027.257-.244.447-.497.447z"/><path d="m12.06 10c-1.139 0-2.238-.384-3.096-1.083-.656-.511-1.17-1.199-1.479-1.984-.101-.257.025-.547.282-.648.256-.1.547.025.648.282.244.618.649 1.161 1.172 1.568.688.56 1.563.865 2.473.865 2.031 0 3.726-1.523 3.943-3.543.029-.274.267-.475.55-.444.274.029.473.276.444.55-.271 2.53-2.393 4.437-4.937 4.437z"/><path d="m7.5 9c-.276 0-.5-.224-.5-.5v-2c0-.276.224-.5.5-.5h2c.276 0 .5.224.5.5s-.224.5-.5.5h-1.5v1.5c0 .276-.224.5-.5.5z"/><path d="m21.5 24h-19c-1.378 0-2.5-1.122-2.5-2.5v-8.021c0-.158.074-.306.201-.4s.289-.124.44-.079c3.644 1.074 7.051.128 10.348-.786 4.15-1.151 8.446-2.342 12.807.863.128.093.204.242.204.402v8.021c0 1.378-1.122 2.5-2.5 2.5zm-20.5-9.871v7.371c0 .827.673 1.5 1.5 1.5h19c.827 0 1.5-.673 1.5-1.5v-7.765c-3.899-2.732-7.711-1.675-11.744-.559-3.244.899-6.592 1.828-10.256.953z"/><path d="m1.5 22c-.441 0-.875-.117-1.253-.338-.238-.14-.318-.446-.179-.685.14-.238.445-.319.685-.179.222.13.487.202.747.202.827 0 1.5-.673 1.5-1.5s-.673-1.5-1.5-1.5c-.26 0-.525.072-.747.202-.24.139-.544.059-.685-.179-.139-.238-.06-.545.179-.685.378-.221.812-.338 1.253-.338 1.378 0 2.5 1.122 2.5 2.5s-1.122 2.5-2.5 2.5z"/><path d="m9.5 19c-.827 0-1.5-.673-1.5-1.5s.673-1.5 1.5-1.5 1.5.673 1.5 1.5-.673 1.5-1.5 1.5zm0-2c-.276 0-.5.224-.5.5s.224.5.5.5.5-.224.5-.5-.224-.5-.5-.5z"/><path d="m23 19c-1.103 0-2-.897-2-2s.897-2 2-2c.236 0 .457.04.676.122.258.097.389.385.292.644s-.387.388-.644.292c-.611-.229-1.324.274-1.324.942s.712 1.168 1.324.942c.258-.095.547.034.644.292.097.259-.034.547-.292.644-.219.082-.44.122-.676.122z"/><path d="m16.5 21c-.827 0-1.5-.673-1.5-1.5s.673-1.5 1.5-1.5 1.5.673 1.5 1.5-.673 1.5-1.5 1.5zm0-2c-.276 0-.5.224-.5.5s.224.5.5.5.5-.224.5-.5-.224-.5-.5-.5z"/></svg>