<?xml version="1.0" encoding="utf-8"?>
<!-- Generator: Adobe Illustrator 23.0.2, SVG Export Plug-In . SVG Version: 6.00 Build 0)  -->
<svg version="1.1" id="Слой_1" xmlns="http://www.w3.org/2000/svg" xmlns:xlink="http://www.w3.org/1999/xlink" x="0px" y="0px"
	 viewBox="0 0 80 80" style="enable-background:new 0 0 80 80;" xml:space="preserve">
<style type="text/css">
	.st0{fill:none;stroke:#204654;stroke-width:0.25;stroke-miterlimit:10;}
	.st1{fill:#204654;stroke:#204654;stroke-width:0.25;stroke-miterlimit:10;}
	.st2{fill:#204654;}
</style>
<circle class="st0" cx="40" cy="40" r="32.5"/>
<g>
	<path class="st1" d="M7.427,40.341c0,0-2.181-1.199-3.319-3.898C7,37.342,7.379,38.242,7.427,40.341"/>
	<path class="st1" d="M9.508,51.461c0,0-2.46-0.381-4.452-2.527C8.081,48.789,8.745,49.505,9.508,51.461"/>
	<path class="st1" d="M15.267,61.198c0,0-2.442,0.483-5.048-0.852C13.012,59.176,13.881,59.621,15.267,61.198"/>
	<path class="st1" d="M24.009,68.379c0,0-2.129,1.289-5.035,0.926C21.198,67.25,22.167,67.371,24.009,68.379"/>
	<path class="st1" d="M34.679,72.137c0,0-1.56,1.94-4.415,2.592C31.652,72.037,32.604,71.82,34.679,72.137"/>
	<path class="st1" d="M45.992,72.019c0,0-0.802,2.356-3.262,3.946C43.113,72.96,43.933,72.43,45.992,72.019"/>
	<path class="st1" d="M56.581,68.038c0,0,0.052,2.488-1.716,4.824C54.198,69.908,54.787,69.129,56.581,68.038"/>
	<path class="st1" d="M65.171,60.676c0,0,0.9,2.321,0.037,5.12C63.571,63.248,63.859,62.315,65.171,60.676"/>
	<path class="st1" d="M70.725,50.82c0,0,1.639,1.873,1.786,4.798C70.101,53.784,70.052,52.809,70.725,50.82"/>
	<path class="st1" d="M72.573,39.659c0,0,2.181,1.199,3.319,3.898C73,42.658,72.621,41.758,72.573,39.659"/>
	<path class="st1" d="M70.492,28.539c0,0,2.46,0.381,4.452,2.527C71.919,31.211,71.255,30.495,70.492,28.539"/>
	<path class="st1" d="M64.733,18.802c0,0,2.442-0.483,5.048,0.852C66.988,20.824,66.119,20.379,64.733,18.802"/>
	<path class="st1" d="M55.991,11.621c0,0,2.129-1.289,5.035-0.926C58.802,12.75,57.833,12.629,55.991,11.621"/>
	<path class="st1" d="M45.321,7.863c0,0,1.56-1.94,4.415-2.592C48.348,7.963,47.396,8.18,45.321,7.863"/>
	<path class="st1" d="M34.008,7.981c0,0,0.802-2.356,3.262-3.946C36.887,7.04,36.067,7.57,34.008,7.981"/>
	<path class="st1" d="M23.419,11.962c0,0-0.052-2.488,1.716-4.824C25.802,10.092,25.213,10.871,23.419,11.962"/>
	<path class="st1" d="M14.829,19.324c0,0-0.9-2.321-0.037-5.12C16.429,16.752,16.141,17.685,14.829,19.324"/>
	<path class="st1" d="M9.275,29.18c0,0-1.639-1.873-1.786-4.798C9.899,26.216,9.948,27.191,9.275,29.18"/>
</g>
<g>
	<path class="st2" d="M7.58,37.725c0,0,3.458-0.545,2.839-3.453c-2.763,2.108-2.687,0.63-2.85,3.296"/>
	<path class="st2" d="M8.757,48.951c0,0,3.063-1.695,1.487-4.216c-1.875,2.926-2.309,1.511-1.551,4.072"/>
	<path class="st2" d="M13.703,59.097c0,0,2.299-2.64-0.045-4.47c-0.761,3.391-1.653,2.21-0.065,4.356"/>
	<path class="st2" d="M21.82,66.939c0,0,1.257-3.267-1.571-4.186c0.444,3.446-0.798,2.642,1.429,4.116"/>
	<path class="st2" d="M32.13,71.532c0,0,0.064-3.5-2.908-3.396c1.596,3.087,0.154,2.755,2.751,3.379"/>
	<path class="st2" d="M43.39,72.322c0,0-1.137-3.311-3.894-2.197c2.556,2.355,1.087,2.537,3.74,2.234"/>
	<path class="st2" d="M54.24,69.214c0,0-2.201-2.723-4.41-0.732c3.207,1.338,1.889,2.012,4.279,0.82"/>
	<path class="st2" d="M63.373,62.582c0,0-3-1.806-4.395,0.82c3.471,0.161,2.463,1.245,4.301-0.693"/>
	<path class="st2" d="M69.687,53.226c0,0-3.436-0.671-3.849,2.274c3.317-1.036,2.74,0.327,3.805-2.122"/>
	<path class="st2" d="M72.42,42.275c0,0-3.458,0.545-2.839,3.453c2.763-2.108,2.687-0.63,2.85-3.296"/>
	<path class="st2" d="M71.243,31.049c0,0-3.063,1.695-1.487,4.216c1.875-2.926,2.309-1.511,1.551-4.072"/>
	<path class="st2" d="M66.297,20.903c0,0-2.299,2.64,0.045,4.47c0.761-3.39,1.653-2.21,0.065-4.356"/>
	<path class="st2" d="M58.18,13.061c0,0-1.257,3.267,1.571,4.186c-0.444-3.446,0.798-2.642-1.429-4.116"/>
	<path class="st2" d="M47.87,8.468c0,0-0.064,3.5,2.908,3.396c-1.596-3.087-0.154-2.755-2.751-3.379"/>
	<path class="st2" d="M36.61,7.678c0,0,1.137,3.311,3.894,2.197c-2.556-2.355-1.087-2.537-3.74-2.234"/>
	<path class="st2" d="M25.76,10.786c0,0,2.201,2.723,4.41,0.732c-3.207-1.338-1.889-2.012-4.279-0.82"/>
	<path class="st2" d="M16.627,17.418c0,0,3,1.806,4.395-0.82c-3.471-0.161-2.463-1.245-4.301,0.693"/>
	<path class="st2" d="M10.313,26.774c0,0,3.436,0.671,3.849-2.274c-3.317,1.036-2.74-0.327-3.805,2.122"/>
</g>
<g>
</g>
<g>
</g>
<g>
</g>
<g>
</g>
<g>
</g>
<g>
</g>
<g>
</g>
<g>
</g>
<g>
</g>
<g>
</g>
<g>
</g>
<g>
</g>
<g>
</g>
<g>
</g>
<g>
</g>
</svg>
