<svg xmlns="http://www.w3.org/2000/svg" viewBox="0 0 237.79 40" width="240px" height="40px">
  <defs>
    <style>.a{fill:#FFA046;}.b{fill:#fff;}.c,.d{stroke:#000;stroke-miterlimit:10;stroke-width:0.25px;}.d{fill:#c00;}</style>
  </defs>
  <path d="M96.28,22a8.46,8.46,0,0,1-1.19,4.34A11.79,11.79,0,0,1,91.63,30a18.09,18.09,0,0,1-5.25,2.44,22.42,22.42,0,0,1-12.3,0A17.09,17.09,0,0,1,68.9,30a11.59,11.59,0,0,1-3.51-3.63,8.39,8.39,0,0,1,0-8.65,11.67,11.67,0,0,1,3.51-3.62,17.09,17.09,0,0,1,5.18-2.44,22.53,22.53,0,0,1,12.33,0,17.44,17.44,0,0,1,5.22,2.44,11.77,11.77,0,0,1,3.45,3.61A8.43,8.43,0,0,1,96.28,22Zm-16,6.3a8.71,8.71,0,0,0,5.63-1.79,5.64,5.64,0,0,0,0-9,9.66,9.66,0,0,0-11.23,0,5.72,5.72,0,0,0,0,9A8.75,8.75,0,0,0,80.24,28.31Z"/>
  <path d="M97.63,32.69V11.24h8.55a49.55,49.55,0,0,1,7,.33,10.91,10.91,0,0,1,3.42,1.11,6.63,6.63,0,0,1,2.49,2.24,5.47,5.47,0,0,1,.87,3,5.23,5.23,0,0,1-1.71,4,9.43,9.43,0,0,1-5,2.08l8.19,8.64h-9.25L105.3,24.3v8.39Zm7.67-11.31h1.51a8.7,8.7,0,0,0,3.87-.64,2.15,2.15,0,0,0,1.22-2,2.46,2.46,0,0,0-1.14-2.29,7.91,7.91,0,0,0-3.82-.68H105.3Z"/>
  <path d="M122.37,32.69l10.36-21.45H143l10.38,21.45h-8.14l-1.52-3.84H132.07l-1.56,3.84Zm11.46-8H142l-3.06-7.08a10.29,10.29,0,0,1-.39-1c-.16-.48-.38-1.09-.63-1.84-.18.52-.36,1-.53,1.5s-.34.94-.52,1.38Z"/>
  <path d="M155.18,32.69V11.24h7.89l11.35,11c.21.23.57.68,1.07,1.36s1,1.49,1.65,2.42c-.16-.88-.28-1.68-.36-2.37s-.11-1.31-.11-1.85V11.24h7.86V32.69h-7.86L165.33,21.62a13.28,13.28,0,0,1-1.1-1.36c-.5-.68-1-1.48-1.63-2.39.17.89.29,1.69.36,2.38a16.21,16.21,0,0,1,.11,1.85V32.69Z"/>
  <path d="M201.88,24.79V20.3H218q0,.21,0,.48c0,.18,0,.43,0,.78a10.12,10.12,0,0,1-4.09,8.59q-4.09,3-11.52,3.05a24.56,24.56,0,0,1-6.49-.78,15.66,15.66,0,0,1-5.08-2.4,11.21,11.21,0,0,1-3.31-3.64,8.93,8.93,0,0,1,0-8.82,11.47,11.47,0,0,1,3.43-3.62,16.5,16.5,0,0,1,5.18-2.37,23.47,23.47,0,0,1,6.3-.81,22.55,22.55,0,0,1,7.8,1.25,14.64,14.64,0,0,1,5.72,3.7l-7.1,2.43A8.37,8.37,0,0,0,206,16.29a10,10,0,0,0-3.56-.61,8.82,8.82,0,0,0-5.78,1.75,5.88,5.88,0,0,0-2.11,4.79A5.94,5.94,0,0,0,196.61,27a8.77,8.77,0,0,0,5.78,1.75,11.09,11.09,0,0,0,5.2-1.09A4.2,4.2,0,0,0,210,24.79Z"/>
  <path d="M219.39,32.69V11.24h18.4V16H227.37v3.72h9.82v4.6h-9.82v3.61h10.42v4.81Z"/>
  <circle class="a" cx="20" cy="20" r="19.63"/>
  <path d="M20,.75A19.25,19.25,0,1,1,.75,20,19.28,19.28,0,0,1,20,.75M20,0A20,20,0,1,0,40,20,20,20,0,0,0,20,0Z"/>
  <path d="M35.35,11.34a4.8,4.8,0,0,0-3.84-2.16,4.46,4.46,0,0,0-1.66.33,2.68,2.68,0,0,1,2.23-1.39l.33,0C33.7,8.3,34.81,9.53,35.35,11.34Z"/>
  <path d="M32.08,8.25a1.72,1.72,0,0,1,.32,0A3.51,3.51,0,0,1,35,10.69a4.71,4.71,0,0,0-3.47-1.64,4.33,4.33,0,0,0-1.32.21,2.34,2.34,0,0,1,1.89-1m0-.25a3,3,0,0,0-2.55,1.79,4.51,4.51,0,0,1,2-.49,4.85,4.85,0,0,1,4.16,2.85c-.45-2.42-1.77-4-3.24-4.13l-.35,0Z"/>
  <path d="M13.53,9.27c.72-2.39,2.32-4.08,4.2-4.4a4.56,4.56,0,0,1,.72-.06,3.73,3.73,0,0,1,3,1.59,6.86,6.86,0,0,0-2-.31A7.38,7.38,0,0,0,13.53,9.27Z"/>
  <path d="M18.45,4.94h0a3.42,3.42,0,0,1,2.63,1.23A7,7,0,0,0,19.4,6a7.44,7.44,0,0,0-5.5,2.63A5.42,5.42,0,0,1,17.75,5a4.23,4.23,0,0,1,.7-.06m0-.25a4.81,4.81,0,0,0-.74.06c-2.05.35-3.89,2.32-4.51,5.3a7.27,7.27,0,0,1,6.2-3.84,6.87,6.87,0,0,1,2.36.43,4,4,0,0,0-3.31-1.95Z"/>
  <path class="b" d="M19.39,19,19,19c-2.09-.26-3.5-2.77-3.16-5.6.33-2.63,2.11-4.7,4.07-4.7a2.07,2.07,0,0,1,.35,0c2.08.25,3.5,2.76,3.15,5.6C23.13,16.91,21.34,19,19.39,19Z"/>
  <path d="M20,8.78l.33,0c2,.25,3.39,2.7,3,5.46-.32,2.57-2,4.59-3.94,4.59l-.34,0c-2-.25-3.38-2.7-3-5.47.31-2.57,2-4.58,3.94-4.58m0-.25c-2,0-3.85,2.06-4.19,4.8-.36,2.91,1.11,5.48,3.26,5.74l.37,0c2,0,3.85-2.07,4.19-4.81.35-2.9-1.11-5.47-3.27-5.74l-.36,0Z"/>
  <path d="M19.64,16.17a1.21,1.21,0,0,1-.93-.66A2.65,2.65,0,0,1,18.4,14c.08-1.11.73-2,1.48-2a1.25,1.25,0,0,1,1,.67,2.65,2.65,0,0,1,.31,1.51c-.08,1.11-.73,2-1.48,2Z"/>
  <path d="M19.88,12.15h.06a1.1,1.1,0,0,1,.83.6,2.5,2.5,0,0,1,.3,1.44c-.08,1-.68,1.86-1.36,1.86h-.06a1.1,1.1,0,0,1-.83-.6,2.51,2.51,0,0,1-.3-1.44c.08-1,.68-1.86,1.36-1.86m0-.25c-.81,0-1.52.91-1.61,2.09s.52,2.25,1.37,2.31h.07c.81,0,1.52-.91,1.61-2.09S20.79,12,20,11.9Z"/>
  <ellipse class="b" cx="21.13" cy="13.35" rx="0.81" ry="0.54" transform="translate(6.29 33.45) rotate(-85.86)"/>
  <path class="b" d="M31.52,20.48c-1.49,0-2.69-1.93-2.69-4.29S30,11.9,31.52,11.9s2.69,1.93,2.69,4.29S33,20.48,31.52,20.48Z"/>
  <path d="M31.52,12c1.41,0,2.56,1.86,2.56,4.16s-1.15,4.16-2.56,4.16S29,18.48,29,16.19,30.1,12,31.52,12m0-.25c-1.56,0-2.82,2-2.82,4.41S30,20.6,31.52,20.6s2.81-2,2.81-4.41-1.26-4.41-2.81-4.41Z"/>
  <path d="M31,18c-.56,0-1-.71-1.05-1.57a2,2,0,0,1,.28-1.15.84.84,0,0,1,.69-.47h0c.58,0,1,.7,1.07,1.56a2,2,0,0,1-.28,1.16A.89.89,0,0,1,31,18Z"/>
  <path d="M30.94,14.67v.25c.48,0,.9.66.93,1.44a2,2,0,0,1-.26,1.09.79.79,0,0,1-.61.41c-.48,0-.91-.66-.93-1.44a2,2,0,0,1,.26-1.09.79.79,0,0,1,.6-.41v-.25m0,0h0c-.64,0-1.13.81-1.1,1.76s.55,1.68,1.18,1.68h0c.63,0,1.13-.8,1.1-1.75s-.55-1.69-1.18-1.69Z"/>
  <ellipse class="b" cx="31.91" cy="15.7" rx="0.41" ry="0.63" transform="translate(-0.45 0.95) rotate(-1.7)"/>
  <path class="c" d="M35.5,23.5c-4,1.54-12.44,5.34-29.63-6.06,0,0,.19,8.18,5.57,13.57,0,0,5.34-5,18.46,1.38A23.55,23.55,0,0,0,35.5,23.5Z"/>
  <path class="d" d="M11.44,31a15.68,15.68,0,0,0,10.63,4.78,10.92,10.92,0,0,0,7.83-3.4C13.8,24.55,11.47,31,11.44,31Z"/>
</svg>