<svg xmlns="http://www.w3.org/2000/svg" viewBox="0 0 40 40" width="40px" height="40px" fill="#FFA046">
  <circle cx="20" cy="20" r="19.63" fill="#fff"/>
    <path d="M20,.75A19.25,19.25,0,1,1,.75,20,19.28,19.28,0,0,1,20,.75M20,0A20,20,0,1,0,40,20,20,20,0,0,0,20,0Z"/>
    <path d="M35.35,11.34a4.8,4.8,0,0,0-3.84-2.16,4.46,4.46,0,0,0-1.66.33,2.68,2.68,0,0,1,2.23-1.39l.33,0C33.7,8.3,34.81,9.53,35.35,11.34Z"/>
    <path d="M32.08,8.25a1.72,1.72,0,0,1,.32,0A3.51,3.51,0,0,1,35,10.69a4.71,4.71,0,0,0-3.47-1.64,4.33,4.33,0,0,0-1.32.21,2.34,2.34,0,0,1,1.89-1m0-.25a3,3,0,0,0-2.55,1.79,4.51,4.51,0,0,1,2-.49,4.85,4.85,0,0,1,4.16,2.85c-.45-2.42-1.77-4-3.24-4.13l-.35,0Z"/>
    <path d="M13.53,9.27c.72-2.39,2.32-4.08,4.2-4.4a4.56,4.56,0,0,1,.72-.06,3.73,3.73,0,0,1,3,1.59,6.86,6.86,0,0,0-2-.31A7.38,7.38,0,0,0,13.53,9.27Z"/>
    <path d="M18.45,4.94h0a3.42,3.42,0,0,1,2.63,1.23A7,7,0,0,0,19.4,6a7.44,7.44,0,0,0-5.5,2.63A5.42,5.42,0,0,1,17.75,5a4.23,4.23,0,0,1,.7-.06m0-.25a4.81,4.81,0,0,0-.74.06c-2.05.35-3.89,2.32-4.51,5.3a7.27,7.27,0,0,1,6.2-3.84,6.87,6.87,0,0,1,2.36.43,4,4,0,0,0-3.31-1.95Z"/>
    <path d="M19.39,19,19,19c-2.09-.26-3.5-2.77-3.16-5.6.33-2.63,2.11-4.7,4.07-4.7a2.07,2.07,0,0,1,.35,0c2.08.25,3.5,2.76,3.15,5.6C23.13,16.91,21.34,19,19.39,19Z" fill="#fff"/>
    <path d="M20,8.78l.33,0c2,.25,3.39,2.7,3,5.46-.32,2.57-2,4.59-3.94,4.59l-.34,0c-2-.25-3.38-2.7-3-5.47.31-2.57,2-4.58,3.94-4.58m0-.25c-2,0-3.85,2.06-4.19,4.8-.36,2.91,1.11,5.48,3.26,5.74l.37,0c2,0,3.85-2.07,4.19-4.81.35-2.9-1.11-5.47-3.27-5.74l-.36,0Z"/>
    <path d="M19.64,16.17a1.21,1.21,0,0,1-.93-.66A2.65,2.65,0,0,1,18.4,14c.08-1.11.73-2,1.48-2a1.25,1.25,0,0,1,1,.67,2.65,2.65,0,0,1,.31,1.51c-.08,1.11-.73,2-1.48,2Z"/>
    <path d="M19.88,12.15h.06a1.1,1.1,0,0,1,.83.6,2.5,2.5,0,0,1,.3,1.44c-.08,1-.68,1.86-1.36,1.86h-.06a1.1,1.1,0,0,1-.83-.6,2.51,2.51,0,0,1-.3-1.44c.08-1,.68-1.86,1.36-1.86m0-.25c-.81,0-1.52.91-1.61,2.09s.52,2.25,1.37,2.31h.07c.81,0,1.52-.91,1.61-2.09S20.79,12,20,11.9Z"/>
    <ellipse cx="21.13" cy="13.35" rx="0.81" ry="0.54" transform="translate(6.29 33.45) rotate(-85.86)" fill="#fff"/>
    <path d="M31.52,20.48c-1.49,0-2.69-1.93-2.69-4.29S30,11.9,31.52,11.9s2.69,1.93,2.69,4.29S33,20.48,31.52,20.48Z" fill="#fff"/>
    <path d="M31.52,12c1.41,0,2.56,1.86,2.56,4.16s-1.15,4.16-2.56,4.16S29,18.48,29,16.19,30.1,12,31.52,12m0-.25c-1.56,0-2.82,2-2.82,4.41S30,20.6,31.52,20.6s2.81-2,2.81-4.41-1.26-4.41-2.81-4.41Z"/>
    <path d="M31,18c-.56,0-1-.71-1.05-1.57a2,2,0,0,1,.28-1.15.84.84,0,0,1,.69-.47h0c.58,0,1,.7,1.07,1.56a2,2,0,0,1-.28,1.16A.89.89,0,0,1,31,18Z"/>
    <path d="M30.94,14.67v.25c.48,0,.9.66.93,1.44a2,2,0,0,1-.26,1.09.79.79,0,0,1-.61.41c-.48,0-.91-.66-.93-1.44a2,2,0,0,1,.26-1.09.79.79,0,0,1,.6-.41v-.25m0,0h0c-.64,0-1.13.81-1.1,1.76s.55,1.68,1.18,1.68h0c.63,0,1.13-.8,1.1-1.75s-.55-1.69-1.18-1.69Z"/>
    <ellipse cx="31.91" cy="15.7" rx="0.41" ry="0.63" transform="translate(-0.45 0.95) rotate(-1.7)" fill="#fff"/>
    <path d="M35.5,23.5c-4,1.54-12.44,5.34-29.63-6.06,0,0,.19,8.18,5.57,13.57,0,0,5.34-5,18.46,1.38A23.55,23.55,0,0,0,35.5,23.5Z" stroke="#FFA046" stroke-miterlimit="10" stroke-width="0.25"/>
    <path d="M11.44,31a15.68,15.68,0,0,0,10.63,4.78,10.92,10.92,0,0,0,7.83-3.4C13.8,24.55,11.47,31,11.44,31Z" fill="#fff" stroke="#FFA046" stroke-miterlimit="10" stroke-width="0.25"/>
  </svg>